<?xml version="1.0" standalone="no"?>
<!DOCTYPE svg PUBLIC "-//W3C//DTD SVG 1.1//EN" "http://www.w3.org/Graphics/SVG/1.1/DTD/svg11.dtd" >
<svg xmlns="http://www.w3.org/2000/svg" xmlns:xlink="http://www.w3.org/1999/xlink" version="1.1">
<metadata>
Created by FontForge 20170731 at Sat May 31 00:05:42 2014
 By ,,,
Copyright (c) Lux Typographic + Design, 2012. All rights reserved.
</metadata>
<defs>
<font id="ColetteBold-Regular" horiz-adv-x="600" >
  <font-face 
    font-family="Colette Bold"
    font-weight="600"
    font-stretch="normal"
    units-per-em="1000"
    panose-1="2 11 5 4 3 3 1 2 1 3"
    ascent="800"
    descent="-200"
    x-height="510"
    cap-height="680"
    bbox="-212 -287 1281 1028"
    underline-thickness="40"
    underline-position="-198"
    unicode-range="U+0020-FB03"
  />
<missing-glyph horiz-adv-x="960" 
d="M759 66l-279 279l-279 -279h558zM435 390l-275 275v-550zM800 115v550l-275 -275zM759 714h-558l279 -279zM90 780h780v-780h-780v780z" />
    <glyph glyph-name="fi" unicode="fi" horiz-adv-x="728" 
d="M509 396h-22q-32 0 -45.5 17t-13.5 40q0 22 13.5 39.5t45.5 17.5h106q31 0 44 -17t13 -38v-396q0 -18 -6.5 -31.5t-16.5 -21.5t-22.5 -12t-25.5 -4q-26 0 -48 16t-22 53v337zM99 396h-28q-32 0 -45.5 17t-13.5 40q0 22 13.5 39.5t45.5 17.5h28v43q0 48 11.5 81.5t34 54.5
t54.5 30t73 9q39 0 73.5 -9.5t51.5 -26.5q16 -16 16 -40q0 -25 -15 -39t-37 -14q-12 0 -23 2.5t-19 4.5q-9 2 -19 4t-21 2q-17 0 -28.5 -10t-11.5 -42v-50h79q32 0 45.5 -17t13.5 -40q0 -22 -13.5 -39.5t-45.5 -17.5h-79v-337q0 -18 -6.5 -31.5t-16.5 -21.5t-22.5 -12
t-25.5 -4q-26 0 -47.5 16t-21.5 53v337zM564 585q-19 0 -36 7t-29.5 19t-20 28.5t-7.5 35.5q0 18 7.5 34.5t20 28.5t29.5 19t36 7t36 -7t29.5 -19t20 -28.5t7.5 -34.5q0 -19 -7.5 -35.5t-20 -28.5t-29.5 -19t-36 -7z" />
    <glyph glyph-name=".notdef" horiz-adv-x="960" 
d="M759 66l-279 279l-279 -279h558zM435 390l-275 275v-550zM800 115v550l-275 -275zM759 714h-558l279 -279zM90 780h780v-780h-780v780z" />
    <glyph glyph-name=".null" horiz-adv-x="0" 
 />
    <glyph glyph-name="nonmarkingreturn" horiz-adv-x="333" 
 />
    <glyph glyph-name="space" unicode=" " horiz-adv-x="223" 
 />
    <glyph glyph-name="exclam" unicode="!" horiz-adv-x="422" 
d="M118 72q0 18 7.5 34.5t20 28.5t29.5 19t36 7t36 -7t29.5 -19t20 -28.5t7.5 -34.5q0 -19 -7.5 -35.5t-20 -28.5t-29.5 -19t-36 -7t-36 7t-29.5 19t-20 28.5t-7.5 35.5zM214 219q-22 0 -41.5 12.5t-21.5 47.5l-22 326q-2 23 4.5 40.5t18.5 29t27.5 17.5t32.5 6
q33 0 58.5 -23t23.5 -70l-17 -326q-2 -35 -21.5 -47.5t-41.5 -12.5z" />
    <glyph glyph-name="quotedbl" unicode="&#x22;" horiz-adv-x="581" 
d="M198 354q-23 0 -30 15t-12 39l-31 155q-3 18 -4.5 40t4.5 41.5t23 32.5t50 13t50 -13t23 -32.5t4.5 -41.5t-4.5 -40l-31 -155q-5 -24 -12 -39t-30 -15zM427 354q-23 0 -30 15t-12 39l-31 155q-3 18 -4.5 40t4.5 41.5t23 32.5t50 13t50 -13t23 -32.5t4.5 -41.5t-4.5 -40
l-31 -155q-5 -24 -12 -39t-30 -15z" />
    <glyph glyph-name="numbersign" unicode="#" horiz-adv-x="730" 
d="M401 281l39 117h-112l-38 -117h111zM130 169h-29q-26 0 -39.5 17.5t-13.5 38.5t13.5 38.5t39.5 17.5h66l39 117h-36q-27 0 -39.5 17.5t-12.5 38.5t12.5 38.5t39.5 17.5h73l43 131q8 26 25.5 37t34.5 11q14 0 26 -6.5t19.5 -17.5t10 -24.5t-2.5 -28.5l-34 -102h112l43 131
q8 26 25.5 37t34.5 11q14 0 26 -6.5t19.5 -17.5t10 -24.5t-2.5 -28.5l-34 -102h30q26 0 39.5 -17.5t13.5 -38.5t-13.5 -38.5t-39.5 -17.5h-67l-38 -117h36q27 0 39.5 -17.5t12.5 -38.5t-12.5 -38.5t-39.5 -17.5h-73l-43 -131q-8 -26 -25.5 -37t-34.5 -11q-14 0 -25.5 6.5
t-19 17.5t-10.5 24.5t2 28.5l33 102h-111l-43 -131q-8 -26 -25.5 -37t-34.5 -11q-14 0 -26 6.5t-19.5 17.5t-10 24.5t2.5 28.5z" />
    <glyph glyph-name="dollar" unicode="$" horiz-adv-x="660" 
d="M113 165q0 26 16.5 42.5t41.5 16.5q14 0 27.5 -5t27.5 -12q20 -11 46.5 -21t58.5 -10q40 0 64.5 13t24.5 39q0 16 -9 25q-16 15 -43 23.5t-59 16.5t-65 18t-60 29t-44 50.5t-17 81.5q0 38 15 69t43 53.5t66.5 34.5t86.5 12l24 75q8 26 25.5 37t34.5 11q14 0 25.5 -6.5
t19 -17.5t10 -24.5t-1.5 -28.5l-21 -64q13 -5 26 -12.5t23 -17t16.5 -21.5t6.5 -27q0 -24 -14 -40.5t-41 -16.5q-14 0 -26 4.5t-23 9.5q-15 8 -34.5 14t-51.5 6q-35 0 -53.5 -12.5t-18.5 -35.5q0 -15 11 -26q10 -10 35 -16.5t57 -14.5t66.5 -19.5t63.5 -32t47.5 -51.5
t18.5 -78q0 -44 -18 -77.5t-49.5 -56t-74.5 -34.5t-92 -12h-2l-28 -88q-8 -26 -25.5 -37t-34.5 -11q-14 0 -25.5 6.5t-19 17.5t-10.5 24.5t2 28.5l25 77q-16 5 -33 13t-30.5 19.5t-22 26t-8.5 32.5z" />
    <glyph glyph-name="percent" unicode="%" horiz-adv-x="924" 
d="M637 163q0 -28 5.5 -46t15 -28t21 -13.5t23.5 -3.5t24 3.5t21.5 13.5t15 28t5.5 46q0 27 -6 44.5t-15 27.5t-21 13.5t-24 3.5t-23.5 -3.5t-20.5 -13.5t-15 -27.5t-6 -44.5zM524 163q0 52 18 87t45 56t58 29.5t57 8.5t57 -8.5t58 -29.5t45 -56t18 -87q0 -53 -18 -88
t-45 -55.5t-58 -29t-57 -8.5t-57 8.5t-58 29t-45 55.5t-18 88zM222 426q12 0 24 3.5t21.5 13.5t15 28t5.5 46q0 27 -6 44.5t-15 27.5t-21 13.5t-24 3.5t-23.5 -3.5t-20.5 -13.5t-15 -27.5t-6 -44.5q0 -28 5.5 -46t15 -28t21 -13.5t23.5 -3.5zM222 336q-26 0 -57 8.5t-58 29
t-45 55.5t-18 88q0 52 18 87t45 56t58 29.5t57 8.5t57 -8.5t58 -29.5t45 -56t18 -87q0 -53 -18 -88t-45 -55.5t-58 -29t-57 -8.5zM160 34q0 19 16 38l493 602q11 14 22 19t21 5q21 0 36.5 -14.5t15.5 -37.5q0 -19 -16 -38l-493 -602q-11 -14 -22 -19t-21 -5
q-21 0 -36.5 14.5t-15.5 37.5z" />
    <glyph glyph-name="ampersand" unicode="&#x26;" horiz-adv-x="691" 
d="M196 182q0 -43 30.5 -65.5t88.5 -22.5q18 0 43.5 2.5t41.5 10.5q-27 24 -52.5 48t-46.5 45.5t-36.5 40t-23.5 30.5q-24 -17 -34.5 -37t-10.5 -52zM272 435q27 21 43 46.5t16 54.5q0 26 -12.5 45t-37.5 19q-23 0 -38.5 -18t-15.5 -47q0 -11 4 -25t10.5 -27.5t14.5 -26
t16 -21.5zM58 177q0 33 9 60t24 49.5t35 41.5t43 36q-33 42 -47.5 86.5t-14.5 76.5q0 31 8.5 62t28.5 55t53 39t82 15q51 0 84.5 -15t53.5 -37.5t28.5 -49t8.5 -50.5q0 -54 -30 -102t-83 -93q42 -54 79.5 -91.5t71.5 -64.5q6 16 6 34q0 25 -5 42t-11.5 30.5t-11.5 26
t-5 30.5q0 20 14.5 38.5t43.5 18.5q14 0 26 -6t22 -16q13 -13 22.5 -32.5t15.5 -41t9 -43t3 -38.5q0 -31 -7 -59t-20 -53q20 -16 40.5 -26t31.5 -21q8 -8 12.5 -17t4.5 -21q0 -26 -17 -42.5t-45 -16.5q-33 0 -62.5 15t-57.5 33q-38 -23 -88 -35.5t-104 -12.5q-50 0 -95.5 11
t-80 35t-55 61t-20.5 88z" />
    <glyph glyph-name="quotesingle" unicode="'" horiz-adv-x="352" 
d="M187 354q-23 0 -30 15t-12 39l-31 155q-3 18 -4.5 40t4.5 41.5t23 32.5t50 13t50 -13t23 -32.5t4.5 -41.5t-4.5 -40l-31 -155q-5 -24 -12 -39t-30 -15z" />
    <glyph glyph-name="parenleft" unicode="(" horiz-adv-x="409" 
d="M196 -95q-17 17 -34 58t-30.5 95t-22 115t-8.5 118t8.5 118.5t22 115.5t30.5 95.5t34 58.5q12 12 25 15.5t27 3.5q15 0 28.5 -7t22 -19.5t11 -29t-4.5 -35.5q-30 -81 -44.5 -156t-14.5 -160t14.5 -159t44.5 -155q7 -19 4.5 -35.5t-11 -29t-22 -19.5t-28.5 -7
q-14 0 -27 3.5t-25 15.5z" />
    <glyph glyph-name="parenright" unicode=")" horiz-adv-x="409" 
d="M227 -95q-12 -12 -25 -15.5t-27 -3.5q-15 0 -28.5 7t-22 19.5t-11 29t4.5 35.5q30 81 44.5 155t14.5 159t-14.5 160t-44.5 156q-7 19 -4.5 35.5t11 29t22 19.5t28.5 7q14 0 27 -3.5t25 -15.5q17 -17 34 -58.5t30.5 -95.5t22 -115.5t8.5 -118.5t-8.5 -118t-22 -115
t-30.5 -95t-34 -58z" />
    <glyph glyph-name="asterisk" unicode="*" horiz-adv-x="486" 
d="M156 331q-23 0 -35.5 15t-12.5 35q0 12 4.5 21.5t11.5 16.5q11 11 20 18t16.5 13t15 13.5t16.5 19.5q-16 4 -33 5t-33.5 2.5t-31.5 5t-25 14.5q-16 16 -16 37q0 20 15.5 33.5t33.5 13.5q11 0 25 -6t28.5 -14.5l29 -17t26.5 -13.5q-2 30 -10 54.5t-8 49.5q0 22 14 36.5
t36 14.5t36 -14.5t14 -36.5q0 -25 -8 -49.5t-10 -54.5q12 5 26.5 13.5l29 17t28.5 14.5t25 6q18 0 33.5 -13.5t15.5 -33.5q0 -21 -16 -37q-11 -11 -25.5 -14.5t-31 -5t-33.5 -2.5t-33 -5q9 -12 16.5 -19.5t15 -13.5t16.5 -13t20 -18q7 -7 11.5 -16.5t4.5 -21.5
q0 -20 -12.5 -35t-35.5 -15q-22 0 -36 14q-8 7 -14.5 21t-13 28.5t-12 27.5t-11.5 20q-6 -7 -11.5 -20t-12 -27.5t-13.5 -28.5t-14 -21q-14 -14 -36 -14z" />
    <glyph glyph-name="plus" unicode="+" horiz-adv-x="686" 
d="M150 212q-32 0 -48 20.5t-16 46.5q0 25 16 46t48 21h124v115q0 32 21.5 49t47.5 17t47.5 -17t21.5 -49v-115h124q32 0 48 -21t16 -46q0 -26 -16 -46.5t-48 -20.5h-124v-115q0 -33 -21.5 -49.5t-47.5 -16.5t-47.5 16.5t-21.5 49.5v115h-124z" />
    <glyph glyph-name="comma" unicode="," horiz-adv-x="349" 
d="M79 79q0 18 6 34t17.5 29t28.5 20.5t39 7.5q26 0 45 -11t31 -29t17.5 -41.5t5.5 -48.5q0 -54 -19.5 -107.5t-54.5 -88.5q-28 -28 -58 -28q-13 0 -21.5 7.5t-8.5 20.5q0 14 6.5 24t15 20t15 22.5t6.5 31.5q0 21 -10.5 34.5t-23.5 27.5t-24.5 31t-12.5 44z" />
    <glyph glyph-name="hyphen" unicode="-" horiz-adv-x="501" 
d="M141 189q-32 0 -48 20.5t-16 46.5q0 25 16 46t48 21h219q32 0 48 -21t16 -46q0 -26 -16 -46.5t-48 -20.5h-219z" />
    <glyph glyph-name="period" unicode="." horiz-adv-x="349" 
d="M77 77q0 19 7.5 36t21 29.5t31.5 20t38 7.5t37.5 -7.5t31 -20t21 -29.5t7.5 -36q0 -40 -28.5 -67.5t-68.5 -27.5q-20 0 -38 7.5t-31.5 20t-21 30t-7.5 37.5z" />
    <glyph glyph-name="slash" unicode="/" horiz-adv-x="485" 
d="M67 -2q0 13 4 25l213 666q9 29 29 42.5t40 13.5q25 0 45 -18t20 -47q0 -12 -4 -24l-214 -667q-9 -29 -29 -42t-40 -13q-24 1 -44 18t-20 46z" />
    <glyph glyph-name="zero" unicode="0" horiz-adv-x="668" 
d="M204 276q0 -50 12.5 -82t31.5 -51t42 -26.5t44 -7.5t44 7.5t42 26.5t31.5 51t12.5 82q0 49 -12.5 81t-31.5 50.5t-42 26t-44 7.5t-44 -7.5t-42 -26t-31.5 -50.5t-12.5 -81zM54 276q0 82 28 138t70 90.5t91 49t91 14.5t91 -14.5t91 -49t70 -90.5t28 -138q0 -83 -28 -139
t-70 -90.5t-91 -49.5t-91 -15t-91 15t-91 49.5t-70 90.5t-28 139z" />
    <glyph glyph-name="one" unicode="1" horiz-adv-x="416" 
d="M189 356h-2q-14 -8 -33 -18t-42 -18q-11 -4 -24 -6.5t-23 -2.5q-32 0 -45 19.5t-13 37.5q0 22 15 37q12 12 29 20t38.5 19.5t47.5 28.5t56 47q14 14 31.5 26t40.5 12q29 0 48.5 -16.5t19.5 -53.5v-428q0 -18 -6.5 -31.5t-17 -22t-24 -12.5t-26.5 -4q-27 0 -48.5 16.5
t-21.5 53.5v296z" />
    <glyph glyph-name="two" unicode="2" horiz-adv-x="581" 
d="M34 40q0 14 4.5 24.5t16.5 22.5q10 10 35 26t56.5 36.5t64.5 44.5t60 51q30 30 50 62t20 67q0 37 -21 55t-54 18q-32 0 -56 -10.5t-47 -23.5q-12 -7 -25 -12t-26 -5q-24 0 -40.5 16t-16.5 42q0 29 25 54q15 15 36.5 26t47 18.5t53.5 11.5t55 4q45 0 85 -12t69.5 -35.5
t46.5 -59t17 -83.5q0 -54 -25.5 -99.5t-63.5 -82.5q-24 -23 -52 -44.5t-57 -37.5v-1q5 1 11.5 1.5t11.5 0.5q24 0 45 -5t41 -5q17 0 29.5 4.5t24.5 9.5q6 2 13 4t15 2q24 0 41 -15t17 -41q0 -28 -20 -48q-11 -11 -26 -17.5t-31 -10.5t-31 -5.5t-25 -1.5q-20 0 -44.5 3
t-49 6.5t-48 6.5t-41.5 3q-32 0 -66.5 -8.5t-66.5 -8.5q-31 0 -44.5 15t-13.5 37z" />
    <glyph glyph-name="three" unicode="3" horiz-adv-x="549" 
d="M14 -57q0 23 15 41t46 18q8 0 16.5 -2t16.5 -4q20 -6 44 -12.5t55 -6.5q28 0 56 5.5t49.5 18.5t35 34.5t13.5 54.5q0 36 -24.5 61t-66.5 25q-12 0 -25 -1.5t-27 -1.5t-29 4t-26 15q-15 15 -15 42q0 21 15 36q12 12 29.5 16t36.5 7t37 7.5t30 16.5q9 9 15 22t6 33
q0 32 -20.5 53.5t-55.5 21.5q-32 0 -55.5 -10.5t-46.5 -23.5q-12 -7 -25 -12t-26 -5q-24 0 -40.5 16t-16.5 42q0 29 25 54q15 15 36.5 26t47 18.5t53.5 11.5t55 4q45 0 84.5 -11.5t69 -35t47 -59t17.5 -83.5q0 -36 -19.5 -70t-48.5 -55v-2q25 -9 46 -25.5t35.5 -38.5
t22.5 -48t8 -54q0 -66 -26 -110.5t-68.5 -72t-97 -39.5t-111.5 -12q-21 0 -46 2.5t-48.5 7.5t-44 14t-33.5 22q-10 10 -15.5 20.5t-5.5 24.5z" />
    <glyph glyph-name="four" unicode="4" horiz-adv-x="618" 
d="M359 150l5 195h-3q-19 -33 -37 -59t-37.5 -49t-41.5 -44t-48 -44v-2zM87 30q-36 0 -55.5 22t-19.5 53q0 22 10 40t24 32q10 10 25.5 23.5t36 32.5t46 45.5t56.5 62.5q39 46 63.5 77.5t40.5 53t26 35t20 23.5q12 12 28.5 19.5t35.5 7.5q30 0 51.5 -17t21.5 -52v-335h53
q32 0 47.5 -20t15.5 -42q0 -23 -15.5 -42t-47.5 -19h-53v-96q0 -20 -7 -34t-18 -23t-25 -13t-27 -4q-29 0 -52 17.5t-23 56.5v96h-258z" />
    <glyph glyph-name="five" unicode="5" horiz-adv-x="591" 
d="M58 -57q0 23 15 41t46 18q8 0 16.5 -2t16.5 -4q20 -6 44 -12.5t55 -6.5q28 0 56 5.5t49.5 18.5t35 34t13.5 52q0 27 -11 43.5t-29.5 26t-42 12.5t-48.5 3q-34 0 -66 -3.5t-50 -3.5q-35 0 -58 19t-22 58l5 240q1 38 21.5 57.5t50.5 19.5q12 0 25 -1.5t30.5 -3.5t41.5 -3.5
t59 -1.5q48 0 91 4.5t63 4.5q28 0 43.5 -16t15.5 -40q0 -30 -17 -47q-9 -9 -23 -14t-31.5 -7.5t-36 -3.5t-35.5 -1q-36 0 -72.5 1t-75.5 3l-3 -140q9 1 19.5 2t21 1.5t19 0.5h12.5q57 0 103.5 -11.5t79.5 -36.5t51 -63t18 -91q0 -68 -26 -114t-68.5 -75t-97 -41.5
t-111.5 -12.5q-21 0 -46 2.5t-48.5 7.5t-44 14t-33.5 22q-10 10 -15.5 20.5t-5.5 24.5z" />
    <glyph glyph-name="six" unicode="6" horiz-adv-x="623" 
d="M205 265q0 -25 6 -53.5t21 -53t40.5 -40.5t64.5 -16q51 0 80 33.5t29 84.5q0 47 -25.5 77t-77.5 30q-12 0 -29 -3.5t-36 -11t-38.5 -19.5t-34.5 -28zM52 301q0 86 21 159t63.5 126t107 82.5t150.5 29.5q44 0 81.5 -8t57.5 -28q18 -18 18 -45q0 -23 -15.5 -39.5
t-47.5 -16.5q-14 0 -25.5 2t-23.5 4.5t-25.5 4.5t-31.5 2q-36 0 -67.5 -13t-55 -36.5t-38 -56.5t-16.5 -72q31 29 71.5 42t70.5 13q48 0 92.5 -13t78.5 -40.5t54.5 -70t20.5 -101.5q0 -60 -22.5 -106t-59 -76.5t-83 -46t-95.5 -15.5q-70 0 -122.5 24t-88 66.5t-53 101
t-17.5 127.5z" />
    <glyph glyph-name="seven" unicode="7" horiz-adv-x="536" 
d="M104 -78q0 17 8.5 34t19.5 30q95 111 149.5 224t74.5 229q-24 -2 -53 -3.5t-52 -1.5t-52.5 1t-51.5 3v-12q0 -14 -6.5 -24t-16 -16.5t-21.5 -9.5t-24 -3q-26 0 -47.5 15t-21.5 47v50q0 34 19 51t46 17h16q14 0 36 -0.5t46.5 -1.5t48 -1.5t40.5 -0.5q28 0 58 1.5t62 3.5
q21 2 32 3t23 1q29 0 49.5 -15.5t20.5 -49.5q0 -40 -11 -91t-30 -107t-44.5 -113.5t-54.5 -110.5t-61 -98.5t-63 -76.5q-23 -23 -40 -29.5t-36 -6.5q-26 0 -44.5 18.5t-18.5 43.5z" />
    <glyph glyph-name="eight" unicode="8" horiz-adv-x="638" 
d="M191 202q0 -28 10.5 -47.5t28 -31.5t40.5 -17t49 -5t49 5t40.5 17t28 31.5t10.5 47.5q0 27 -10 46t-27.5 31t-41 17.5t-49.5 5.5t-49.5 -5.5t-41 -17.5t-27.5 -31t-10 -46zM319 425q38 0 64.5 19t26.5 63t-26 64t-65 20t-65 -20t-26 -64t26.5 -63t64.5 -19zM42 187
q0 36 9.5 65.5t25 52.5t36.5 39.5t44 26.5v1q-29 18 -51.5 54.5t-22.5 80.5q0 46 18.5 82t50.5 60t75 36.5t92 12.5t92 -12.5t75 -36.5t50.5 -60t18.5 -82q0 -44 -22.5 -80.5t-51.5 -54.5v-1q23 -10 44 -26.5t36.5 -39.5t25 -52.5t9.5 -65.5q0 -58 -25 -97t-64.5 -63
t-89 -34.5t-98.5 -10.5t-98.5 10.5t-89 34.5t-64.5 63t-25 97z" />
    <glyph glyph-name="nine" unicode="9" horiz-adv-x="623" 
d="M418 285q0 25 -6 53.5t-21 53t-40.5 40.5t-64.5 16q-51 0 -80 -33.5t-29 -84.5q0 -47 25.5 -77t77.5 -30q12 0 29 3.5t36 11t38.5 19.5t34.5 28zM571 249q0 -86 -21 -159t-63.5 -126t-107 -82.5t-150.5 -29.5q-44 0 -81.5 8t-57.5 28q-18 18 -18 45q0 23 15.5 39.5
t47.5 16.5q13 0 25 -2t24 -4.5t25.5 -4.5t31.5 -2q36 0 67.5 13t55 36.5t38 56.5t16.5 72q-31 -29 -71.5 -42t-70.5 -13q-48 0 -92.5 13t-78.5 40.5t-54.5 70t-20.5 101.5q0 60 22.5 106t59 76.5t83 46t95.5 15.5q70 0 122.5 -24t88 -66.5t53 -101t17.5 -127.5z" />
    <glyph glyph-name="colon" unicode=":" horiz-adv-x="369" 
d="M87 77q0 19 7.5 36t21 29.5t31.5 20t38 7.5t37.5 -7.5t31 -20t21 -29.5t7.5 -36q0 -40 -28.5 -67.5t-68.5 -27.5q-20 0 -38 7.5t-31.5 20t-21 30t-7.5 37.5zM87 435q0 19 7.5 36t21 29.5t31.5 20t38 7.5t37.5 -7.5t31 -20t21 -29.5t7.5 -36q0 -40 -28.5 -67.5
t-68.5 -27.5q-20 0 -38 7.5t-31.5 20t-21 30t-7.5 37.5z" />
    <glyph glyph-name="semicolon" unicode=";" horiz-adv-x="369" 
d="M91 79q0 18 6 34t17.5 29t28.5 20.5t39 7.5q26 0 45 -11t31 -29t17.5 -41.5t5.5 -48.5q0 -54 -19.5 -107.5t-54.5 -88.5q-28 -28 -58 -28q-13 0 -21.5 7.5t-8.5 20.5q0 14 6.5 24t15 20t15 22.5t6.5 31.5q0 21 -10.5 34.5t-23.5 27.5t-24.5 31t-12.5 44zM87 435
q0 19 7.5 36t21 29.5t31.5 20t38 7.5t37.5 -7.5t31 -20t21 -29.5t7.5 -36q0 -40 -28.5 -67.5t-68.5 -27.5q-20 0 -38 7.5t-31.5 20t-21 30t-7.5 37.5z" />
    <glyph glyph-name="less" unicode="&#x3c;" horiz-adv-x="665" 
d="M130 213q-15 11 -24.5 26.5t-9.5 36.5q0 22 12.5 38.5t25.5 25.5l307 213q13 9 25 12.5t24 3.5q28 0 46 -18.5t18 -44.5q0 -14 -6 -31.5t-23 -29.5l-247 -169l247 -170q17 -12 23 -29.5t6 -31.5q0 -26 -18 -44.5t-46 -18.5q-12 0 -24 3.5t-25 12.5z" />
    <glyph glyph-name="equal" unicode="=" horiz-adv-x="776" 
d="M180 108q-32 0 -48 20.5t-16 46.5q0 25 16 46t48 21h416q32 0 48 -21t16 -46q0 -26 -16 -46.5t-48 -20.5h-416zM180 317q-32 0 -48 21t-16 46q0 26 16 46.5t48 20.5h416q32 0 48 -20.5t16 -46.5q0 -25 -16 -46t-48 -21h-416z" />
    <glyph glyph-name="greater" unicode="&#x3e;" horiz-adv-x="665" 
d="M535 338q15 -11 24.5 -26.5t9.5 -36.5q0 -22 -12.5 -38.5t-25.5 -25.5l-307 -213q-13 -9 -25 -12.5t-24 -3.5q-28 0 -46 18.5t-18 44.5q0 14 6 31.5t23 29.5l247 169l-247 170q-17 12 -23 29.5t-6 31.5q0 26 18 44.5t46 18.5q12 0 24 -3.5t25 -12.5z" />
    <glyph glyph-name="question" unicode="?" horiz-adv-x="519" 
d="M108 72q0 18 7.5 34.5t20 28.5t29.5 19t36 7t36 -7t29.5 -19t20 -28.5t7.5 -34.5q0 -19 -7.5 -35.5t-20 -28.5t-29.5 -19t-36 -7t-36 7t-29.5 19t-20 28.5t-7.5 35.5zM199 219q-26 0 -46.5 16.5t-20.5 54.5v9q0 18 2.5 32t7.5 26t13 22.5t19 21.5q23 20 50 34t50 27.5
t38.5 28t15.5 34.5q0 25 -17 41t-50 16q-36 0 -61 -9t-45 -20l-25 -12.5t-28 -5.5q-23 0 -38.5 16t-15.5 41q0 26 21 47q15 15 37 26t47.5 18.5t52.5 11t52 3.5q41 0 79.5 -10t68 -31t47.5 -53t18 -77q0 -44 -22 -74t-52.5 -52t-62 -39.5t-49.5 -35.5q-8 -8 -13 -17.5
t-5 -21.5q0 -36 -21 -52t-47 -16z" />
    <glyph glyph-name="at" unicode="@" horiz-adv-x="818" 
d="M341 173q0 -26 11 -37t28 -11q8 0 19 3.5t21.5 11t19 20.5t12.5 33l17 81q-13 24 -46 24q-21 0 -36.5 -12t-25.5 -31t-15 -41t-5 -41zM54 208q0 80 28 146t76.5 113.5t114 73.5t140.5 26q82 0 148 -24t112.5 -66t71.5 -100t25 -127q0 -52 -16 -90.5t-41.5 -63.5
t-57.5 -37.5t-63 -12.5q-33 0 -61.5 13.5t-45.5 34.5q-23 -26 -55.5 -37.5t-64.5 -11.5q-60 0 -95 34t-35 97q0 35 12.5 71t36.5 65t59 47.5t80 18.5q20 0 39 -7t32 -17q6 14 20 19t27 5q19 0 33 -11.5t8 -37.5l-28 -127q-3 -14 -3 -25q0 -21 9.5 -36t32.5 -15q39 0 60.5 34
t21.5 89q0 50 -17 91.5t-50.5 71.5t-82.5 46.5t-112 16.5q-53 0 -100 -19t-81.5 -54t-54.5 -84.5t-20 -109.5t20 -109t54.5 -84t81.5 -54t100 -19q27 0 47.5 3.5t36 9t27.5 12t22 12.5q11 7 22 13.5t25 6.5q19 0 30.5 -12t11.5 -29q0 -19 -18 -37q-13 -13 -34 -25.5
t-47.5 -22.5t-57 -16t-63.5 -6q-76 0 -142 25.5t-114.5 72.5t-76.5 112.5t-28 146.5z" />
    <glyph glyph-name="A" unicode="A" horiz-adv-x="671" 
d="M437 277q-11 46 -31.5 98.5t-48.5 106.5q-13 26 -22 47h-1q-5 -11 -10 -22.5t-12 -24.5q-28 -54 -48.5 -106.5t-31.5 -98.5h205zM46 63q0 33 9 82t25.5 106t38.5 118t48.5 117.5t56 104t60.5 78.5q21 21 51.5 21t51.5 -21q31 -31 60.5 -78.5t56 -104t48.5 -117
t38.5 -117.5t25.5 -106t9 -82q0 -42 -20.5 -59t-49.5 -17q-30 0 -47 18t-22 49q-3 20 -7.5 46t-12.5 58h-263q-8 -32 -12.5 -58t-7.5 -46q-5 -31 -22 -49t-47 -18q-29 0 -48.5 16.5t-19.5 58.5z" />
    <glyph glyph-name="B" unicode="B" horiz-adv-x="658" 
d="M366 119q51 0 73 26t22 63q0 40 -21.5 64.5t-73.5 24.5h-147v-178h147zM340 413q45 0 62.5 21t17.5 54q0 30 -16 52t-64 22h-121v-149h121zM77 611q0 38 22 53.5t48 15.5h201q62 0 104 -14t67.5 -38t36.5 -55t11 -64q0 -41 -16 -79t-49 -59v-2q30 -11 50.5 -30t33 -42
t17.5 -49.5t5 -53.5q0 -87 -60.5 -140.5t-178.5 -53.5h-222q-26 0 -48 16t-22 53v542z" />
    <glyph glyph-name="C" unicode="C" horiz-adv-x="647" 
d="M53 334q0 102 29.5 171.5t77 112t106 61.5t116.5 19q39 0 76.5 -9.5t67 -27.5t47 -44t17.5 -59q0 -18 -6 -31t-15.5 -21.5t-21 -12.5t-21.5 -4q-25 0 -38.5 8.5t-24.5 19.5q-9 9 -17 19t-18.5 19t-24.5 14.5t-35 5.5q-29 0 -58.5 -12.5t-53.5 -41t-39 -74.5t-15 -113
q0 -66 18 -109t46 -68.5t62 -35.5t66 -10q41 0 71.5 12t53.5 23q24 11 41 11q27 0 42 -18t15 -38q0 -17 -5.5 -29.5t-18.5 -25.5q-15 -15 -38.5 -27t-50.5 -20t-55 -12.5t-51 -4.5q-70 0 -132.5 19t-110 61t-75 109t-27.5 163z" />
    <glyph glyph-name="D" unicode="D" horiz-adv-x="699" 
d="M323 122q42 0 74 9.5t54.5 34t34 67t11.5 107.5t-11.5 107.5t-34 67t-54.5 34t-74 9.5h-104v-436h104zM77 611q0 38 22 53.5t48 15.5h171q69 0 128.5 -16t104 -55t70 -104.5t25.5 -164.5t-25.5 -164.5t-70 -104.5t-104 -55t-128.5 -16h-171q-26 0 -48 16t-22 53v542z" />
    <glyph glyph-name="E" unicode="E" horiz-adv-x="574" 
d="M77 576q0 28 9 47.5t24 32t33.5 18.5t38.5 6h284q32 0 46 -20t14 -42q0 -23 -14 -41.5t-46 -18.5h-228q-19 0 -19 -19v-124h228q32 0 46 -18.5t14 -41.5q0 -22 -14 -42t-46 -20h-228v-152q0 -19 19 -19h239q32 0 46 -18.5t14 -41.5q0 -22 -14 -42t-46 -20h-295
q-20 0 -38.5 6t-33.5 18.5t-24 32t-9 47.5v472z" />
    <glyph glyph-name="F" unicode="F" horiz-adv-x="546" 
d="M77 576q0 28 9 47.5t24 32t33.5 18.5t38.5 6h284q32 0 46 -20t14 -42q0 -23 -14 -41.5t-46 -18.5h-228q-19 0 -19 -19v-124h228q32 0 46 -18.5t14 -41.5q0 -22 -14 -42t-46 -20h-228v-234q0 -19 -6.5 -32t-16.5 -21.5t-23 -12t-26 -3.5q-26 0 -48 15.5t-22 53.5v517z" />
    <glyph glyph-name="G" unicode="G" horiz-adv-x="718" 
d="M53 339q0 100 30.5 168.5t79 111t108.5 61t119 18.5q28 0 57 -3.5t55.5 -10.5t49.5 -18t38 -26q11 -11 17.5 -24t6.5 -29q0 -26 -15 -43.5t-43 -17.5q-14 0 -25 4t-22 10q-19 10 -46 19.5t-75 9.5q-34 0 -67 -12t-59.5 -39t-42.5 -71t-16 -108t15.5 -108.5t42 -72.5
t61 -40.5t73.5 -12.5q29 0 64 5.5t61 16.5v134h-102q-32 0 -46 19t-14 42t14 42t46 19h170q38 0 54 -20.5t16 -55.5v-181q0 -25 -2 -39.5t-15 -27.5q-21 -21 -52.5 -35.5t-65.5 -24t-66.5 -13.5t-56.5 -4q-73 0 -136 19t-110 61.5t-74 110.5t-27 166z" />
    <glyph glyph-name="H" unicode="H" horiz-adv-x="715" 
d="M77 621q0 37 22 53t48 16q13 0 26 -4t23 -12t16.5 -21t6.5 -32v-206h277v206q0 38 22 53.5t48 15.5q13 0 25.5 -4t23 -12t17 -21t6.5 -32v-562q0 -18 -6.5 -31.5t-17 -21.5t-23 -12t-25.5 -4q-26 0 -48 16t-22 53v234h-277v-234q0 -18 -6.5 -31.5t-16.5 -21.5t-23 -12
t-26 -4q-26 0 -48 16t-22 53v562z" />
    <glyph glyph-name="I" unicode="I" horiz-adv-x="390" 
d="M56 54q0 21 13 39.5t42 18.5h13v457h-13q-29 0 -42 17t-13 37q0 21 13 39t42 18h169q29 0 41.5 -18t12.5 -39q0 -20 -12.5 -37t-41.5 -17h-14v-457h14q29 0 41.5 -18.5t12.5 -39.5q0 -19 -12.5 -36.5t-41.5 -17.5h-169q-29 0 -42 17.5t-13 36.5z" />
    <glyph glyph-name="J" unicode="J" horiz-adv-x="329" 
d="M18 -55l34 17t29 20q22 22 25.5 49.5t3.5 68.5v521q0 38 22 53.5t48 15.5q13 0 26 -4t23 -12t16.5 -21t6.5 -32v-548q0 -34 -3 -59.5t-10.5 -46t-20 -38.5t-31.5 -37q-13 -13 -31 -25t-38.5 -21.5t-40.5 -15t-38 -5.5q-33 0 -48 16.5t-15 42.5q0 22 12 37t30 24z" />
    <glyph glyph-name="K" unicode="K" horiz-adv-x="632" 
d="M77 621q0 37 22 53t48 16q13 0 26 -4t23 -12t16.5 -21t6.5 -32v-228q48 27 82.5 53t61 55.5t47.5 64t42 79.5q8 17 22.5 31.5t36.5 14.5q29 0 49.5 -18t20.5 -49q0 -15 -9 -41.5t-29.5 -61t-52.5 -74.5t-78 -81q42 -39 77 -82t59.5 -84.5t38.5 -77.5t14 -62
q0 -35 -19.5 -54.5t-48.5 -19.5q-26 0 -42.5 12.5t-24.5 35.5q-10 27 -23 57t-32.5 61.5t-48 62.5t-69.5 61q-17 -10 -36 -20l-38 -20v-177q0 -18 -6.5 -31.5t-16.5 -21.5t-23 -12t-26 -4q-26 0 -48 16t-22 53v562z" />
    <glyph glyph-name="L" unicode="L" horiz-adv-x="541" 
d="M77 619q0 38 23 54.5t49 16.5q13 0 26.5 -4t24 -12.5t17 -22t6.5 -32.5v-478q0 -19 19 -19h230q32 0 46 -18.5t14 -41.5q0 -22 -14 -42t-46 -20h-290q-20 0 -38.5 6t-33.5 18.5t-24 32t-9 47.5v515z" />
    <glyph glyph-name="M" unicode="M" horiz-adv-x="847" 
d="M67 74q0 43 3 100.5t8.5 120t13.5 124t17.5 113t20 88t22.5 48.5q10 10 21.5 16t30.5 6q4 0 12 -1t17.5 -5t19.5 -12.5t18 -24.5l153 -294h2l153 294q8 16 18 24.5t19 12.5t17 5t12 1q19 0 29.5 -6t20.5 -16q12 -12 22.5 -48.5t20 -88t17.5 -113t13.5 -124t8.5 -120
t3 -100.5q0 -42 -18.5 -63t-52.5 -21q-36 0 -54.5 24.5t-18.5 56.5q0 57 -2.5 113.5t-7 106.5t-9.5 91t-9 65h-2q-5 -12 -11 -25.5t-11 -21.5l-93 -180q-25 -47 -69 -47q-45 0 -70 47l-92 180q-5 8 -11 21.5t-11 25.5h-2q-5 -24 -9.5 -65t-9 -91t-7 -106.5t-2.5 -113.5
q0 -32 -17.5 -56.5t-53.5 -24.5q-70 0 -70 84z" />
    <glyph glyph-name="N" unicode="N" horiz-adv-x="720" 
d="M77 615q0 38 23 56.5t51 18.5q17 0 38 -6.5t44 -38.5l224 -317l10 -15l13 -19.5t13 -21t11 -19.5h2q-2 26 -2.5 49.5t-0.5 51.5v267q0 18 6.5 31t16.5 21.5t23 12.5t26 4q25 0 46.5 -16.5t21.5 -52.5v-558q0 -37 -22.5 -55t-47.5 -18q-7 0 -16.5 1t-20.5 5t-22 11.5
t-20 20.5l-229 321q-9 13 -24.5 36.5t-24.5 41.5h-2q2 -27 2.5 -50t0.5 -52v-266q0 -18 -6.5 -31t-16.5 -21.5t-23 -12.5t-26 -4q-25 0 -46.5 16.5t-21.5 52.5v556z" />
    <glyph glyph-name="O" unicode="O" horiz-adv-x="732" 
d="M366 109q28 0 57.5 10t53 36t38.5 71t15 115q0 69 -15 114t-38.5 71t-53 36t-57.5 10q-29 0 -58 -10t-52.5 -36t-38.5 -71t-15 -114q0 -70 15 -115t38.5 -71t52.5 -36t58 -10zM53 341q0 107 29 176t74 109.5t100.5 56t109.5 15.5t109.5 -15.5t100.5 -56t74 -109.5
t29 -176t-29 -176.5t-74 -110t-100.5 -56.5t-109.5 -16t-109.5 16t-100.5 56.5t-74 110t-29 176.5z" />
    <glyph glyph-name="P" unicode="P" horiz-adv-x="618" 
d="M346 332q31 0 51 10t31.5 26.5t16 36.5t4.5 40t-4.5 40t-16 36.5t-31.5 26.5t-51 10h-127v-226h127zM77 611q0 38 22 53.5t48 15.5h205q64 0 110 -19.5t75.5 -52.5t43 -75.5t13.5 -88.5q0 -45 -14 -87.5t-43 -75t-75 -52t-110 -19.5h-133v-151q0 -18 -6.5 -31.5
t-16.5 -21.5t-23 -12t-26 -4q-26 0 -48 16t-22 53v552z" />
    <glyph glyph-name="Q" unicode="Q" horiz-adv-x="732" 
d="M366 109q28 0 57 10t52.5 36t38 71t14.5 115q0 69 -14.5 114t-38 71t-52.5 36t-57 10q-29 0 -57.5 -10t-52 -36t-38 -71t-14.5 -114q0 -70 14.5 -115t38 -71t52 -36t57.5 -10zM324 -16q-50 5 -98.5 25t-87 61t-62 107t-23.5 164q0 107 29 176t74 109.5t100.5 56
t109.5 15.5t109.5 -15.5t100.5 -56t74 -109.5t29 -176q0 -76 -15 -132.5t-40 -97t-59 -66t-71 -40.5q25 -32 54 -43.5t51 -19.5q19 -7 30.5 -21t11.5 -37q0 -29 -19 -44t-47 -15q-30 0 -65 12t-69.5 33.5t-65 50.5t-51.5 63z" />
    <glyph glyph-name="R" unicode="R" horiz-adv-x="653" 
d="M346 367q31 0 51 8.5t31.5 22.5t16 31t4.5 34t-4.5 34t-16 30.5t-31.5 22t-51 8.5h-127v-191h127zM77 611q0 38 22 53.5t48 15.5h205q64 0 110 -18t75.5 -48.5t43 -70t13.5 -81.5q0 -63 -33.5 -117t-102.5 -81q22 -20 45.5 -46t42.5 -53.5t31 -56.5t12 -55
q0 -32 -19.5 -49.5t-48.5 -17.5q-26 0 -42.5 12t-27.5 38q-28 63 -67.5 114t-105.5 95h-59v-186q0 -18 -6.5 -31.5t-16.5 -21.5t-23 -12t-26 -4q-26 0 -48 16t-22 53v552z" />
    <glyph glyph-name="S" unicode="S" horiz-adv-x="617" 
d="M78 51q-27 27 -27 59q0 28 18.5 46t44.5 18q14 0 28 -6t29 -15q26 -16 57.5 -28.5t76.5 -12.5q53 0 85.5 17.5t32.5 58.5q0 10 -3.5 20t-11.5 18q-20 20 -53.5 31t-71.5 21t-77.5 23t-71 36t-51.5 61t-20 98q0 46 17.5 83t50 63.5t77.5 41t101 14.5q27 0 64 -4.5t71 -17
t58 -34t24 -55.5q0 -26 -15 -43t-43 -17q-17 0 -30.5 6t-28.5 13q-18 8 -41.5 15.5t-61.5 7.5q-96 0 -96 -70q0 -25 16 -41q15 -16 47 -25.5t70 -19.5t78.5 -24t73.5 -38t54 -61.5t21 -94.5q0 -53 -21 -92.5t-57.5 -66.5t-86.5 -40.5t-107 -13.5q-30 0 -61.5 4t-60.5 12.5
t-54.5 21.5t-43.5 31z" />
    <glyph glyph-name="T" unicode="T" horiz-adv-x="530" 
d="M191 558h-133q-32 0 -46 19t-14 41q0 23 14 42.5t46 19.5h414q32 0 46 -19.5t14 -42.5q0 -22 -14 -41t-46 -19h-139v-499q0 -18 -6.5 -31.5t-16.5 -21.5t-23 -12t-26 -4q-26 0 -48 16t-22 53v499z" />
    <glyph glyph-name="U" unicode="U" horiz-adv-x="714" 
d="M72 621q0 38 22 53.5t48 15.5q13 0 26 -4t23 -12t16.5 -21t6.5 -32v-350q0 -51 12 -83t32 -49.5t45.5 -24t53.5 -6.5t53.5 6.5t45.5 24t32 49.5t12 83v350q0 38 22 53.5t48 15.5q13 0 25.5 -4t23 -12t17 -21t6.5 -32v-339q0 -92 -23.5 -150.5t-63 -91.5t-91 -45.5
t-107.5 -12.5t-107.5 12.5t-91 45.5t-63 91t-23.5 150v340z" />
    <glyph glyph-name="V" unicode="V" horiz-adv-x="642" 
d="M266 8q-31 31 -60 77t-55.5 100t-48.5 113t-37.5 116t-24.5 108t-9 90q0 42 21 59.5t50 17.5q35 0 51 -22.5t21 -51.5q18 -118 52 -228.5t96 -220.5h2q57 103 93 214t53 235q5 31 21.5 52.5t47.5 21.5q29 0 50.5 -17.5t21.5 -59.5q0 -38 -9 -88.5t-24.5 -107.5
t-37.5 -116t-48.5 -114t-55.5 -101t-60 -77q-11 -11 -25.5 -16t-29.5 -5t-30 5t-25 16z" />
    <glyph glyph-name="W" unicode="W" horiz-adv-x="899" 
d="M205 15q-24 24 -45.5 65.5t-39.5 92.5t-32.5 108.5t-24.5 113.5t-15.5 106.5t-5.5 89.5q0 46 17 72t57 26q14 0 26.5 -4.5t24.5 -16.5q14 -14 17 -36.5t4 -44.5q1 -36 5.5 -79t12 -87.5t18 -89.5t23.5 -85q7 -21 14.5 -44t15.5 -40h2q12 20 21.5 42t17.5 41q19 47 29 90
t17 78.5t14.5 62t21.5 40.5q12 12 24.5 17t28.5 5q18 0 29 -5t23 -17q13 -13 20 -39t13.5 -61.5t16.5 -78.5t30 -90q8 -20 18 -43t23 -43h2q8 17 15.5 40.5t14.5 44.5q13 40 23.5 85t18 89.5t11.5 87.5t5 79q0 9 0.5 20t3 22t6.5 21.5t10 16.5q11 11 22.5 16t28.5 5
q38 0 54 -26.5t16 -71.5q0 -38 -5.5 -89t-15.5 -106.5t-24.5 -112.5t-33 -108t-40 -92.5t-45.5 -65.5q-14 -14 -30 -20t-31 -6q-14 0 -29 6t-29 20q-18 18 -36 45t-34 58t-30 65.5t-25 67.5h-2q-9 -35 -22 -69t-28.5 -65t-33.5 -57.5t-37 -45.5q-14 -14 -30 -19.5t-30 -5.5
q-15 0 -31 5.5t-30 19.5z" />
    <glyph glyph-name="X" unicode="X" horiz-adv-x="649" 
d="M54 60q0 33 15 70t38.5 74t53 72t58.5 64q-29 28 -57 62t-50 70.5t-35.5 73t-13.5 69.5q0 40 21 57t47 17t44.5 -14.5t26.5 -39.5q6 -18 14.5 -40t23 -47.5t37 -53.5t55.5 -57q33 29 55.5 57t36.5 53t22 46.5t12 36.5q7 26 23 42.5t43 16.5q35 0 51 -21.5t16 -53.5
q0 -9 -1.5 -18t-3.5 -19q-8 -30 -23.5 -62t-36 -62.5t-44.5 -59.5t-49 -53q29 -29 57.5 -64.5t51.5 -73t37.5 -74.5t14.5 -70q0 -20 -6 -33.5t-15.5 -21.5t-21.5 -11.5t-24 -3.5q-29 0 -46.5 13.5t-26.5 38.5q-6 18 -15.5 41t-24.5 49.5t-37.5 55.5t-55.5 58
q-33 -29 -55 -58t-36.5 -55t-22.5 -48.5t-13 -39.5q-8 -25 -26 -40t-44 -15t-48 16t-22 56z" />
    <glyph glyph-name="Y" unicode="Y" horiz-adv-x="601" 
d="M230 238q-33 30 -69.5 75.5t-67 98t-50.5 106t-20 99.5q0 32 19 52t48 20q25 0 43 -14t25 -40q5 -20 15 -51.5t26.5 -68t42 -76t61.5 -73.5q36 34 61 73.5t41.5 76t25.5 68t14 51.5q7 27 25 40.5t42 13.5q31 0 48.5 -20.5t17.5 -51.5q0 -45 -19 -97.5t-49 -104t-66.5 -98
t-71.5 -79.5v-179q0 -18 -6.5 -31.5t-16.5 -21.5t-23 -12t-26 -4q-26 0 -48 16t-22 53v179z" />
    <glyph glyph-name="Z" unicode="Z" horiz-adv-x="555" 
d="M18 62q0 22 11 37l311 459h-244q-32 0 -46 18.5t-14 41.5q0 22 14 42t46 20h381q32 0 46 -20t14 -42t-11 -37l-311 -459h257q32 0 46 -18.5t14 -41.5q0 -22 -14 -42t-46 -20h-394q-32 0 -46 20t-14 42z" />
    <glyph glyph-name="bracketleft" unicode="[" horiz-adv-x="408" 
d="M110 643q0 21 13 38t44 17h124q32 0 45.5 -17.5t13.5 -39.5q0 -23 -13.5 -40t-45.5 -17h-43v-584h43q32 0 45.5 -17t13.5 -40q0 -22 -13.5 -39.5t-45.5 -17.5h-124q-31 0 -44 17t-13 38v702z" />
    <glyph glyph-name="backslash" unicode="\" horiz-adv-x="485" 
d="M418 -2q0 -29 -20 -46t-44 -18q-20 0 -40 13t-29 42l-214 667q-4 12 -4 24q0 29 20 47t45 18q20 0 40 -13.5t29 -42.5l213 -666q4 -12 4 -25z" />
    <glyph glyph-name="bracketright" unicode="]" horiz-adv-x="408" 
d="M298 -59q0 -21 -13 -38t-44 -17h-124q-32 0 -45.5 17.5t-13.5 39.5q0 23 13.5 40t45.5 17h43v584h-43q-32 0 -45.5 17t-13.5 40q0 22 13.5 39.5t45.5 17.5h124q31 0 44 -17t13 -38v-702z" />
    <glyph glyph-name="asciicircum" unicode="^" horiz-adv-x="538" 
d="M117 350q-20 0 -34.5 15t-14.5 36q0 6 2.5 13.5t6.5 12.5l137 235q10 17 22.5 26.5t31.5 9.5t31.5 -9.5t22.5 -26.5l140 -237q8 -11 8 -24q0 -21 -14.5 -36t-34.5 -15q-14 0 -26 8t-20 21l-107 186l-105 -186q-8 -13 -20 -21t-26 -8z" />
    <glyph glyph-name="underscore" unicode="_" horiz-adv-x="558" 
d="M558 -72q20 0 34 -14t14 -34t-14 -34t-34 -14h-558q-20 0 -34 14t-14 34t14 34t34 14h558z" />
    <glyph glyph-name="grave" unicode="`" 
d="M210 643q-22 8 -32 26t-10 36q0 29 17 45t43 16q18 0 35 -9l137 -73q14 -8 22.5 -21.5t8.5 -28.5q0 -22 -15 -36.5t-35 -14.5q-11 0 -22 4z" />
    <glyph glyph-name="a" unicode="a" horiz-adv-x="568" 
d="M181 152q0 -34 20.5 -47.5t54.5 -13.5q35 0 58.5 10t37.5 18q-3 16 -4 31t-1 33v39q-10 1 -16.5 1h-11.5q-23 0 -47.5 -2t-44.5 -9.5t-33 -21.5t-13 -38zM39 144q0 52 24.5 86t63 53.5t86 27t94.5 7.5h14t26 -1v46q0 27 -18.5 38.5t-55.5 11.5q-40 0 -65.5 -8t-39.5 -14
q-7 -3 -18 -6t-22 -3q-26 0 -40 16.5t-14 36.5q0 26 17 43q13 13 34 22.5t45.5 15.5t51 9t51.5 3q46 0 85 -9t67 -28.5t43.5 -50t15.5 -73.5v-189q0 -28 2.5 -43t8.5 -23q12 -13 24.5 -18t25.5 -19q13 -13 13 -36q0 -19 -13.5 -35.5t-45.5 -16.5q-35 0 -60 14.5t-45 34.5
q-9 -9 -24.5 -18.5t-35 -17.5t-43.5 -13t-49 -5q-39 0 -76 9.5t-65 29.5t-45 50.5t-17 72.5z" />
    <glyph glyph-name="b" unicode="b" horiz-adv-x="622" 
d="M212 145q19 -27 46.5 -39.5t60.5 -12.5q21 0 42 8.5t37 27.5t26 50t10 77t-8.5 76.5t-23.5 49t-35 26.5t-43 8q-33 0 -64 -17t-48 -48v-206zM72 651q0 37 21.5 53t47.5 16t48.5 -15.5t22.5 -53.5v-170q23 20 56 33.5t76 13.5q45 0 87.5 -13.5t75.5 -45t53 -83.5t20 -130
t-23 -130.5t-59 -84.5t-79 -45.5t-83 -13.5q-38 0 -76 12.5t-66 38.5l-1 -3q-13 -40 -57 -40q-24 0 -44 15.5t-20 53.5v592z" />
    <glyph glyph-name="c" unicode="c" horiz-adv-x="525" 
d="M42 252q0 77 25 130t62.5 85.5t82.5 46.5t84 14q31 0 63.5 -7t59.5 -22.5t44 -39.5t17 -58q0 -29 -17 -47t-47 -18q-17 0 -27.5 6t-17.5 13q-8 8 -14 18t-13.5 19t-19.5 15t-32 6q-17 0 -35.5 -9t-33.5 -28t-25 -50t-10 -74t12.5 -72t32.5 -47t45 -26t49 -8q25 0 44 6
t36 15q25 14 45 14q24 0 37.5 -14.5t13.5 -39.5q0 -26 -20.5 -44.5t-50 -30.5t-61.5 -17.5t-55 -5.5q-47 0 -96 13t-88.5 44.5t-64.5 83.5t-25 129z" />
    <glyph glyph-name="d" unicode="d" horiz-adv-x="632" 
d="M298 94q33 0 64 17t48 48v206q-19 27 -46.5 39.5t-60.5 12.5q-21 0 -42 -8.5t-37 -27.5t-26 -50t-10 -77t8.5 -76.5t23.5 -49t35 -26.5t43 -8zM42 254q0 78 22 130.5t56.5 84.5t77 45.5t82.5 13.5q76 0 130 -43v166q0 37 22.5 53t48.5 16t47.5 -16t21.5 -53v-452
q0 -22 6 -42t12.5 -38t12.5 -34t6 -31q0 -29 -20 -46.5t-46 -17.5q-13 0 -26 5t-25 17q-16 17 -31 48q-23 -31 -63 -54.5t-98 -23.5q-45 0 -87.5 13.5t-75.5 45t-53 83.5t-20 130z" />
    <glyph glyph-name="e" unicode="e" horiz-adv-x="547" 
d="M374 308q-4 60 -25 86.5t-64 26.5t-68 -29t-30 -84h187zM42 251q0 75 20 127.5t53 85.5t75 48.5t86 15.5q50 0 92 -15t72.5 -45.5t47.5 -78.5t17 -114q0 -14 -2 -26.5t-9 -22.5t-20 -15.5t-35 -5.5h-255q4 -32 15.5 -52.5t28 -32.5t36.5 -17t42 -5q25 0 49.5 5t42.5 12
q10 4 22 7.5t22 3.5q25 0 39 -16t14 -36q0 -25 -18 -43q-12 -12 -33 -21t-45 -15.5t-49 -9.5t-44 -3q-53 0 -101 12.5t-84 43.5t-57.5 83t-21.5 130z" />
    <glyph glyph-name="f" unicode="f" horiz-adv-x="429" 
d="M99 396h-28q-32 0 -45.5 17t-13.5 40q0 22 13.5 39.5t45.5 17.5h28v43q0 48 11.5 81.5t34 54.5t54.5 30t73 9q39 0 73.5 -9.5t51.5 -26.5q16 -16 16 -40q0 -25 -15 -39t-37 -14q-12 0 -23 2.5t-19 4.5q-11 3 -20 4.5t-20 1.5q-17 0 -28.5 -10t-11.5 -42v-50h110
q32 0 45.5 -17t13.5 -40q0 -22 -13.5 -39.5t-45.5 -17.5h-110v-337q0 -18 -6.5 -31.5t-16.5 -21.5t-22.5 -12t-25.5 -4q-26 0 -47.5 16t-21.5 53v337z" />
    <glyph glyph-name="g" unicode="g" horiz-adv-x="621" 
d="M300 114q32 0 62 17t47 48v186q-18 27 -45 39.5t-59 12.5q-21 0 -41 -7.5t-36 -25.5t-25.5 -47.5t-9.5 -72.5t8.5 -71.5t23 -46t34 -25t41.5 -7.5zM70 -112q0 25 15.5 41t38.5 16q13 0 25 -4t25 -11q21 -11 47 -21t67 -10q29 0 53.5 8t38.5 22q17 16 23 44t6 63v13h-2
q-23 -20 -54 -33.5t-73 -13.5q-44 0 -86 13t-74.5 43.5t-52.5 80.5t-20 125t22.5 125.5t58 81t78 44t82.5 13.5q38 0 75 -12.5t65 -38.5l1 3q13 40 57 40q24 0 43.5 -15.5t19.5 -53.5v-406q0 -137 -71.5 -200t-197.5 -63q-27 0 -54.5 4t-53 11.5t-47 18t-34.5 24.5
q-21 21 -21 48z" />
    <glyph glyph-name="h" unicode="h" horiz-adv-x="611" 
d="M72 651q0 37 21.5 53t47.5 16t48.5 -16t22.5 -53v-178q17 20 52.5 37t87.5 17q30 0 63.5 -6.5t62 -26.5t47 -57.5t18.5 -100.5v-277q0 -38 -22.5 -53.5t-48.5 -15.5t-48 15.5t-22 53.5v278q0 25 -7.5 40t-18.5 23.5t-24 11.5t-24 3q-24 0 -42 -5.5t-32.5 -14.5
t-24.5 -19.5t-17 -19.5v-297q0 -37 -22.5 -53t-48.5 -16t-47.5 16t-21.5 53v592z" />
    <glyph glyph-name="i" unicode="i" horiz-adv-x="319" 
d="M100 396h-38q-32 0 -45.5 17t-13.5 40q0 22 13.5 39.5t45.5 17.5h122q31 0 44 -17t13 -38v-396q0 -18 -6.5 -31.5t-16.5 -21.5t-22.5 -12t-25.5 -4q-26 0 -48 16t-22 53v337zM155 585q-19 0 -36 7t-29.5 19t-20 28.5t-7.5 35.5q0 18 7.5 34.5t20 28.5t29.5 19t36 7t36 -7
t29.5 -19t20 -28.5t7.5 -34.5q0 -19 -7.5 -35.5t-20 -28.5t-29.5 -19t-36 -7z" />
    <glyph glyph-name="j" unicode="j" horiz-adv-x="319" 
d="M70 -74q17 17 23.5 48t6.5 72v350h-36q-32 0 -45.5 17t-13.5 40q0 22 13.5 39.5t45.5 17.5h120q31 0 44 -17.5t13 -38.5v-419q0 -68 -16.5 -112.5t-51.5 -79.5q-58 -58 -128 -58q-29 0 -46 14t-17 40q0 14 4.5 23.5t12.5 17.5q17 17 36.5 24t34.5 22zM155 585
q-19 0 -36 7t-29.5 19t-20 28.5t-7.5 35.5q0 18 7.5 34.5t20 28.5t29.5 19t36 7t36 -7t29.5 -19t20 -28.5t7.5 -34.5q0 -19 -7.5 -35.5t-20 -28.5t-29.5 -19t-36 -7z" />
    <glyph glyph-name="k" unicode="k" horiz-adv-x="555" 
d="M72 650q0 38 21.5 54t47.5 16t48.5 -16t22.5 -54v-320q32 15 57.5 32.5t42.5 34.5q31 31 45 55t27 44q14 20 26.5 28.5t32.5 8.5q26 0 44 -16.5t18 -43.5q0 -20 -9.5 -42.5t-25.5 -46t-38.5 -47t-47.5 -45.5q28 -29 52.5 -61t43 -64t29.5 -62t11 -54q0 -32 -19.5 -48.5
t-46.5 -16.5t-45 18q-10 10 -17 25.5t-15 37.5q-12 31 -35 69.5t-70 75.5q-15 -8 -30.5 -15.5t-29.5 -14.5v-122q0 -38 -22.5 -54t-48.5 -16t-47.5 16t-21.5 54v590z" />
    <glyph glyph-name="l" unicode="l" horiz-adv-x="339" 
d="M72 651q0 37 21.5 53t47.5 16t48.5 -16t22.5 -53v-477q0 -35 11.5 -51.5t29.5 -16.5q5 0 14.5 1.5t17.5 1.5q24 0 40 -13.5t16 -38.5q0 -27 -17 -44q-16 -16 -40 -21t-46 -5q-30 0 -60 8t-53.5 28t-38 54t-14.5 87v487z" />
    <glyph glyph-name="m" unicode="m" horiz-adv-x="865" 
d="M84 308q0 22 -6 42t-13 38t-13 34.5t-6 30.5q0 30 20.5 47t46.5 17q13 0 26 -4.5t25 -16.5q8 -8 15 -20t15 -27q9 13 21.5 27t30.5 25t42 18.5t55 7.5q16 0 35.5 -2.5t39 -9.5t37.5 -21t31 -36q9 12 22 24.5t30.5 22.5t40 16t51.5 6q25 0 54.5 -5.5t54.5 -24t41.5 -55
t16.5 -99.5v-284q0 -19 -6.5 -32t-16.5 -21.5t-22.5 -12t-25.5 -3.5q-26 0 -48 15.5t-22 53.5v280q0 24 -5.5 38t-13.5 21.5t-17.5 9.5t-17.5 2q-38 0 -59.5 -18t-32.5 -37q1 -8 1 -15.5v-9.5v-271q0 -19 -6.5 -32t-16.5 -21.5t-23 -12t-26 -3.5t-25.5 3.5t-22.5 12
t-16 21.5t-6 32v280q0 24 -5 38t-13 21.5t-17.5 9.5t-17.5 2q-38 0 -60 -18t-33 -37q1 -8 1 -15.5v-9.5v-271q0 -37 -22.5 -53t-48.5 -16t-47.5 16t-21.5 53v249z" />
    <glyph glyph-name="n" unicode="n" horiz-adv-x="623" 
d="M84 311q0 22 -6 42t-13 38t-13 34.5t-6 30.5q0 30 20.5 47t46.5 17q13 0 26 -4.5t25 -16.5q8 -8 15 -20t15 -27q10 13 26 26.5t37 24.5t47 18t58 7q33 0 67 -6.5t62 -26.5t46 -57.5t18 -100.5v-278q0 -19 -6.5 -32t-16.5 -21.5t-22.5 -12t-25.5 -3.5q-26 0 -48 15.5
t-22 53.5v278q0 25 -7.5 40t-18.5 23.5t-24 11.5t-24 3q-24 0 -42.5 -5.5t-33 -14.5t-24.5 -19.5t-17 -19.5q1 -8 1 -15.5v-9.5v-272q0 -37 -22.5 -53t-48.5 -16t-47.5 16t-21.5 53v252z" />
    <glyph glyph-name="o" unicode="o" 
d="M300 96q21 0 41 6.5t36 23.5t26 48t10 81q0 49 -10 80.5t-26 48.5t-36 23.5t-41 6.5t-41 -6.5t-35.5 -23.5t-25.5 -48.5t-10 -80.5q0 -50 10 -81t25.5 -48t35.5 -23.5t41 -6.5zM42 255q0 82 24.5 134.5t62.5 83.5t83.5 43t87.5 12t88 -12t83.5 -43t62 -83.5t24.5 -134.5
t-24.5 -135t-62.5 -83.5t-83.5 -42.5t-87.5 -12t-88 12t-83.5 42.5t-62 83.5t-24.5 135z" />
    <glyph glyph-name="p" unicode="p" horiz-adv-x="633" 
d="M223 145q19 -27 46.5 -39.5t60.5 -12.5q21 0 42 8.5t37 27.5t26 50t10 77t-8.5 76.5t-23.5 49t-35 26.5t-43 8q-33 0 -64 -17t-48 -48v-206zM83 311q0 22 -6 42t-12.5 38t-12.5 34t-6 31q0 29 20 46.5t46 17.5q13 0 26 -5t25 -17q16 -17 31 -48q23 31 63 54.5t98 23.5
q45 0 87.5 -13.5t75.5 -45t53 -83.5t20 -130t-22 -130.5t-56.5 -84.5t-77 -45.5t-82.5 -13.5q-76 0 -130 43v-166q0 -37 -22.5 -53t-48.5 -16t-47.5 16t-21.5 53v452z" />
    <glyph glyph-name="q" unicode="q" horiz-adv-x="622" 
d="M298 94q33 0 64 17t48 48v206q-19 27 -46.5 39.5t-60.5 12.5q-21 0 -42 -8.5t-37 -27.5t-26 -50t-10 -77t8.5 -76.5t23.5 -49t35 -26.5t43 -8zM42 254q0 78 23 130.5t59 84.5t79 45.5t83 13.5q38 0 76 -12.5t66 -38.5l1 3q13 40 57 40q24 0 44 -15.5t20 -53.5v-592
q0 -19 -6 -32t-16 -21.5t-22 -12t-25 -3.5q-26 0 -48.5 15.5t-22.5 53.5v170q-23 -20 -56 -33.5t-76 -13.5q-45 0 -87.5 13.5t-75.5 45t-53 83.5t-20 130z" />
    <glyph glyph-name="r" unicode="r" horiz-adv-x="437" 
d="M89 311q0 24 -9 43.5t-20.5 36t-20.5 32.5t-9 33q0 30 17 47t46 17q20 0 36 -8t33 -25q12 -12 22 -27t18 -30q10 18 24 34.5t31.5 29.5t38.5 21t47 8q41 0 65.5 -24t24.5 -61q0 -13 -4 -27t-13 -26t-22.5 -19.5t-31.5 -7.5t-29.5 5t-19.5 13q-7 7 -13.5 13t-19.5 6
q-10 0 -18.5 -7t-15 -17t-11 -22.5t-6.5 -22.5v-267q0 -37 -22.5 -53t-48.5 -16t-47.5 16t-21.5 53v252z" />
    <glyph glyph-name="s" unicode="s" horiz-adv-x="503" 
d="M39 88q0 25 15.5 41t38.5 16q14 0 24.5 -3.5t24.5 -11.5q20 -11 47 -22.5t62 -11.5q34 0 53 11.5t19 32.5q0 20 -20.5 31.5t-51.5 20t-66.5 19t-66.5 29t-51.5 49t-20.5 80.5q0 29 9.5 55.5t28.5 45.5q29 29 70.5 43.5t99.5 14.5q20 0 50.5 -4.5t59 -15t48.5 -28
t20 -44.5q0 -21 -14 -38.5t-38 -17.5q-12 0 -22.5 3.5t-21.5 8.5q-16 8 -39.5 14.5t-51.5 6.5q-30 0 -43 -10t-13 -27q0 -21 20.5 -32.5t51.5 -20t66.5 -18t66.5 -27.5t51.5 -47.5t20.5 -77.5q0 -67 -44 -111q-29 -29 -74 -44.5t-100 -15.5q-23 0 -58.5 5t-69 17t-57.5 32.5
t-24 51.5z" />
    <glyph glyph-name="t" unicode="t" horiz-adv-x="419" 
d="M94 396h-40q-24 0 -35.5 15t-11.5 32q0 20 10 32.5t24 21.5t30 17t27 19t17 28.5t13.5 34t19 28.5t34.5 12t37.5 -12.5t14.5 -39.5v-74h104q32 0 45.5 -17.5t13.5 -39.5q0 -23 -13.5 -40t-45.5 -17h-104v-228q0 -35 17.5 -48.5t46.5 -13.5q5 0 12 0.5t14 2.5t15.5 4
t13.5 2q20 0 37 -13.5t17 -41.5q0 -24 -14.5 -38t-35 -22t-42.5 -10.5t-38 -2.5q-35 0 -67.5 7t-58.5 25.5t-41.5 52t-15.5 86.5v238z" />
    <glyph glyph-name="u" unicode="u" horiz-adv-x="623" 
d="M68 451q0 37 22.5 53t48.5 16t48 -15.5t22 -53.5v-278q0 -25 7.5 -40t18.5 -23.5t24 -11.5t24 -3q24 0 42.5 5.5t33 14.5t24.5 19.5t17 19.5q-1 8 -1 15.5v9.5v272q0 37 22.5 53t48.5 16t47.5 -16t21.5 -53v-252q0 -22 6 -42t13 -38t13 -34.5t6 -30.5q0 -30 -20.5 -47
t-46.5 -17q-13 0 -26 4.5t-25 16.5q-8 8 -15 20t-15 27q-10 -13 -25.5 -26.5t-36.5 -24.5t-47.5 -18t-57.5 -7q-33 0 -67 6.5t-62.5 26.5t-46.5 57.5t-18 100.5v278z" />
    <glyph glyph-name="v" unicode="v" horiz-adv-x="546" 
d="M211 13q-22 21 -43.5 54.5t-41.5 72.5t-37.5 82.5t-30 85.5t-20 79.5t-7.5 66.5q0 27 16 46.5t51 19.5q25 0 43.5 -15.5t22.5 -40.5q4 -29 11.5 -63t20 -73.5t32 -86t49.5 -101.5h2q29 55 47.5 101.5t29.5 86t17 73.5t11 63q4 25 23 40.5t42 15.5q32 0 49 -19.5t17 -46.5
q0 -43 -15.5 -105t-41 -126t-57.5 -120.5t-65 -89.5q-12 -12 -28.5 -18.5t-34 -6.5t-34 6.5t-28.5 18.5z" />
    <glyph glyph-name="w" unicode="w" horiz-adv-x="740" 
d="M167 10q-22 21 -39.5 54.5t-31.5 73t-24 82t-16.5 83.5t-10 77t-3.5 62q0 32 17.5 54.5t51.5 22.5q32 0 49 -20q14 -15 16 -34.5t4 -37.5q4 -59 12.5 -116.5t27.5 -114.5l19 -58h2q6 12 12 28t11 29q10 29 16.5 58t12 55t12 46t17.5 31t22.5 16t28.5 5q31 0 52 -21
q11 -11 17.5 -31.5t12.5 -46t12 -55t17 -58.5q5 -13 10.5 -29t11.5 -27h2l19 57q19 57 27.5 114.5t12.5 117.5q2 18 3.5 38t15.5 35q16 19 43 19q34 0 51.5 -22.5t17.5 -54.5q0 -26 -3.5 -62t-10 -77t-16.5 -83.5t-24 -82t-31.5 -72.5t-39.5 -55q-12 -12 -27 -17.5t-29 -5.5
q-17 0 -32 5.5t-27 17.5q-15 15 -28.5 36.5t-24.5 45t-20 48t-15 46.5h-2q-6 -22 -14 -46.5t-19 -48t-24.5 -45t-28.5 -36.5q-23 -23 -58 -23q-14 0 -29.5 5.5t-27.5 17.5z" />
    <glyph glyph-name="x" unicode="x" horiz-adv-x="552" 
d="M47 63q0 21 10.5 46.5t27 52t37 51.5t41.5 45q-21 19 -41 43.5t-36.5 50t-26.5 50t-10 45.5q0 39 20.5 56t46.5 17q29 0 45.5 -16t25.5 -40q13 -37 31 -69t60 -60q21 14 35.5 29t24.5 31t17 33.5t14 35.5q9 24 24 40t44 16q26 0 46 -16.5t20 -51.5q0 -23 -10 -48.5
t-26.5 -51.5t-36.5 -50.5t-41 -43.5q21 -20 41.5 -45.5t37 -52.5t27 -53t10.5 -47q0 -39 -21.5 -54.5t-47.5 -15.5q-29 0 -46 15.5t-26 39.5l-14 36t-17 35t-24 32.5t-35 29.5q-42 -28 -60 -61.5t-31 -70.5q-9 -24 -25 -40t-45 -16q-26 0 -46 17t-20 56z" />
    <glyph glyph-name="y" unicode="y" horiz-adv-x="546" 
d="M37 -101q4 4 11.5 10t16.5 12t18 12.5t16 11.5q12 9 23 17.5t22 18.5t22 23t25 31q-30 37 -59 92.5t-51.5 114.5t-36 115.5t-13.5 96.5q0 27 16 46.5t51 19.5q25 0 43.5 -15.5t22.5 -40.5q5 -35 13 -71t21 -75t32.5 -81.5t46.5 -88.5h2q27 46 45 88.5t29.5 81.5t18.5 75
t12 71q4 25 23 40.5t42 15.5q32 0 49 -19.5t17 -46.5q0 -32 -8.5 -74t-23.5 -88.5t-35 -93.5t-43 -88q-39 -69 -83.5 -123.5t-97.5 -107.5q-14 -14 -31.5 -29.5t-37 -28.5t-39 -21.5t-38.5 -8.5q-25 0 -42.5 16.5t-17.5 47.5q0 11 5 23t14 21z" />
    <glyph glyph-name="z" unicode="z" horiz-adv-x="518" 
d="M36 57q0 11 4.5 22.5t10.5 19.5l222 297h-165q-32 0 -45.5 17t-13.5 40q0 22 13.5 39.5t45.5 17.5h301q32 0 45.5 -17.5t13.5 -39.5t-14 -39l-223 -300h185q32 0 45.5 -17t13.5 -40q0 -22 -13.5 -39.5t-45.5 -17.5h-321q-32 0 -45.5 17.5t-13.5 39.5z" />
    <glyph glyph-name="braceleft" unicode="{" horiz-adv-x="408" 
d="M93 65q0 25 5 43t11 33t11 29.5t5 32.5q0 16 -6 28t-13.5 22t-13.5 19t-6 20q0 10 6 19.5t13.5 19.5t13.5 22t6 28q0 18 -5 32t-11 29t-11 33t-5 44q0 51 17 85.5t44 55.5t60.5 29.5t66.5 8.5q37 0 52.5 -16.5t16.5 -35.5q0 -11 -3 -20.5t-12 -18.5q-10 -10 -20.5 -12.5
t-20.5 -3t-20 -2.5t-19 -11q-19 -19 -19 -50q0 -17 4.5 -35.5t9.5 -36.5t9.5 -35.5t4.5 -32.5q0 -21 -10 -48.5t-30 -47.5q20 -20 30 -47.5t10 -48.5q0 -14 -4 -31t-9.5 -35.5t-9.5 -37.5t-4 -36q0 -14 4 -27t14 -23t19.5 -11.5t19.5 -2t20 -3t21 -12.5q9 -9 12 -18.5
t3 -20.5q-1 -19 -16.5 -35.5t-52.5 -16.5q-33 0 -66.5 8.5t-60.5 29.5t-44 55.5t-17 85.5z" />
    <glyph glyph-name="bar" unicode="|" horiz-adv-x="485" 
d="M180 705q0 33 19 47.5t42 14.5t43.5 -14.5t20.5 -47.5v-730q0 -35 -20.5 -49t-43.5 -14t-42 14t-19 49v730z" />
    <glyph glyph-name="braceright" unicode="}" horiz-adv-x="408" 
d="M315 65q0 -51 -17 -85.5t-44 -55.5t-60.5 -29.5t-66.5 -8.5q-37 0 -52.5 16.5t-16.5 35.5q0 11 3 20.5t12 18.5q10 10 20.5 12.5t20.5 3t19.5 2t19.5 11.5t14 23t4 27q0 17 -4 36t-9.5 37.5t-9.5 35.5t-4 31q0 21 10 48.5t30 47.5q-20 20 -30 47.5t-10 48.5
q0 15 4.5 32.5t9.5 35.5t9.5 36.5t4.5 35.5q0 31 -19 50q-9 9 -19 11t-20 2.5t-20.5 3t-20.5 12.5q-9 9 -12 18.5t-3 20.5q1 19 16.5 35.5t52.5 16.5q33 0 66.5 -8.5t60.5 -29.5t44 -55.5t17 -85.5q0 -26 -5 -44t-11 -33t-11 -29t-5 -32q0 -16 6 -28t13.5 -22t13.5 -19.5
t6 -19.5q0 -11 -6 -20t-13.5 -19t-13.5 -22t-6 -28q0 -18 5 -32.5t11 -29.5t11 -33t5 -43z" />
    <glyph glyph-name="asciitilde" unicode="~" horiz-adv-x="704" 
d="M144 280q-26 0 -42 18t-16 43q0 26 17 43q10 10 29 19.5t41.5 17t46 11.5t43.5 4q30 0 52.5 -5.5t43 -12t40.5 -12t46 -5.5q19 0 37 6t38 14q19 8 40 8q26 0 42 -18t16 -43q0 -26 -17 -43q-11 -11 -30 -20.5t-41 -16.5t-45 -11t-42 -4q-30 0 -52 5.5t-41.5 12t-39.5 12
t-45 5.5q-19 0 -38.5 -5.5t-39.5 -13.5q-10 -4 -21 -6.5t-22 -2.5z" />
    <glyph glyph-name="exclamdown" unicode="&#xa1;" horiz-adv-x="422" 
d="M214 291q22 0 41.5 -12.5t21.5 -47.5l17 -326q2 -47 -23.5 -70t-58.5 -23q-17 0 -32.5 6t-27.5 17.5t-18.5 29t-4.5 40.5l22 326q2 35 21.5 47.5t41.5 12.5zM118 438q0 19 7.5 35.5t20 28.5t29.5 19t36 7t36 -7t29.5 -19t20 -28.5t7.5 -35.5q0 -18 -7.5 -34.5t-20 -28.5
t-29.5 -19t-36 -7t-36 7t-29.5 19t-20 28.5t-7.5 34.5z" />
    <glyph glyph-name="cent" unicode="&#xa2;" horiz-adv-x="660" 
d="M224 101q-50 32 -81.5 91t-31.5 153q0 76 21.5 130.5t55 89.5t74 53t79.5 22l25 76q8 26 25.5 37t34.5 11q14 0 25.5 -6.5t19 -17.5t10 -24.5t-1.5 -28.5l-20 -61q17 -7 33 -16.5t29 -22.5t20.5 -29.5t7.5 -37.5q0 -30 -16.5 -47.5t-43.5 -17.5q-17 0 -27 4t-17 10
t-13.5 14.5t-15.5 17.5q-11 11 -22.5 17.5t-28.5 6.5q-18 0 -37 -10t-34 -31.5t-25 -56t-10 -82.5q0 -47 12.5 -79.5t33 -52t45 -28t48.5 -8.5q26 0 43 4.5t37 12.5q9 4 20.5 7.5t22.5 3.5q24 0 39.5 -15.5t15.5 -41.5q0 -23 -19 -42q-14 -14 -34 -23.5t-42.5 -15.5
t-44 -8.5t-37.5 -2.5q-17 0 -33 1.5t-32 3.5l-30 -94q-8 -26 -25.5 -37t-34.5 -11q-14 0 -25.5 6.5t-19 17.5t-10.5 24.5t2 28.5z" />
    <glyph glyph-name="sterling" unicode="&#xa3;" horiz-adv-x="660" 
d="M78 82q0 23 16 39q12 12 30 19t39 11l20 144h-21q-29 0 -42.5 18t-13.5 41q0 22 13.5 40.5t42.5 18.5h38l8 55q15 103 71 145.5t144 42.5q26 0 51 -3.5t45 -12t32.5 -22t12.5 -32.5q0 -26 -16 -44t-44 -18q-10 0 -19 1.5t-17 3.5q-14 3 -27.5 5t-29.5 2q-21 0 -37 -11.5
t-21 -49.5l-9 -62h132q28 0 42 -18.5t14 -40.5q0 -23 -14 -41t-42 -18h-149l-20 -139q38 -2 71.5 -5.5t68.5 -3.5q23 0 37.5 4.5t28.5 9.5q8 3 16 5t18 2q24 0 41 -15.5t17 -41.5q0 -15 -5.5 -26t-14.5 -20q-11 -11 -27.5 -18t-34.5 -10.5t-34.5 -5t-27.5 -1.5
q-20 0 -43.5 2.5t-48 6t-47.5 6t-41 2.5q-23 0 -44.5 -4t-50.5 -9q-11 -2 -22 -3.5t-22 -1.5q-31 0 -47.5 15.5t-16.5 37.5z" />
    <glyph glyph-name="currency" unicode="&#xa4;" horiz-adv-x="783" 
d="M243 341q0 -54 15 -88.5t37.5 -54t48.5 -26.5t49 -7q22 0 48.5 7t49 26.5t37.5 54t15 88.5t-15 88.5t-37.5 53.5t-49 26t-48.5 7q-23 0 -49 -7t-48.5 -26t-37.5 -53.5t-15 -88.5zM141 170q-21 32 -33 74t-12 97q0 54 11.5 94.5t31.5 72.5l-55 56q-20 19 -17 41t18 36.5
t37 17t41 -16.5l55 -57q42 26 88 36t87 10q40 0 85 -10t87 -35l55 56q19 19 41 16.5t36.5 -17.5t17.5 -36.5t-16 -40.5l-54 -54q21 -32 33 -73.5t12 -95.5q0 -56 -12.5 -98.5t-34.5 -74.5l56 -56q19 -20 16.5 -41.5t-17.5 -36t-37 -17t-41 16.5l-58 58q-41 -23 -85.5 -32.5
t-83.5 -9.5q-40 0 -85 9.5t-86 34.5l-59 -60q-19 -20 -41 -17t-36.5 18t-17.5 36.5t16 40.5z" />
    <glyph glyph-name="yen" unicode="&#xa5;" horiz-adv-x="660" 
d="M124 180q-17 0 -24 9.5t-7 20.5q0 12 7 22t24 10h139v39l-2 2h-137q-17 0 -24 9.5t-7 20.5q0 12 7 22t24 10h78q-22 27 -42 57.5t-35 61t-23.5 60t-8.5 54.5q0 32 16.5 50.5t44.5 18.5q27 0 44.5 -12t25.5 -41q7 -24 15.5 -48.5t20.5 -49t29.5 -50.5t42.5 -53
q25 27 42.5 52.5t29.5 50t20.5 48.5t15.5 48q8 29 23.5 42t42.5 13q29 0 45 -18t16 -50q0 -25 -8.5 -54.5t-23.5 -60.5t-35 -61.5t-42 -57.5h78q17 0 24 -10t7 -22q0 -11 -7 -20.5t-24 -9.5h-137l-2 -2v-39h139q17 0 24 -10t7 -22q0 -11 -7 -20.5t-24 -9.5h-139v-85
q0 -34 -21 -49t-47 -15q-25 0 -45.5 15t-20.5 49v85h-139z" />
    <glyph glyph-name="brokenbar" unicode="&#xa6;" horiz-adv-x="485" 
d="M180 230q0 33 19 47.5t42 14.5t43.5 -14.5t20.5 -47.5v-255q0 -35 -20.5 -49t-43.5 -14t-42 14t-19 49v255zM241 415q-23 0 -42 14t-19 49v227q0 33 19 47.5t42 14.5t43.5 -14.5t20.5 -47.5v-227q0 -35 -20.5 -49t-43.5 -14z" />
    <glyph glyph-name="section" unicode="&#xa7;" horiz-adv-x="547" 
d="M205 283q0 -13 6.5 -22.5t17.5 -17t26.5 -13t32.5 -11.5q29 3 45 16.5t16 39.5q0 20 -17.5 34.5t-53.5 27.5q-28 0 -50.5 -11t-22.5 -43zM55 -42q0 25 15.5 40.5t38.5 15.5q15 0 29.5 -6t28.5 -14q19 -10 43 -18t58 -8q35 0 55.5 10.5t20.5 31.5q0 24 -21 38.5t-52 25.5
t-68 23.5t-68 34t-52 55.5t-21 89q0 42 22 73t50 48q-29 22 -48 55t-19 87q0 43 19 73.5t49 49.5t67.5 27.5t73.5 8.5q18 0 40.5 -2.5t45 -8.5t43 -15.5t34.5 -23.5q19 -19 19 -43q0 -23 -15.5 -38t-36.5 -15q-11 0 -22 3t-23 8q-19 8 -41.5 14t-52.5 6q-57 0 -57 -37
q0 -24 21 -37t52 -23.5t68 -22.5t68 -33t52 -54.5t21 -87.5q0 -47 -17.5 -79t-46.5 -53q26 -21 42.5 -53t16.5 -80q0 -46 -20.5 -78.5t-52.5 -53t-71.5 -30t-77.5 -9.5q-24 0 -50.5 3.5t-52 10t-47 17t-36.5 25.5q-11 11 -17.5 23t-6.5 27z" />
    <glyph glyph-name="dieresis" unicode="&#xa8;" 
d="M195 598q-32 0 -55.5 22.5t-23.5 54.5q0 16 6.5 29.5t17 24t25 16.5t30.5 6t30.5 -6t25 -16.5t17 -24t6.5 -29.5q0 -32 -23.5 -54.5t-55.5 -22.5zM405 598q-32 0 -55.5 22.5t-23.5 54.5q0 16 6.5 29.5t17 24t25 16.5t30.5 6t30.5 -6t25 -16.5t17 -24t6.5 -29.5
q0 -32 -23.5 -54.5t-55.5 -22.5z" />
    <glyph glyph-name="copyright" unicode="&#xa9;" horiz-adv-x="826" 
d="M225 337q0 61 18 103t46.5 67.5t63.5 37t70 11.5q22 0 44 -5.5t40 -16t29 -27t11 -38.5q0 -19 -13 -28.5t-25 -9.5q-21 0 -30 8.5t-22 21.5q-9 9 -18.5 15t-22.5 6q-17 0 -34.5 -7.5t-31.5 -24.5t-22.5 -45t-8.5 -68q0 -39 10 -65t26 -41t35.5 -21t39.5 -6t34.5 5
t27.5 10q11 5 20 8.5t17 3.5q17 0 26 -10.5t9 -22.5q0 -19 -16 -35q-9 -9 -23.5 -16t-30.5 -11.5t-32.5 -7t-29.5 -2.5q-39 0 -76 10t-66 34.5t-47 65t-18 101.5zM139 340q0 -59 21.5 -109.5t58.5 -87.5t87 -58t107 -21t107 21t87 58t58.5 87.5t21.5 109.5q0 60 -21.5 110.5
t-58.5 87.5t-87 57.5t-107 20.5t-107 -21t-87 -58t-58.5 -87.5t-21.5 -109.5zM53 340q0 76 28.5 141.5t77.5 113.5t114.5 75.5t139.5 27.5t139.5 -27.5t114.5 -75.5t77.5 -113.5t28.5 -141.5q0 -77 -28.5 -142.5t-77.5 -113.5t-114.5 -75t-139.5 -27t-139.5 27t-114.5 75
t-77.5 113.5t-28.5 142.5z" />
    <glyph glyph-name="ordfeminine" unicode="&#xaa;" horiz-adv-x="437" 
d="M205 379q20 0 36 6.5t26 12.5q-1 12 -1 23.5v25.5v21h-8q-17 0 -35 -2t-32.5 -7.5t-23.5 -14.5t-9 -23q0 -23 15 -32.5t32 -9.5zM196 286q-25 0 -52.5 6t-51 21t-38.5 40t-15 62q0 45 21 71.5t52.5 40t66.5 17.5t64 4h15v27q0 1 -1 5t-5 7.5t-12 6.5t-22 3
q-21 0 -35.5 -3.5t-25.5 -8.5q-11 -4 -20.5 -7.5t-23.5 -3.5q-22 0 -36 13.5t-14 35.5t16 38q13 13 31.5 21t38 12t38 5.5t31.5 1.5q57 0 90 -16t49 -37.5t20 -43t4 -31.5v-131q0 -17 1.5 -27t6.5 -15t13.5 -9.5t16 -10.5t13 -15.5t5.5 -24.5q0 -18 -13.5 -34t-43.5 -16
q-23 0 -45 9t-36 22q-16 -13 -43 -24t-60 -11z" />
    <glyph glyph-name="guillemotleft" unicode="&#xab;" horiz-adv-x="691" 
d="M94 238q-18 20 -18 43t18 43l146 160q12 14 27.5 20t26.5 6q23 0 41.5 -17t18.5 -42q0 -11 -4.5 -22t-15.5 -24l-116 -124l117 -126q11 -12 15.5 -23t4.5 -22q0 -25 -18.5 -42t-41.5 -17q-11 0 -26.5 6t-27.5 20zM328 238q-18 20 -18 43t18 43l146 160q12 14 27.5 20
t26.5 6q23 0 41.5 -17t18.5 -42q0 -11 -4.5 -22t-15.5 -24l-116 -124l117 -126q11 -12 15.5 -23t4.5 -22q0 -25 -18.5 -42t-41.5 -17q-11 0 -26.5 6t-27.5 20z" />
    <glyph glyph-name="logicalnot" unicode="&#xac;" horiz-adv-x="490" 
d="M83 426q-32 0 -45.5 17t-13.5 40q0 22 13.5 39.5t45.5 17.5h308q27 0 43.5 -15.5t16.5 -44.5v-143q0 -32 -17 -45.5t-40 -13.5q-22 0 -39.5 13.5t-17.5 45.5v89h-254z" />
    <glyph glyph-name="registered" unicode="&#xae;" horiz-adv-x="826" 
d="M421 349q37 0 49.5 20t12.5 42q0 10 -2.5 20.5t-9.5 19.5t-19 14.5t-31 5.5h-61v-122h61zM275 503q0 23 13 32t29 9h112q39 0 66.5 -11t45 -29.5t25.5 -43t8 -50.5q0 -38 -18 -70.5t-57 -49.5l53 -100q5 -10 5 -18q0 -17 -14 -29t-31 -12q-10 0 -19 5t-15 17l-65 124h-53
v-105q0 -22 -13.5 -31.5t-29.5 -9.5t-29 9.5t-13 31.5v331zM139 340q0 -59 21.5 -109.5t58.5 -87.5t87 -58t107 -21t107 21t87 58t58.5 87.5t21.5 109.5q0 60 -21.5 110.5t-58.5 87.5t-87 57.5t-107 20.5t-107 -21t-87 -58t-58.5 -87.5t-21.5 -109.5zM53 340
q0 76 28.5 141.5t77.5 113.5t114.5 75.5t139.5 27.5t139.5 -27.5t114.5 -75.5t77.5 -113.5t28.5 -141.5q0 -77 -28.5 -142.5t-77.5 -113.5t-114.5 -75t-139.5 -27t-139.5 27t-114.5 75t-77.5 113.5t-28.5 142.5z" />
    <glyph glyph-name="macron" unicode="&#xaf;" 
d="M168 606q-22 0 -37 15.5t-15 37.5t15 37t37 15h262q22 0 37.5 -15t15.5 -37t-15.5 -37.5t-37.5 -15.5h-262z" />
    <glyph glyph-name="degree" unicode="&#xb0;" horiz-adv-x="429" 
d="M214 438q18 0 33.5 6.5t27 17.5t18 25t6.5 30t-6.5 31.5t-18 26.5t-27 18t-33.5 7q-17 0 -32 -6.5t-26.5 -18t-18.5 -26.5t-7 -31t7 -30.5t18.5 -25.5t26.5 -17.5t32 -6.5zM214 336q-38 0 -72.5 14.5t-60.5 39t-41 57.5t-15 71q0 39 15 72.5t41 58.5t60.5 39t72.5 14
q40 0 75 -14t60.5 -39t40 -58.5t14.5 -72.5q0 -38 -14.5 -71t-40 -57.5t-60.5 -39t-75 -14.5z" />
    <glyph glyph-name="plusminus" unicode="&#xb1;" horiz-adv-x="721" 
d="M116 62q0 23 14.5 42.5t44.5 19.5h371q29 0 44 -19.5t15 -42.5t-15 -42.5t-44 -19.5h-371q-30 0 -44.5 19.5t-14.5 42.5zM175 292q-30 0 -44.5 19.5t-14.5 42.5t14.5 42.5t44.5 19.5h122v80q0 30 20 45.5t44 15.5t44 -15.5t20 -45.5v-80h121q29 0 44 -19.5t15 -42.5
t-15 -42.5t-44 -19.5h-121v-80q0 -31 -20 -46t-44 -15t-44 15t-20 46v80h-122z" />
    <glyph glyph-name="uni00B2" unicode="&#xb2;" horiz-adv-x="393" 
d="M81 291q-23 0 -35.5 11.5t-12.5 28.5t16 33q28 26 61.5 46.5t64.5 51.5q22 22 38.5 46t16.5 51q0 26 -16 39t-38 13q-16 0 -29 -5.5t-27 -13.5q-7 -4 -15.5 -6.5t-16.5 -2.5q-18 0 -30.5 10.5t-12.5 30.5q0 21 16 37q9 9 23 16t30.5 11.5t34 7t33.5 2.5q31 0 58.5 -9.5
t47.5 -27.5t31.5 -44t11.5 -60q0 -26 -11 -51t-28.5 -48t-39 -42.5t-42.5 -34.5v-1h7q8 0 19 -1t16 -1q19 0 30 5t25 5q18 0 31 -11t13 -31t-14 -34t-36.5 -18.5t-35.5 -4.5q-28 0 -55.5 5.5t-56.5 5.5q-19 0 -35.5 -4.5t-36.5 -4.5z" />
    <glyph glyph-name="uni00B3" unicode="&#xb3;" horiz-adv-x="357" 
d="M33 316q-14 14 -14 32q0 17 11 30t34 13q10 0 17.5 -2.5t15.5 -4.5q10 -3 21.5 -5t25.5 -2t28 2.5t25 8.5t18 16t7 24t-12 24t-32 10q-3 0 -10.5 -0.5t-12.5 -0.5q-17 0 -30 3t-21 11q-12 12 -12 31q0 16 11 27q7 7 19.5 10.5t25.5 5.5t24.5 4.5t18.5 9.5t7 18t-8 21
t-28 10q-16 0 -30 -6t-27 -14q-15 -9 -32 -9q-18 0 -30.5 10.5t-12.5 30.5q0 21 16 37q19 19 53.5 28t66.5 9q28 0 53.5 -7.5t44.5 -21t30 -33t11 -44.5q0 -45 -33 -73v-1q21 -9 38.5 -33.5t17.5 -55.5q0 -38 -15.5 -65t-41 -44t-59 -25t-68.5 -8q-15 0 -31 1.5t-31 5t-28 9
t-21 13.5z" />
    <glyph glyph-name="acute" unicode="&#xb4;" 
d="M218 583q-20 0 -35 14.5t-15 36.5q0 15 8.5 28.5t22.5 21.5l137 73q16 9 35 9q26 0 43 -16t17 -45q0 -18 -10 -36t-32 -26l-149 -56q-11 -4 -22 -4z" />
    <glyph glyph-name="mu" unicode="&#xb5;" horiz-adv-x="622" 
d="M69 489q0 37 22.5 53t48.5 16t48 -15.5t22 -53.5v-316q0 -25 7.5 -40t18.5 -23.5t24 -11.5t24 -3q24 0 42.5 5.5t33 14.5t24.5 19.5t17 19.5q-1 8 -1 15.5v9.5v310q0 37 22.5 53t48.5 16t47.5 -16t21.5 -53v-290q0 -22 6 -42t13 -38t13 -34.5t6 -30.5q0 -30 -20.5 -47
t-46.5 -17q-13 0 -26 4.5t-25 16.5q-8 8 -15 20t-15 27q-10 -13 -25.5 -26.5t-36.5 -24.5t-47.5 -18t-57.5 -7q-13 0 -26.5 1t-26.5 3v-88q0 -38 -22.5 -54t-48.5 -16t-48 16t-22 54v591z" />
    <glyph glyph-name="mu" unicode="&#x3bc;" horiz-adv-x="622" 
d="M69 489q0 37 22.5 53t48.5 16t48 -15.5t22 -53.5v-316q0 -25 7.5 -40t18.5 -23.5t24 -11.5t24 -3q24 0 42.5 5.5t33 14.5t24.5 19.5t17 19.5q-1 8 -1 15.5v9.5v310q0 37 22.5 53t48.5 16t47.5 -16t21.5 -53v-290q0 -22 6 -42t13 -38t13 -34.5t6 -30.5q0 -30 -20.5 -47
t-46.5 -17q-13 0 -26 4.5t-25 16.5q-8 8 -15 20t-15 27q-10 -13 -25.5 -26.5t-36.5 -24.5t-47.5 -18t-57.5 -7q-13 0 -26.5 1t-26.5 3v-88q0 -38 -22.5 -54t-48.5 -16t-48 16t-22 54v591z" />
    <glyph glyph-name="paragraph" unicode="&#xb6;" horiz-adv-x="628" 
d="M231 129q-41 0 -74 17.5t-56 46t-35 66t-12 76.5q0 66 21.5 109t56.5 68t79 35t89 10h274q24 0 41 -17t17 -41t-17 -41t-41 -17h-69v-513q0 -28 -21 -48t-49 -20q-29 0 -48.5 20t-19.5 49v512h-67v-253q0 -28 -20 -43.5t-49 -15.5z" />
    <glyph glyph-name="periodcentered" unicode="&#xb7;" horiz-adv-x="349" 
d="M77 261q0 19 7.5 36t21 29.5t31.5 20t38 7.5t37.5 -7.5t31 -20t21 -29.5t7.5 -36q0 -40 -28.5 -67.5t-68.5 -27.5q-20 0 -38 7.5t-31.5 20t-21 30t-7.5 37.5z" />
    <glyph glyph-name="cedilla" unicode="&#xb8;" 
d="M183 -129q0 20 12.5 31t30.5 11q17 0 31 -6q8 -3 18.5 -6t16.5 -3q19 0 19 9q0 3 -3.5 6.5t-7.5 8.5q-6 6 -11.5 14.5t-5.5 22.5q0 15 6.5 27.5t16.5 23.5h85q-12 -15 -16 -24t-4 -14q0 -11 10 -19q11 -10 23.5 -22t12.5 -38q0 -31 -31 -55.5t-89 -24.5q-8 0 -21.5 1
t-28 4.5t-28.5 9t-23 14.5q-13 13 -13 29z" />
    <glyph glyph-name="uni00B9" unicode="&#xb9;" horiz-adv-x="270" 
d="M155 292q-20 0 -36 11.5t-16 38.5v207l-17 -7q-9 -3 -18 -5t-17 -2q-26 0 -35.5 14t-9.5 28q0 10 4 17t10 13q7 7 16.5 11.5t21 10.5t25 15t27.5 23q9 9 20.5 17.5t28.5 8.5q20 0 35 -12.5t15 -38.5v-300q0 -27 -17.5 -38.5t-36.5 -11.5z" />
    <glyph glyph-name="ordmasculine" unicode="&#xba;" horiz-adv-x="484" 
d="M242 392q13 0 25 4.5t21 15.5t14.5 31t5.5 51t-5.5 50.5t-14.5 30.5t-21 15.5t-25 4.5t-25 -4.5t-21 -15.5t-14.5 -30.5t-5.5 -50.5t5.5 -51t14.5 -31t21 -15.5t25 -4.5zM242 286q-32 0 -67.5 9.5t-64.5 33t-48 63.5t-19 102t19 102t48.5 63.5t64.5 32.5t67 9t67 -9
t64.5 -32.5t48.5 -63.5t19 -102t-19 -102t-48.5 -63.5t-64.5 -33t-67 -9.5z" />
    <glyph glyph-name="guillemotright" unicode="&#xbb;" horiz-adv-x="691" 
d="M216 77q-12 -14 -27.5 -20t-26.5 -6q-23 0 -41.5 17t-18.5 42q0 11 4.5 22t15.5 23l117 126l-116 124q-11 13 -15.5 24t-4.5 22q0 25 18.5 42t41.5 17q11 0 26.5 -6t27.5 -20l146 -160q18 -20 18 -43t-18 -43zM450 77q-12 -14 -27.5 -20t-26.5 -6q-23 0 -41.5 17
t-18.5 42q0 11 4.5 22t15.5 23l117 126l-116 124q-11 13 -15.5 24t-4.5 22q0 25 18.5 42t41.5 17q11 0 26.5 -6t27.5 -20l146 -160q18 -20 18 -43t-18 -43z" />
    <glyph glyph-name="uni00BC" unicode="&#xbc;" horiz-adv-x="737" 
d="M595 166v92q-17 -24 -40.5 -49.5t-46.5 -44.5zM632 -13q-21 0 -37 12.5t-16 39.5v40h-137q-26 0 -39.5 15t-13.5 37q0 14 5 24.5t15 20.5q23 23 46 43.5t45 43.5q28 30 50 59t39 46q8 8 20 14t25 6q22 0 37.5 -12t15.5 -38v-169h15q24 0 35.5 -14t11.5 -31t-11.5 -31
t-35.5 -14h-15v-40q0 -27 -18 -39.5t-37 -12.5zM155 292q-20 0 -36 11.5t-16 38.5v207l-17 -7q-9 -3 -18 -5t-17 -2q-26 0 -35.5 14t-9.5 28q0 10 4 17t10 13q7 7 16.5 11.5t21 10.5t25 15t27.5 23q9 9 20.5 17.5t28.5 8.5q20 0 35 -12.5t15 -38.5v-300q0 -27 -17.5 -38.5
t-36.5 -11.5zM158 5q-11 -13 -21.5 -18t-19.5 -5q-20 0 -35 13.5t-15 36.5q0 18 16 37l497 606q11 13 21.5 18t19.5 5q20 0 35 -13.5t15 -36.5q0 -18 -16 -37z" />
    <glyph glyph-name="uni00BD" unicode="&#xbd;" horiz-adv-x="842" 
d="M526 -14q-23 0 -35.5 11.5t-12.5 28.5t16 33q28 26 61.5 46.5t64.5 51.5q22 22 38.5 46t16.5 51q0 26 -16 39t-38 13q-16 0 -29 -5.5t-27 -13.5q-15 -9 -32 -9q-18 0 -30.5 10.5t-12.5 30.5q0 21 16 37q9 9 23 16t30.5 11.5t34 7t33.5 2.5q31 0 58.5 -9.5t47.5 -27.5
t31.5 -44t11.5 -60q0 -26 -11 -51t-28.5 -48t-39 -42.5t-42.5 -34.5v-1h7q8 0 19 -1t16 -1q19 0 30 5t25 5q18 0 31 -11t13 -31t-14 -34t-36.5 -18.5t-35.5 -4.5q-28 0 -55.5 5.5t-56.5 5.5q-19 0 -35.5 -4.5t-36.5 -4.5zM155 292q-20 0 -36 11.5t-16 38.5v207l-17 -7
q-9 -3 -18 -5t-17 -2q-26 0 -35.5 14t-9.5 28q0 10 4 17t10 13q7 7 16.5 11.5t21 10.5t25 15t27.5 23q9 9 20.5 17.5t28.5 8.5q20 0 35 -12.5t15 -38.5v-300q0 -27 -17.5 -38.5t-36.5 -11.5zM158 5q-11 -13 -21.5 -18t-19.5 -5q-20 0 -35 13.5t-15 36.5q0 18 16 37l497 606
q11 13 21.5 18t19.5 5q20 0 35 -13.5t15 -36.5q0 -18 -16 -37z" />
    <glyph glyph-name="uni00BE" unicode="&#xbe;" horiz-adv-x="819" 
d="M674 166v92q-17 -24 -40.5 -49.5t-46.5 -44.5zM711 -13q-21 0 -37 12.5t-16 39.5v40h-137q-26 0 -39.5 15t-13.5 37q0 14 5 24.5t15 20.5q23 23 46 43.5t45 43.5q28 30 50 59t39 46q8 8 20 14t25 6q22 0 37.5 -12t15.5 -38v-169h15q24 0 35.5 -14t11.5 -31t-11.5 -31
t-35.5 -14h-15v-40q0 -27 -18 -39.5t-37 -12.5zM33 316q-14 14 -14 32q0 17 11 30t34 13q9 0 17 -2.5t16 -4.5q10 -3 21 -5t26 -2q14 0 28 2.5t25 8.5t18 16t7 24t-12 24t-32 10q-3 0 -10.5 -0.5t-12.5 -0.5q-17 0 -30 3t-21 11q-12 12 -12 31q0 16 11 27q7 7 19.5 10.5
t25.5 5.5t24.5 4.5t18.5 9.5t7 18t-8 21t-28 10q-16 0 -30 -6t-27 -14q-15 -9 -32 -9q-18 0 -30.5 10.5t-12.5 30.5q0 21 16 37q19 19 53.5 28t66.5 9q28 0 53.5 -7.5t44.5 -21t30 -33t11 -44.5q0 -45 -33 -73v-1q21 -9 38.5 -33.5t17.5 -55.5q0 -38 -15.5 -65t-41 -44
t-59 -25t-68.5 -8q-15 0 -31 1.5t-31 5t-28 9t-21 13.5zM237 5q-11 -13 -21.5 -18t-19.5 -5q-20 0 -35 13.5t-15 36.5q0 18 16 37l497 606q11 13 21.5 18t19.5 5q20 0 35 -13.5t15 -36.5q0 -18 -16 -37z" />
    <glyph glyph-name="questiondown" unicode="&#xbf;" horiz-adv-x="509" 
d="M310 291q26 0 46.5 -16.5t20.5 -54.5v-9q0 -36 -10 -58t-32 -44q-23 -20 -50 -34t-50 -27.5t-38.5 -28t-15.5 -34.5q0 -25 17 -41t50 -16q36 0 61 9t45 20l25 12.5t28 5.5q23 0 38.5 -16t15.5 -41q0 -26 -21 -47q-15 -15 -37 -26t-47.5 -18.5t-52.5 -11t-52 -3.5
q-41 0 -79.5 10t-68 31t-47.5 53t-18 77q0 44 22 74t52.5 52t62 39.5t49.5 35.5q8 8 13 17.5t5 21.5q0 36 21 52t47 16zM401 438q0 -18 -7.5 -34.5t-20 -28.5t-29.5 -19t-36 -7t-36 7t-29.5 19t-20 28.5t-7.5 34.5q0 19 7.5 35.5t20 28.5t29.5 19t36 7t36 -7t29.5 -19
t20 -28.5t7.5 -35.5z" />
    <glyph glyph-name="Agrave" unicode="&#xc0;" horiz-adv-x="671" 
d="M437 277q-11 46 -31.5 98.5t-48.5 106.5q-13 26 -22 47h-1q-5 -11 -10 -22.5t-12 -24.5q-28 -54 -48.5 -106.5t-31.5 -98.5h205zM46 63q0 33 9 82t25.5 106t38.5 118t48.5 117.5t56 104t60.5 78.5q21 21 51.5 21t51.5 -21q31 -31 60.5 -78.5t56 -104t48.5 -117
t38.5 -117.5t25.5 -106t9 -82q0 -42 -20.5 -59t-49.5 -17q-30 0 -47 18t-22 49q-3 20 -7.5 46t-12.5 58h-263q-8 -32 -12.5 -58t-7.5 -46q-5 -31 -22 -49t-47 -18q-29 0 -48.5 16.5t-19.5 58.5zM247 811q-22 8 -32 26t-10 36q0 29 17 45t43 16q18 0 35 -9l137 -73
q14 -8 22.5 -21.5t8.5 -28.5q0 -22 -15 -36.5t-35 -14.5q-11 0 -22 4z" />
    <glyph glyph-name="Aacute" unicode="&#xc1;" horiz-adv-x="671" 
d="M437 277q-11 46 -31.5 98.5t-48.5 106.5q-13 26 -22 47h-1q-5 -11 -10 -22.5t-12 -24.5q-28 -54 -48.5 -106.5t-31.5 -98.5h205zM46 63q0 33 9 82t25.5 106t38.5 118t48.5 117.5t56 104t60.5 78.5q21 21 51.5 21t51.5 -21q31 -31 60.5 -78.5t56 -104t48.5 -117
t38.5 -117.5t25.5 -106t9 -82q0 -42 -20.5 -59t-49.5 -17q-30 0 -47 18t-22 49q-3 20 -7.5 46t-12.5 58h-263q-8 -32 -12.5 -58t-7.5 -46q-5 -31 -22 -49t-47 -18q-29 0 -48.5 16.5t-19.5 58.5zM254 751q-20 0 -35 14.5t-15 36.5q0 15 8.5 28.5t22.5 21.5l137 73q16 9 35 9
q26 0 43 -16t17 -45q0 -18 -10 -36t-32 -26l-149 -56q-11 -4 -22 -4z" />
    <glyph glyph-name="Acircumflex" unicode="&#xc2;" horiz-adv-x="671" 
d="M437 277q-11 46 -31.5 98.5t-48.5 106.5q-13 26 -22 47h-1q-5 -11 -10 -22.5t-12 -24.5q-28 -54 -48.5 -106.5t-31.5 -98.5h205zM46 63q0 33 9 82t25.5 106t38.5 118t48.5 117.5t56 104t60.5 78.5q21 21 51.5 21t51.5 -21q31 -31 60.5 -78.5t56 -104t48.5 -117
t38.5 -117.5t25.5 -106t9 -82q0 -42 -20.5 -59t-49.5 -17q-30 0 -47 18t-22 49q-3 20 -7.5 46t-12.5 58h-263q-8 -32 -12.5 -58t-7.5 -46q-5 -31 -22 -49t-47 -18q-29 0 -48.5 16.5t-19.5 58.5zM207 751q-19 0 -34.5 13.5t-15.5 35.5q0 14 7.5 26.5t19.5 20.5l116 76
q7 5 16 8t20 3t20 -3t16 -8l116 -76q12 -8 19.5 -20.5t7.5 -26.5q0 -22 -15.5 -35.5t-34.5 -13.5q-5 0 -11 1t-14 5l-104 54l-104 -54q-8 -4 -14 -5t-11 -1z" />
    <glyph glyph-name="Atilde" unicode="&#xc3;" horiz-adv-x="671" 
d="M437 277q-11 46 -31.5 98.5t-48.5 106.5q-13 26 -22 47h-1q-5 -11 -10 -22.5t-12 -24.5q-28 -54 -48.5 -106.5t-31.5 -98.5h205zM46 63q0 33 9 82t25.5 106t38.5 118t48.5 117.5t56 104t60.5 78.5q21 21 51.5 21t51.5 -21q31 -31 60.5 -78.5t56 -104t48.5 -117
t38.5 -117.5t25.5 -106t9 -82q0 -42 -20.5 -59t-49.5 -17q-30 0 -47 18t-22 49q-3 20 -7.5 46t-12.5 58h-263q-8 -32 -12.5 -58t-7.5 -46q-5 -31 -22 -49t-47 -18q-29 0 -48.5 16.5t-19.5 58.5zM181 777q-21 0 -34.5 15t-13.5 35t15 35q19 19 52.5 30.5t61.5 11.5
q25 0 43.5 -4.5t34.5 -9.5t32 -9.5t36 -4.5q21 0 42 10q10 5 18.5 9t22.5 4q21 0 34.5 -15t13.5 -35t-15 -35q-19 -19 -52.5 -30.5t-61.5 -11.5q-25 0 -43 4.5t-34 9.5t-32 9.5t-37 4.5t-42 -10q-10 -5 -18.5 -9t-22.5 -4z" />
    <glyph glyph-name="Adieresis" unicode="&#xc4;" horiz-adv-x="671" 
d="M437 277q-11 46 -31.5 98.5t-48.5 106.5q-13 26 -22 47h-1q-5 -11 -10 -22.5t-12 -24.5q-28 -54 -48.5 -106.5t-31.5 -98.5h205zM46 63q0 33 9 82t25.5 106t38.5 118t48.5 117.5t56 104t60.5 78.5q21 21 51.5 21t51.5 -21q31 -31 60.5 -78.5t56 -104t48.5 -117
t38.5 -117.5t25.5 -106t9 -82q0 -42 -20.5 -59t-49.5 -17q-30 0 -47 18t-22 49q-3 20 -7.5 46t-12.5 58h-263q-8 -32 -12.5 -58t-7.5 -46q-5 -31 -22 -49t-47 -18q-29 0 -48.5 16.5t-19.5 58.5zM231 766q-32 0 -55.5 22.5t-23.5 54.5q0 16 6.5 29.5t17 24t25 16.5t30.5 6
t30.5 -6t25 -16.5t17 -24t6.5 -29.5q0 -32 -23.5 -54.5t-55.5 -22.5zM441 766q-32 0 -55.5 22.5t-23.5 54.5q0 16 6.5 29.5t17 24t25 16.5t30.5 6t30.5 -6t25 -16.5t17 -24t6.5 -29.5q0 -32 -23.5 -54.5t-55.5 -22.5z" />
    <glyph glyph-name="Aring" unicode="&#xc5;" horiz-adv-x="671" 
d="M437 277q-11 46 -31.5 98.5t-48.5 106.5q-13 26 -22 47h-1q-5 -11 -10 -22.5t-12 -24.5q-28 -54 -48.5 -106.5t-31.5 -98.5h205zM46 63q0 33 9 82t25.5 106t38.5 118t48.5 117.5t56 104t60.5 78.5q21 21 51.5 21t51.5 -21q31 -31 60.5 -78.5t56 -104t48.5 -117
t38.5 -117.5t25.5 -106t9 -82q0 -42 -20.5 -59t-49.5 -17q-30 0 -47 18t-22 49q-3 20 -7.5 46t-12.5 58h-263q-8 -32 -12.5 -58t-7.5 -46q-5 -31 -22 -49t-47 -18q-29 0 -48.5 16.5t-19.5 58.5zM336 803q17 0 28 10.5t11 27.5q0 16 -11 27t-28 11t-28 -11t-11 -27
q0 -17 11 -27.5t28 -10.5zM336 730q-24 0 -44.5 8.5t-36.5 23.5t-25 35t-9 44q0 22 9 42t25 34.5t36.5 23t44.5 8.5t44.5 -8.5t36.5 -23t25 -34.5t9 -42q0 -24 -9 -44t-25 -35t-36.5 -23.5t-44.5 -8.5z" />
    <glyph glyph-name="AE" unicode="&#xc6;" horiz-adv-x="918" 
d="M421 277v239h-1q-48 -51 -90.5 -112t-75.5 -127h167zM8 58q0 19 11 55t31.5 82.5t48.5 100.5t62.5 108.5t74.5 106.5t83 95q37 37 67 55.5t60 18.5h364q32 0 46 -20t14 -42q0 -23 -14 -41.5t-46 -18.5h-228q-19 0 -19 -19v-124h228q32 0 46 -18.5t14 -41.5q0 -22 -14 -42
t-46 -20h-228v-152q0 -19 19 -19h239q32 0 46 -18.5t14 -41.5q0 -22 -14 -42t-46 -20h-295q-20 0 -38.5 6t-33.5 18.5t-24 32t-9 47.5v55h-217q-15 -28 -26 -60.5t-22 -58.5q-11 -27 -30 -39t-45 -12q-35 0 -54 20.5t-19 48.5z" />
    <glyph glyph-name="Ccedilla" unicode="&#xc7;" horiz-adv-x="647" 
d="M53 334q0 102 29.5 171.5t77 112t106 61.5t116.5 19q39 0 76.5 -9.5t67 -27.5t47 -44t17.5 -59q0 -18 -6 -31t-15.5 -21.5t-21 -12.5t-21.5 -4q-25 0 -38.5 8.5t-24.5 19.5q-9 9 -17 19t-18.5 19t-24.5 14.5t-35 5.5q-29 0 -58.5 -12.5t-53.5 -41t-39 -74.5t-15 -113
q0 -66 18 -109t46 -68.5t62 -35.5t66 -10q41 0 71.5 12t53.5 23q24 11 41 11q27 0 42 -18t15 -38q0 -17 -5.5 -29.5t-18.5 -25.5q-15 -15 -38.5 -27t-50.5 -20t-55 -12.5t-51 -4.5h-8q-2 -4 -2 -10q0 -11 10 -19q11 -10 23.5 -22t12.5 -38q0 -31 -31 -55.5t-89 -24.5
q-8 0 -21.5 1t-28 4.5t-28.5 9t-23 14.5q-13 13 -13 29q0 20 12.5 31t30.5 11q17 0 31 -6q8 -3 18.5 -6t16.5 -3q19 0 19 9q0 3 -3.5 6.5t-7.5 8.5q-6 6 -11.5 14.5t-5.5 22.5q0 17 8 31q-54 10 -101 35.5t-81 67.5t-53.5 101.5t-19.5 139.5z" />
    <glyph glyph-name="Egrave" unicode="&#xc8;" horiz-adv-x="574" 
d="M77 576q0 28 9 47.5t24 32t33.5 18.5t38.5 6h284q32 0 46 -20t14 -42q0 -23 -14 -41.5t-46 -18.5h-228q-19 0 -19 -19v-124h228q32 0 46 -18.5t14 -41.5q0 -22 -14 -42t-46 -20h-228v-152q0 -19 19 -19h239q32 0 46 -18.5t14 -41.5q0 -22 -14 -42t-46 -20h-295
q-20 0 -38.5 6t-33.5 18.5t-24 32t-9 47.5v472zM211 811q-22 8 -32 26t-10 36q0 29 17 45t43 16q18 0 35 -9l137 -73q14 -8 22.5 -21.5t8.5 -28.5q0 -22 -15 -36.5t-35 -14.5q-11 0 -22 4z" />
    <glyph glyph-name="Eacute" unicode="&#xc9;" horiz-adv-x="574" 
d="M77 576q0 28 9 47.5t24 32t33.5 18.5t38.5 6h284q32 0 46 -20t14 -42q0 -23 -14 -41.5t-46 -18.5h-228q-19 0 -19 -19v-124h228q32 0 46 -18.5t14 -41.5q0 -22 -14 -42t-46 -20h-228v-152q0 -19 19 -19h239q32 0 46 -18.5t14 -41.5q0 -22 -14 -42t-46 -20h-295
q-20 0 -38.5 6t-33.5 18.5t-24 32t-9 47.5v472zM222 751q-20 0 -35 14.5t-15 36.5q0 15 8.5 28.5t22.5 21.5l137 73q16 9 35 9q26 0 43 -16t17 -45q0 -18 -10 -36t-32 -26l-149 -56q-11 -4 -22 -4z" />
    <glyph glyph-name="Ecircumflex" unicode="&#xca;" horiz-adv-x="574" 
d="M77 576q0 28 9 47.5t24 32t33.5 18.5t38.5 6h284q32 0 46 -20t14 -42q0 -23 -14 -41.5t-46 -18.5h-228q-19 0 -19 -19v-124h228q32 0 46 -18.5t14 -41.5q0 -22 -14 -42t-46 -20h-228v-152q0 -19 19 -19h239q32 0 46 -18.5t14 -41.5q0 -22 -14 -42t-46 -20h-295
q-20 0 -38.5 6t-33.5 18.5t-24 32t-9 47.5v472zM171 751q-19 0 -34.5 13.5t-15.5 35.5q0 14 7.5 26.5t19.5 20.5l116 76q7 5 16 8t20 3t20 -3t16 -8l116 -76q12 -8 19.5 -20.5t7.5 -26.5q0 -22 -15.5 -35.5t-34.5 -13.5q-5 0 -11 1t-14 5l-104 54l-104 -54q-8 -4 -14 -5
t-11 -1z" />
    <glyph glyph-name="Edieresis" unicode="&#xcb;" horiz-adv-x="574" 
d="M77 576q0 28 9 47.5t24 32t33.5 18.5t38.5 6h284q32 0 46 -20t14 -42q0 -23 -14 -41.5t-46 -18.5h-228q-19 0 -19 -19v-124h228q32 0 46 -18.5t14 -41.5q0 -22 -14 -42t-46 -20h-228v-152q0 -19 19 -19h239q32 0 46 -18.5t14 -41.5q0 -22 -14 -42t-46 -20h-295
q-20 0 -38.5 6t-33.5 18.5t-24 32t-9 47.5v472zM195 766q-32 0 -55.5 22.5t-23.5 54.5q0 16 6.5 29.5t17 24t25 16.5t30.5 6t30.5 -6t25 -16.5t17 -24t6.5 -29.5q0 -32 -23.5 -54.5t-55.5 -22.5zM405 766q-32 0 -55.5 22.5t-23.5 54.5q0 16 6.5 29.5t17 24t25 16.5t30.5 6
t30.5 -6t25 -16.5t17 -24t6.5 -29.5q0 -32 -23.5 -54.5t-55.5 -22.5z" />
    <glyph glyph-name="Igrave" unicode="&#xcc;" horiz-adv-x="390" 
d="M57 54q0 21 13 39.5t42 18.5h13v457h-13q-29 0 -42 17t-13 37q0 21 13 39t42 18h169q29 0 41.5 -18t12.5 -39q0 -20 -12.5 -37t-41.5 -17h-14v-457h14q29 0 41.5 -18.5t12.5 -39.5q0 -19 -12.5 -36.5t-41.5 -17.5h-169q-29 0 -42 17.5t-13 36.5zM107 811q-22 8 -32 26
t-10 36q0 29 17 45t43 16q18 0 35 -9l137 -73q14 -8 22.5 -21.5t8.5 -28.5q0 -22 -15 -36.5t-35 -14.5q-11 0 -22 4z" />
    <glyph glyph-name="Iacute" unicode="&#xcd;" horiz-adv-x="390" 
d="M57 54q0 21 13 39.5t42 18.5h13v457h-13q-29 0 -42 17t-13 37q0 21 13 39t42 18h169q29 0 41.5 -18t12.5 -39q0 -20 -12.5 -37t-41.5 -17h-14v-457h14q29 0 41.5 -18.5t12.5 -39.5q0 -19 -12.5 -36.5t-41.5 -17.5h-169q-29 0 -42 17.5t-13 36.5zM115 751q-20 0 -35 14.5
t-15 36.5q0 15 8.5 28.5t22.5 21.5l137 73q16 9 35 9q26 0 43 -16t17 -45q0 -18 -10 -36t-32 -26l-149 -56q-11 -4 -22 -4z" />
    <glyph glyph-name="Icircumflex" unicode="&#xce;" horiz-adv-x="390" 
d="M56 54q0 21 13 39.5t42 18.5h13v457h-13q-29 0 -42 17t-13 37q0 21 13 39t42 18h169q29 0 41.5 -18t12.5 -39q0 -20 -12.5 -37t-41.5 -17h-14v-457h14q29 0 41.5 -18.5t12.5 -39.5q0 -19 -12.5 -36.5t-41.5 -17.5h-169q-29 0 -42 17.5t-13 36.5zM65 751q-19 0 -34.5 13.5
t-15.5 35.5q0 14 7.5 26.5t19.5 20.5l116 76q7 5 16 8t20 3t20 -3t16 -8l116 -76q12 -8 19.5 -20.5t7.5 -26.5q0 -22 -15.5 -35.5t-34.5 -13.5q-5 0 -11 1t-14 5l-104 54l-104 -54q-8 -4 -14 -5t-11 -1z" />
    <glyph glyph-name="Idieresis" unicode="&#xcf;" horiz-adv-x="390" 
d="M56 54q0 21 13 39.5t42 18.5h13v457h-13q-29 0 -42 17t-13 37q0 21 13 39t42 18h169q29 0 41.5 -18t12.5 -39q0 -20 -12.5 -37t-41.5 -17h-14v-457h14q29 0 41.5 -18.5t12.5 -39.5q0 -19 -12.5 -36.5t-41.5 -17.5h-169q-29 0 -42 17.5t-13 36.5zM92 766q-32 0 -55.5 22.5
t-23.5 54.5q0 16 6.5 29.5t17 24t25 16.5t30.5 6t30.5 -6t25 -16.5t17 -24t6.5 -29.5q0 -32 -23.5 -54.5t-55.5 -22.5zM302 766q-32 0 -55.5 22.5t-23.5 54.5q0 16 6.5 29.5t17 24t25 16.5t30.5 6t30.5 -6t25 -16.5t17 -24t6.5 -29.5q0 -32 -23.5 -54.5t-55.5 -22.5z" />
    <glyph glyph-name="Eth" unicode="&#xd0;" horiz-adv-x="734" 
d="M358 122q42 0 74 9.5t54.5 34t34 67t11.5 107.5t-11.5 107.5t-34 67t-54.5 34t-74 9.5h-104v-158h119q22 0 36 -15.5t14 -37.5t-14 -37t-36 -15h-119v-173h104zM58 295q-22 0 -36 15t-14 37q0 21 14 37t36 16h54v211q0 38 22 53.5t48 15.5h171q69 0 128.5 -16t104 -55
t70 -104.5t25.5 -164.5t-25.5 -164.5t-70 -104.5t-104 -55t-128.5 -16h-171q-26 0 -48 16t-22 53v226h-54z" />
    <glyph glyph-name="Ntilde" unicode="&#xd1;" horiz-adv-x="720" 
d="M77 615q0 38 23 56.5t51 18.5q17 0 38 -6.5t44 -38.5l224 -317l10 -15l13 -19.5t13 -21t11 -19.5h2q-2 26 -2.5 49.5t-0.5 51.5v267q0 18 6.5 31t16.5 21.5t23 12.5t26 4q25 0 46.5 -16.5t21.5 -52.5v-558q0 -37 -22.5 -55t-47.5 -18q-7 0 -16.5 1t-20.5 5t-22 11.5
t-20 20.5l-229 321q-9 13 -24.5 36.5t-24.5 41.5h-2q2 -27 2.5 -50t0.5 -52v-266q0 -18 -6.5 -31t-16.5 -21.5t-23 -12.5t-26 -4q-25 0 -46.5 16.5t-21.5 52.5v556zM206 777q-21 0 -34.5 15t-13.5 35t15 35q19 19 52.5 30.5t61.5 11.5q25 0 43.5 -4.5t34.5 -10t32 -9.5
t36 -4q21 0 42 10q10 5 18.5 9t22.5 4q21 0 34.5 -15t13.5 -35t-15 -35q-19 -19 -52.5 -30.5t-61.5 -11.5q-25 0 -43 4.5t-34 9.5t-32 9.5t-37 4.5t-42 -10q-10 -5 -18.5 -9t-22.5 -4z" />
    <glyph glyph-name="Ograve" unicode="&#xd2;" horiz-adv-x="732" 
d="M366 109q28 0 57.5 10t53 36t38.5 71t15 115q0 69 -15 114t-38.5 71t-53 36t-57.5 10q-29 0 -58 -10t-52.5 -36t-38.5 -71t-15 -114q0 -70 15 -115t38.5 -71t52.5 -36t58 -10zM53 341q0 107 29 176t74 109.5t100.5 56t109.5 15.5t109.5 -15.5t100.5 -56t74 -109.5
t29 -176t-29 -176.5t-74 -110t-100.5 -56.5t-109.5 -16t-109.5 16t-100.5 56.5t-74 110t-29 176.5zM291 811q-22 8 -32 26t-10 36q0 29 17 45t43 16q18 0 35 -9l137 -73q14 -8 22.5 -21.5t8.5 -28.5q0 -22 -15 -36.5t-35 -14.5q-11 0 -22 4z" />
    <glyph glyph-name="Oacute" unicode="&#xd3;" horiz-adv-x="732" 
d="M366 109q28 0 57.5 10t53 36t38.5 71t15 115q0 69 -15 114t-38.5 71t-53 36t-57.5 10q-29 0 -58 -10t-52.5 -36t-38.5 -71t-15 -114q0 -70 15 -115t38.5 -71t52.5 -36t58 -10zM53 341q0 107 29 176t74 109.5t100.5 56t109.5 15.5t109.5 -15.5t100.5 -56t74 -109.5
t29 -176t-29 -176.5t-74 -110t-100.5 -56.5t-109.5 -16t-109.5 16t-100.5 56.5t-74 110t-29 176.5zM323 751q-20 0 -35 14.5t-15 36.5q0 15 8.5 28.5t22.5 21.5l137 73q16 9 35 9q26 0 43 -16t17 -45q0 -18 -10 -36t-32 -26l-149 -56q-11 -4 -22 -4z" />
    <glyph glyph-name="Ocircumflex" unicode="&#xd4;" horiz-adv-x="732" 
d="M366 109q28 0 57.5 10t53 36t38.5 71t15 115q0 69 -15 114t-38.5 71t-53 36t-57.5 10q-29 0 -58 -10t-52.5 -36t-38.5 -71t-15 -114q0 -70 15 -115t38.5 -71t52.5 -36t58 -10zM53 341q0 107 29 176t74 109.5t100.5 56t109.5 15.5t109.5 -15.5t100.5 -56t74 -109.5
t29 -176t-29 -176.5t-74 -110t-100.5 -56.5t-109.5 -16t-109.5 16t-100.5 56.5t-74 110t-29 176.5zM235 751q-19 0 -34.5 13.5t-15.5 35.5q0 14 7.5 26.5t19.5 20.5l116 76q7 5 16 8t20 3t20 -3t16 -8l116 -76q12 -8 19.5 -20.5t7.5 -26.5q0 -22 -15.5 -35.5t-34.5 -13.5
q-5 0 -11 1t-14 5l-104 54l-104 -54q-8 -4 -14 -5t-11 -1z" />
    <glyph glyph-name="Otilde" unicode="&#xd5;" horiz-adv-x="732" 
d="M366 109q28 0 57.5 10t53 36t38.5 71t15 115q0 69 -15 114t-38.5 71t-53 36t-57.5 10q-29 0 -58 -10t-52.5 -36t-38.5 -71t-15 -114q0 -70 15 -115t38.5 -71t52.5 -36t58 -10zM53 341q0 107 29 176t74 109.5t100.5 56t109.5 15.5t109.5 -15.5t100.5 -56t74 -109.5
t29 -176t-29 -176.5t-74 -110t-100.5 -56.5t-109.5 -16t-109.5 16t-100.5 56.5t-74 110t-29 176.5zM211 777q-21 0 -34.5 15t-13.5 35t15 35q19 19 52.5 30.5t61.5 11.5q25 0 43.5 -4.5t34.5 -10t32 -9.5t36 -4q21 0 42 10q10 5 18.5 9t22.5 4q21 0 34.5 -15t13.5 -35
t-15 -35q-19 -19 -52.5 -30.5t-61.5 -11.5q-25 0 -43 4.5t-34 9.5t-32 9.5t-37 4.5t-42 -10q-10 -5 -18.5 -9t-22.5 -4z" />
    <glyph glyph-name="Odieresis" unicode="&#xd6;" horiz-adv-x="732" 
d="M366 109q28 0 57.5 10t53 36t38.5 71t15 115q0 69 -15 114t-38.5 71t-53 36t-57.5 10q-29 0 -58 -10t-52.5 -36t-38.5 -71t-15 -114q0 -70 15 -115t38.5 -71t52.5 -36t58 -10zM53 341q0 107 29 176t74 109.5t100.5 56t109.5 15.5t109.5 -15.5t100.5 -56t74 -109.5
t29 -176t-29 -176.5t-74 -110t-100.5 -56.5t-109.5 -16t-109.5 16t-100.5 56.5t-74 110t-29 176.5zM261 766q-32 0 -55.5 22.5t-23.5 54.5q0 16 6.5 29.5t17 24t25 16.5t30.5 6t30.5 -6t25 -16.5t17 -24t6.5 -29.5q0 -32 -23.5 -54.5t-55.5 -22.5zM471 766q-32 0 -55.5 22.5
t-23.5 54.5q0 16 6.5 29.5t17 24t25 16.5t30.5 6t30.5 -6t25 -16.5t17 -24t6.5 -29.5q0 -32 -23.5 -54.5t-55.5 -22.5z" />
    <glyph glyph-name="multiply" unicode="&#xd7;" horiz-adv-x="703" 
d="M116 114q0 25 19 44l121 121l-120 121q-20 20 -20 44q0 14 6 27t16 22.5t23 15t26 5.5q11 0 22.5 -4t21.5 -15l120 -121l121 121q20 19 44 19q13 0 26 -5.5t23 -15t16 -22.5t6 -27q0 -24 -20 -44l-121 -121l122 -121q19 -19 19 -44q0 -14 -6 -26.5t-16 -22.5t-22.5 -15.5
t-25.5 -5.5q-25 0 -44 19l-122 121l-121 -121q-19 -19 -44 -19q-13 0 -25.5 5.5t-22.5 15.5t-16 22.5t-6 26.5z" />
    <glyph glyph-name="Oslash" unicode="&#xd8;" horiz-adv-x="732" 
d="M366 109q28 0 57.5 10t53 36t38.5 71t15 115q0 63 -12.5 105t-32.5 69l-142 -405q6 -1 11.5 -1h11.5zM202 341q0 -66 13 -109t34 -70l144 407q-14 3 -27 3q-29 0 -58 -10t-52.5 -36t-38.5 -71t-15 -114zM200 22q-31 18 -58 45.5t-46.5 66t-31 90t-11.5 117.5
q0 107 29 176t74 109.5t100.5 56t109.5 15.5q37 0 71 -7l12 35q9 25 28.5 31.5t38 -0.5t29.5 -24.5t3 -40.5l-13 -36q30 -18 56.5 -45t46 -65.5t30.5 -89t11 -115.5q0 -107 -29 -176.5t-74 -110t-100.5 -56.5t-109.5 -16q-33 0 -66 6l-13 -38q-9 -24 -29 -31t-38.5 -1
t-30 23t-3.5 41z" />
    <glyph glyph-name="Ugrave" unicode="&#xd9;" horiz-adv-x="714" 
d="M72 621q0 38 22 53.5t48 15.5q13 0 26 -4t23 -12t16.5 -21t6.5 -32v-350q0 -51 12 -83t32 -49.5t45.5 -24t53.5 -6.5t53.5 6.5t45.5 24t32 49.5t12 83v350q0 38 22 53.5t48 15.5q13 0 25.5 -4t23 -12t17 -21t6.5 -32v-339q0 -92 -23.5 -150.5t-63 -91.5t-91 -45.5
t-107.5 -12.5t-107.5 12.5t-91 45.5t-63 91t-23.5 150v340zM242 811q-22 8 -32 26t-10 36q0 29 17 45t43 16q18 0 35 -9l137 -73q14 -8 22.5 -21.5t8.5 -28.5q0 -22 -15 -36.5t-35 -14.5q-11 0 -22 4z" />
    <glyph glyph-name="Uacute" unicode="&#xda;" horiz-adv-x="714" 
d="M72 621q0 38 22 53.5t48 15.5q13 0 26 -4t23 -12t16.5 -21t6.5 -32v-350q0 -51 12 -83t32 -49.5t45.5 -24t53.5 -6.5t53.5 6.5t45.5 24t32 49.5t12 83v350q0 38 22 53.5t48 15.5q13 0 25.5 -4t23 -12t17 -21t6.5 -32v-339q0 -92 -23.5 -150.5t-63 -91.5t-91 -45.5
t-107.5 -12.5t-107.5 12.5t-91 45.5t-63 91t-23.5 150v340zM309 746q-20 0 -35 14.5t-15 36.5q0 15 8.5 28.5t22.5 21.5l137 73q16 9 35 9q26 0 43 -16t17 -45q0 -18 -10 -36t-32 -26l-149 -56q-11 -4 -22 -4z" />
    <glyph glyph-name="Ucircumflex" unicode="&#xdb;" horiz-adv-x="714" 
d="M72 621q0 38 22 53.5t48 15.5q13 0 26 -4t23 -12t16.5 -21t6.5 -32v-350q0 -51 12 -83t32 -49.5t45.5 -24t53.5 -6.5t53.5 6.5t45.5 24t32 49.5t12 83v350q0 38 22 53.5t48 15.5q13 0 25.5 -4t23 -12t17 -21t6.5 -32v-339q0 -92 -23.5 -150.5t-63 -91.5t-91 -45.5
t-107.5 -12.5t-107.5 12.5t-91 45.5t-63 91t-23.5 150v340zM229 751q-19 0 -34.5 13.5t-15.5 35.5q0 14 7.5 26.5t19.5 20.5l116 76q7 5 16 8t20 3t20 -3t16 -8l116 -76q12 -8 19.5 -20.5t7.5 -26.5q0 -22 -15.5 -35.5t-34.5 -13.5q-5 0 -11 1t-14 5l-104 54l-104 -54
q-8 -4 -14 -5t-11 -1z" />
    <glyph glyph-name="Udieresis" unicode="&#xdc;" horiz-adv-x="714" 
d="M72 621q0 38 22 53.5t48 15.5q13 0 26 -4t23 -12t16.5 -21t6.5 -32v-350q0 -51 12 -83t32 -49.5t45.5 -24t53.5 -6.5t53.5 6.5t45.5 24t32 49.5t12 83v350q0 38 22 53.5t48 15.5q13 0 25.5 -4t23 -12t17 -21t6.5 -32v-339q0 -92 -23.5 -150.5t-63 -91.5t-91 -45.5
t-107.5 -12.5t-107.5 12.5t-91 45.5t-63 91t-23.5 150v340zM254 766q-32 0 -55.5 22.5t-23.5 54.5q0 16 6.5 29.5t17 24t25 16.5t30.5 6t30.5 -6t25 -16.5t17 -24t6.5 -29.5q0 -32 -23.5 -54.5t-55.5 -22.5zM464 766q-32 0 -55.5 22.5t-23.5 54.5q0 16 6.5 29.5t17 24
t25 16.5t30.5 6t30.5 -6t25 -16.5t17 -24t6.5 -29.5q0 -32 -23.5 -54.5t-55.5 -22.5z" />
    <glyph glyph-name="Yacute" unicode="&#xdd;" horiz-adv-x="601" 
d="M230 238q-33 30 -69.5 75.5t-67 98t-50.5 106t-20 99.5q0 32 19 52t48 20q25 0 43 -14t25 -40q5 -20 15 -51.5t26.5 -68t42 -76t61.5 -73.5q36 34 61 73.5t41.5 76t25.5 68t14 51.5q7 27 25 40.5t42 13.5q31 0 48.5 -20.5t17.5 -51.5q0 -45 -19 -97.5t-49 -104t-66.5 -98
t-71.5 -79.5v-179q0 -18 -6.5 -31.5t-16.5 -21.5t-23 -12t-26 -4q-26 0 -48 16t-22 53v179zM245 751q-20 0 -35 14.5t-15 36.5q0 15 8.5 28.5t22.5 21.5l137 73q16 9 35 9q26 0 43 -16t17 -45q0 -18 -10 -36t-32 -26l-149 -56q-11 -4 -22 -4z" />
    <glyph glyph-name="Thorn" unicode="&#xde;" horiz-adv-x="618" 
d="M343 227q31 0 51 10t31.5 26.5t16 36.5t4.5 40t-4.5 40t-16 36.5t-31.5 26.5t-51 10h-124v-226h124zM77 621q0 37 22 53t48 16q13 0 26 -4t23 -12t16.5 -21t6.5 -32v-46h133q64 0 110 -19.5t75.5 -52.5t43 -75.5t13.5 -88.5q0 -45 -14 -87.5t-43 -75t-75 -52t-110 -19.5
h-133v-46q0 -18 -6.5 -31.5t-16.5 -21.5t-23 -12t-26 -4q-26 0 -48 16t-22 53v562z" />
    <glyph glyph-name="germandbls" unicode="&#xdf;" horiz-adv-x="668" 
d="M72 441q0 64 20 112t55 80t82 48t102 16q40 0 78 -10t67 -30t47 -49.5t18 -69.5q0 -34 -12.5 -58.5t-30 -42.5t-36.5 -31.5t-32 -26.5q-8 -8 -8 -18t7 -16q9 -9 29 -16t44 -16t50.5 -21t47.5 -31t35 -46.5t14 -66.5q0 -41 -17.5 -72t-46.5 -52t-65.5 -31.5t-73.5 -10.5
q-20 0 -43.5 2t-47 7t-44 13.5t-33.5 21.5q-19 19 -19 44t15.5 41t38.5 16q11 0 22 -2.5t19 -6.5q19 -8 38.5 -14t53.5 -6q29 0 44.5 11.5t15.5 30.5q0 10 -3.5 16.5t-8.5 11.5q-14 14 -38.5 24.5t-52.5 21t-55 23t-46 31.5q-14 14 -22 33t-8 43q0 28 10.5 47t25.5 34
t31.5 26.5t31 22.5t23.5 23t9 29q0 26 -20 38.5t-47 12.5q-25 0 -47.5 -9.5t-39 -27t-26 -43t-9.5 -56.5v-382q0 -18 -6.5 -31.5t-16.5 -21.5t-23 -12t-26 -4q-26 0 -48 16t-22 53v382z" />
    <glyph glyph-name="agrave" unicode="&#xe0;" horiz-adv-x="568" 
d="M181 152q0 -34 20.5 -47.5t54.5 -13.5q35 0 58.5 10t37.5 18q-3 16 -4 31t-1 33v39q-10 1 -16.5 1h-11.5q-23 0 -47.5 -2t-44.5 -9.5t-33 -21.5t-13 -38zM39 144q0 52 24.5 86t63 53.5t86 27t94.5 7.5h14t26 -1v46q0 27 -18.5 38.5t-55.5 11.5q-40 0 -65.5 -8t-39.5 -14
q-7 -3 -18 -6t-22 -3q-26 0 -40 16.5t-14 36.5q0 26 17 43q13 13 34 22.5t45.5 15.5t51 9t51.5 3q46 0 85 -9t67 -28.5t43.5 -50t15.5 -73.5v-189q0 -28 2.5 -43t8.5 -23q12 -13 24.5 -18t25.5 -19q13 -13 13 -36q0 -19 -13.5 -35.5t-45.5 -16.5q-35 0 -60 14.5t-45 34.5
q-9 -9 -24.5 -18.5t-35 -17.5t-43.5 -13t-49 -5q-39 0 -76 9.5t-65 29.5t-45 50.5t-17 72.5zM150 643q-22 8 -32 26t-10 36q0 29 17 45t43 16q18 0 35 -9l137 -73q14 -8 22.5 -21.5t8.5 -28.5q0 -22 -15 -36.5t-35 -14.5q-11 0 -22 4z" />
    <glyph glyph-name="aacute" unicode="&#xe1;" horiz-adv-x="568" 
d="M181 152q0 -34 20.5 -47.5t54.5 -13.5q35 0 58.5 10t37.5 18q-3 16 -4 31t-1 33v39q-10 1 -16.5 1h-11.5q-23 0 -47.5 -2t-44.5 -9.5t-33 -21.5t-13 -38zM39 144q0 52 24.5 86t63 53.5t86 27t94.5 7.5h14t26 -1v46q0 27 -18.5 38.5t-55.5 11.5q-40 0 -65.5 -8t-39.5 -14
q-7 -3 -18 -6t-22 -3q-26 0 -40 16.5t-14 36.5q0 26 17 43q13 13 34 22.5t45.5 15.5t51 9t51.5 3q46 0 85 -9t67 -28.5t43.5 -50t15.5 -73.5v-189q0 -28 2.5 -43t8.5 -23q12 -13 24.5 -18t25.5 -19q13 -13 13 -36q0 -19 -13.5 -35.5t-45.5 -16.5q-35 0 -60 14.5t-45 34.5
q-9 -9 -24.5 -18.5t-35 -17.5t-43.5 -13t-49 -5q-39 0 -76 9.5t-65 29.5t-45 50.5t-17 72.5zM216 583q-20 0 -35 14.5t-15 36.5q0 15 8.5 28.5t22.5 21.5l137 73q16 9 35 9q26 0 43 -16t17 -45q0 -18 -10 -36t-32 -26l-149 -56q-11 -4 -22 -4z" />
    <glyph glyph-name="acircumflex" unicode="&#xe2;" horiz-adv-x="568" 
d="M181 152q0 -34 20.5 -47.5t54.5 -13.5q35 0 58.5 10t37.5 18q-3 16 -4 31t-1 33v39q-10 1 -16.5 1h-11.5q-23 0 -47.5 -2t-44.5 -9.5t-33 -21.5t-13 -38zM39 144q0 52 24.5 86t63 53.5t86 27t94.5 7.5h14t26 -1v46q0 27 -18.5 38.5t-55.5 11.5q-40 0 -65.5 -8t-39.5 -14
q-7 -3 -18 -6t-22 -3q-26 0 -40 16.5t-14 36.5q0 26 17 43q13 13 34 22.5t45.5 15.5t51 9t51.5 3q46 0 85 -9t67 -28.5t43.5 -50t15.5 -73.5v-189q0 -28 2.5 -43t8.5 -23q12 -13 24.5 -18t25.5 -19q13 -13 13 -36q0 -19 -13.5 -35.5t-45.5 -16.5q-35 0 -60 14.5t-45 34.5
q-9 -9 -24.5 -18.5t-35 -17.5t-43.5 -13t-49 -5q-39 0 -76 9.5t-65 29.5t-45 50.5t-17 72.5zM156 583q-19 0 -34.5 13.5t-15.5 35.5q0 14 7.5 26.5t19.5 20.5l116 76q7 5 16 8t20 3t20 -3t16 -8l116 -76q12 -8 19.5 -20.5t7.5 -26.5q0 -22 -15.5 -35.5t-34.5 -13.5
q-5 0 -11 1t-14 5l-104 54l-104 -54q-8 -4 -14 -5t-11 -1z" />
    <glyph glyph-name="atilde" unicode="&#xe3;" horiz-adv-x="568" 
d="M181 152q0 -34 20.5 -47.5t54.5 -13.5q35 0 58.5 10t37.5 18q-3 16 -4 31t-1 33v39q-10 1 -16.5 1h-11.5q-23 0 -47.5 -2t-44.5 -9.5t-33 -21.5t-13 -38zM39 144q0 52 24.5 86t63 53.5t86 27t94.5 7.5h14t26 -1v46q0 27 -18.5 38.5t-55.5 11.5q-40 0 -65.5 -8t-39.5 -14
q-7 -3 -18 -6t-22 -3q-26 0 -40 16.5t-14 36.5q0 26 17 43q13 13 34 22.5t45.5 15.5t51 9t51.5 3q46 0 85 -9t67 -28.5t43.5 -50t15.5 -73.5v-189q0 -28 2.5 -43t8.5 -23q12 -13 24.5 -18t25.5 -19q13 -13 13 -36q0 -19 -13.5 -35.5t-45.5 -16.5q-35 0 -60 14.5t-45 34.5
q-9 -9 -24.5 -18.5t-35 -17.5t-43.5 -13t-49 -5q-39 0 -76 9.5t-65 29.5t-45 50.5t-17 72.5zM130 614q-21 0 -34.5 15t-13.5 35t15 35q19 19 52.5 30.5t61.5 11.5q25 0 43.5 -4.5t34.5 -9.5t32 -9.5t36 -4.5q21 0 42 10q10 5 18.5 9t22.5 4q21 0 34.5 -15t13.5 -35t-15 -35
q-19 -19 -52.5 -30.5t-61.5 -11.5q-25 0 -43 4.5t-34 9.5t-32 9.5t-37 4.5t-42 -10q-10 -5 -18.5 -9t-22.5 -4z" />
    <glyph glyph-name="adieresis" unicode="&#xe4;" horiz-adv-x="568" 
d="M181 152q0 -34 20.5 -47.5t54.5 -13.5q35 0 58.5 10t37.5 18q-3 16 -4 31t-1 33v39q-10 1 -16.5 1h-11.5q-23 0 -47.5 -2t-44.5 -9.5t-33 -21.5t-13 -38zM39 144q0 52 24.5 86t63 53.5t86 27t94.5 7.5h14t26 -1v46q0 27 -18.5 38.5t-55.5 11.5q-40 0 -65.5 -8t-39.5 -14
q-7 -3 -18 -6t-22 -3q-26 0 -40 16.5t-14 36.5q0 26 17 43q13 13 34 22.5t45.5 15.5t51 9t51.5 3q46 0 85 -9t67 -28.5t43.5 -50t15.5 -73.5v-189q0 -28 2.5 -43t8.5 -23q12 -13 24.5 -18t25.5 -19q13 -13 13 -36q0 -19 -13.5 -35.5t-45.5 -16.5q-35 0 -60 14.5t-45 34.5
q-9 -9 -24.5 -18.5t-35 -17.5t-43.5 -13t-49 -5q-39 0 -76 9.5t-65 29.5t-45 50.5t-17 72.5zM180 598q-32 0 -55.5 22.5t-23.5 54.5q0 16 6.5 29.5t17 24t25 16.5t30.5 6t30.5 -6t25 -16.5t17 -24t6.5 -29.5q0 -32 -23.5 -54.5t-55.5 -22.5zM390 598q-32 0 -55.5 22.5
t-23.5 54.5q0 16 6.5 29.5t17 24t25 16.5t30.5 6t30.5 -6t25 -16.5t17 -24t6.5 -29.5q0 -32 -23.5 -54.5t-55.5 -22.5z" />
    <glyph glyph-name="aring" unicode="&#xe5;" horiz-adv-x="568" 
d="M181 152q0 -34 20.5 -47.5t54.5 -13.5q35 0 58.5 10t37.5 18q-3 16 -4 31t-1 33v39q-10 1 -16.5 1h-11.5q-23 0 -47.5 -2t-44.5 -9.5t-33 -21.5t-13 -38zM39 144q0 52 24.5 86t63 53.5t86 27t94.5 7.5h14t26 -1v46q0 27 -18.5 38.5t-55.5 11.5q-40 0 -65.5 -8t-39.5 -14
q-7 -3 -18 -6t-22 -3q-26 0 -40 16.5t-14 36.5q0 26 17 43q13 13 34 22.5t45.5 15.5t51 9t51.5 3q46 0 85 -9t67 -28.5t43.5 -50t15.5 -73.5v-189q0 -28 2.5 -43t8.5 -23q12 -13 24.5 -18t25.5 -19q13 -13 13 -36q0 -19 -13.5 -35.5t-45.5 -16.5q-35 0 -60 14.5t-45 34.5
q-9 -9 -24.5 -18.5t-35 -17.5t-43.5 -13t-49 -5q-39 0 -76 9.5t-65 29.5t-45 50.5t-17 72.5zM285 637q17 0 28 10.5t11 27.5q0 16 -11 27t-28 11t-28 -11t-11 -27q0 -17 11 -27.5t28 -10.5zM285 564q-24 0 -44.5 8.5t-36.5 23.5t-25 35t-9 44q0 22 9 42t25 34.5t36.5 23
t44.5 8.5t44.5 -8.5t36.5 -23t25 -34.5t9 -42q0 -24 -9 -44t-25 -35t-36.5 -23.5t-44.5 -8.5z" />
    <glyph glyph-name="ae" unicode="&#xe6;" horiz-adv-x="836" 
d="M181 150q0 -18 6.5 -29.5t17.5 -18t24 -9t27 -2.5q35 0 58.5 10.5t37.5 19.5q-9 26 -13.5 49.5t-6.5 52.5h-13q-23 0 -47.5 -2t-44.5 -9.5t-33 -22t-13 -39.5zM663 308q-4 60 -25 86.5t-64 26.5t-68 -29t-30 -84h187zM39 144q0 57 28 91.5t69 53t87.5 24t83.5 5.5h14
t26 -1v46q0 4 -2 12.5t-9.5 16.5t-22 14.5t-40.5 6.5q-40 0 -64.5 -7t-40.5 -15q-6 -3 -17.5 -6t-22.5 -3q-26 0 -40 16.5t-14 36.5q0 26 17 43q13 13 34 22.5t45.5 15.5t51 9t51.5 3q49 0 85.5 -10.5t67.5 -41.5h1q29 26 65 39t73 13q50 0 92 -14.5t72.5 -45.5t47.5 -79
t17 -114q0 -14 -2 -26.5t-9 -22.5t-20 -15.5t-35 -5.5h-255q4 -32 15.5 -52.5t28 -32.5t36.5 -17t42 -5q25 0 49.5 5t42.5 12q10 4 22 7.5t22 3.5q25 0 39 -16t14 -36q0 -25 -18 -43q-12 -12 -33 -21t-45 -15.5t-49 -9.5t-44 -3q-54 0 -102.5 15t-84.5 47h-1
q-30 -28 -72 -45t-93 -17q-32 0 -68 7.5t-66 26.5t-49.5 50t-19.5 78z" />
    <glyph glyph-name="ccedilla" unicode="&#xe7;" horiz-adv-x="525" 
d="M188 252q0 -43 12.5 -72t32.5 -47t45 -26t49 -8q25 0 44 6t36 15q25 14 45 14q24 0 37.5 -14.5t13.5 -39.5q0 -24 -17.5 -42t-44 -29.5t-56.5 -18t-54 -7.5q-2 -4 -2 -11q0 -11 10 -19q11 -10 23.5 -22t12.5 -38q0 -31 -31 -55.5t-89 -24.5q-8 0 -21.5 1t-28 4.5t-28.5 9
t-23 14.5q-13 13 -13 29q0 20 12.5 31t30.5 11q17 0 31 -6q8 -3 18.5 -6t16.5 -3q19 0 19 9q0 3 -3.5 6.5t-7.5 8.5q-6 6 -11.5 14.5t-5.5 22.5t7 30q-40 7 -77 25.5t-65.5 50t-46 77.5t-17.5 110q0 77 25 130t62.5 85.5t82.5 46.5t84 14q31 0 63.5 -7t59.5 -22.5t44 -39.5
t17 -58q0 -29 -17 -47t-47 -18q-17 0 -27.5 6t-17.5 13q-8 8 -14 18t-13.5 19t-19.5 15t-32 6q-17 0 -35.5 -9t-33.5 -28t-25 -50t-10 -74z" />
    <glyph glyph-name="egrave" unicode="&#xe8;" horiz-adv-x="547" 
d="M374 308q-4 60 -25 86.5t-64 26.5t-68 -29t-30 -84h187zM42 251q0 75 20 127.5t53 85.5t75 48.5t86 15.5q50 0 92 -15t72.5 -45.5t47.5 -78.5t17 -114q0 -14 -2 -26.5t-9 -22.5t-20 -15.5t-35 -5.5h-255q4 -32 15.5 -52.5t28 -32.5t36.5 -17t42 -5q25 0 49.5 5t42.5 12
q10 4 22 7.5t22 3.5q25 0 39 -16t14 -36q0 -25 -18 -43q-12 -12 -33 -21t-45 -15.5t-49 -9.5t-44 -3q-53 0 -101 12.5t-84 43.5t-57.5 83t-21.5 130zM168 643q-22 8 -32 26t-10 36q0 29 17 45t43 16q18 0 35 -9l137 -73q14 -8 22.5 -21.5t8.5 -28.5q0 -22 -15 -36.5
t-35 -14.5q-11 0 -22 4z" />
    <glyph glyph-name="eacute" unicode="&#xe9;" horiz-adv-x="547" 
d="M374 308q-4 60 -25 86.5t-64 26.5t-68 -29t-30 -84h187zM42 251q0 75 20 127.5t53 85.5t75 48.5t86 15.5q50 0 92 -15t72.5 -45.5t47.5 -78.5t17 -114q0 -14 -2 -26.5t-9 -22.5t-20 -15.5t-35 -5.5h-255q4 -32 15.5 -52.5t28 -32.5t36.5 -17t42 -5q25 0 49.5 5t42.5 12
q10 4 22 7.5t22 3.5q25 0 39 -16t14 -36q0 -25 -18 -43q-12 -12 -33 -21t-45 -15.5t-49 -9.5t-44 -3q-53 0 -101 12.5t-84 43.5t-57.5 83t-21.5 130zM219 582q-20 0 -35 14.5t-15 36.5q0 15 8.5 28.5t22.5 21.5l137 73q16 9 35 9q26 0 43 -16t17 -45q0 -18 -10 -36t-32 -26
l-149 -56q-11 -4 -22 -4z" />
    <glyph glyph-name="ecircumflex" unicode="&#xea;" horiz-adv-x="547" 
d="M374 308q-4 60 -25 86.5t-64 26.5t-68 -29t-30 -84h187zM42 251q0 75 20 127.5t53 85.5t75 48.5t86 15.5q50 0 92 -15t72.5 -45.5t47.5 -78.5t17 -114q0 -14 -2 -26.5t-9 -22.5t-20 -15.5t-35 -5.5h-255q4 -32 15.5 -52.5t28 -32.5t36.5 -17t42 -5q25 0 49.5 5t42.5 12
q10 4 22 7.5t22 3.5q25 0 39 -16t14 -36q0 -25 -18 -43q-12 -12 -33 -21t-45 -15.5t-49 -9.5t-44 -3q-53 0 -101 12.5t-84 43.5t-57.5 83t-21.5 130zM147 583q-19 0 -34.5 13.5t-15.5 35.5q0 14 7.5 26.5t19.5 20.5l116 76q7 5 16 8t20 3t20 -3t16 -8l116 -76
q12 -8 19.5 -20.5t7.5 -26.5q0 -22 -15.5 -35.5t-34.5 -13.5q-5 0 -11 1t-14 5l-104 54l-104 -54q-8 -4 -14 -5t-11 -1z" />
    <glyph glyph-name="edieresis" unicode="&#xeb;" horiz-adv-x="547" 
d="M374 308q-4 60 -25 86.5t-64 26.5t-68 -29t-30 -84h187zM42 251q0 75 20 127.5t53 85.5t75 48.5t86 15.5q50 0 92 -15t72.5 -45.5t47.5 -78.5t17 -114q0 -14 -2 -26.5t-9 -22.5t-20 -15.5t-35 -5.5h-255q4 -32 15.5 -52.5t28 -32.5t36.5 -17t42 -5q25 0 49.5 5t42.5 12
q10 4 22 7.5t22 3.5q25 0 39 -16t14 -36q0 -25 -18 -43q-12 -12 -33 -21t-45 -15.5t-49 -9.5t-44 -3q-53 0 -101 12.5t-84 43.5t-57.5 83t-21.5 130zM171 598q-32 0 -55.5 22.5t-23.5 54.5q0 16 6.5 29.5t17 24t25 16.5t30.5 6t30.5 -6t25 -16.5t17 -24t6.5 -29.5
q0 -32 -23.5 -54.5t-55.5 -22.5zM381 598q-32 0 -55.5 22.5t-23.5 54.5q0 16 6.5 29.5t17 24t25 16.5t30.5 6t30.5 -6t25 -16.5t17 -24t6.5 -29.5q0 -32 -23.5 -54.5t-55.5 -22.5z" />
    <glyph glyph-name="igrave" unicode="&#xec;" horiz-adv-x="319" 
d="M100 396h-38q-32 0 -45.5 17t-13.5 40q0 22 13.5 39.5t45.5 17.5h122q31 0 44 -17t13 -38v-396q0 -18 -6.5 -31.5t-16.5 -21.5t-22.5 -12t-25.5 -4q-26 0 -48 16t-22 53v337zM10 643q-22 8 -32 26t-10 36q0 29 17 45t43 16q18 0 35 -9l137 -73q14 -8 22.5 -21.5
t8.5 -28.5q0 -22 -15 -36.5t-35 -14.5q-11 0 -22 4z" />
    <glyph glyph-name="iacute" unicode="&#xed;" horiz-adv-x="319" 
d="M100 396h-38q-32 0 -45.5 17t-13.5 40q0 22 13.5 39.5t45.5 17.5h122q31 0 44 -17t13 -38v-396q0 -18 -6.5 -31.5t-16.5 -21.5t-22.5 -12t-25.5 -4q-26 0 -48 16t-22 53v337zM101 583q-20 0 -35 14.5t-15 36.5q0 15 8.5 28.5t22.5 21.5l137 73q16 9 35 9q26 0 43 -16
t17 -45q0 -18 -10 -36t-32 -26l-149 -56q-11 -4 -22 -4z" />
    <glyph glyph-name="icircumflex" unicode="&#xee;" horiz-adv-x="319" 
d="M99 396h-38q-32 0 -45.5 17t-13.5 40q0 22 13.5 39.5t45.5 17.5h122q31 0 44 -17t13 -38v-396q0 -18 -6.5 -31.5t-16.5 -21.5t-22.5 -12t-25.5 -4q-26 0 -48 16t-22 53v337zM19 583q-19 0 -34.5 13.5t-15.5 35.5q0 14 7.5 26.5t19.5 20.5l116 76q7 5 16 8t20 3t20 -3
t16 -8l116 -76q12 -8 19.5 -20.5t7.5 -26.5q0 -22 -15.5 -35.5t-34.5 -13.5q-5 0 -11 1t-14 5l-104 54l-104 -54q-8 -4 -14 -5t-11 -1z" />
    <glyph glyph-name="idieresis" unicode="&#xef;" horiz-adv-x="319" 
d="M100 396h-38q-32 0 -45.5 17t-13.5 40q0 22 13.5 39.5t45.5 17.5h122q31 0 44 -17t13 -38v-396q0 -18 -6.5 -31.5t-16.5 -21.5t-22.5 -12t-25.5 -4q-26 0 -48 16t-22 53v337zM46 598q-32 0 -55.5 22.5t-23.5 54.5q0 16 6.5 29.5t17 24t25 16.5t30.5 6t30.5 -6t25 -16.5
t17 -24t6.5 -29.5q0 -32 -23.5 -54.5t-55.5 -22.5zM256 598q-32 0 -55.5 22.5t-23.5 54.5q0 16 6.5 29.5t17 24t25 16.5t30.5 6t30.5 -6t25 -16.5t17 -24t6.5 -29.5q0 -32 -23.5 -54.5t-55.5 -22.5z" />
    <glyph glyph-name="eth" unicode="&#xf0;" 
d="M300 96q21 0 41 6.5t36 23.5t26 48t10 81q0 49 -10 80.5t-26 48.5t-36 23.5t-41 6.5t-41 -6.5t-35.5 -23.5t-25.5 -48.5t-10 -80.5q0 -50 10 -81t25.5 -48t35.5 -23.5t41 -6.5zM42 255q0 84 25 136t64 81t85.5 39t89.5 10q8 0 14 -2h1q-8 11 -17.5 22t-19.5 22l-94 -37
q-8 -3 -11.5 -3.5t-5.5 -0.5q-18 0 -29 12.5t-11 27.5q0 11 6 21t20 15l67 27q-9 15 -9 35q0 26 17.5 43t45.5 17q23 0 43.5 -11t39.5 -28l68 27q5 2 10.5 3t7.5 1q18 0 29 -12.5t11 -28.5q0 -11 -6 -21t-20 -15l-42 -17q29 -38 54 -81t43.5 -89t29 -94.5t10.5 -98.5
q0 -82 -24.5 -135t-62.5 -83.5t-83.5 -42.5t-87.5 -12t-88 12t-83.5 42.5t-62 83.5t-24.5 135z" />
    <glyph glyph-name="ntilde" unicode="&#xf1;" horiz-adv-x="623" 
d="M84 311q0 22 -6 42t-13 38t-13 34.5t-6 30.5q0 30 20.5 47t46.5 17q13 0 26 -4.5t25 -16.5q8 -8 15 -20t15 -27q10 13 26 26.5t37 24.5t47 18t58 7q33 0 67 -6.5t62 -26.5t46 -57.5t18 -100.5v-278q0 -19 -6.5 -32t-16.5 -21.5t-22.5 -12t-25.5 -3.5q-26 0 -48 15.5
t-22 53.5v278q0 25 -7.5 40t-18.5 23.5t-24 11.5t-24 3q-24 0 -42.5 -5.5t-33 -14.5t-24.5 -19.5t-17 -19.5q1 -8 1 -15.5v-9.5v-272q0 -37 -22.5 -53t-48.5 -16t-47.5 16t-21.5 53v252zM158 614q-21 0 -34.5 15t-13.5 35t15 35q19 19 52.5 30.5t61.5 11.5q25 0 43.5 -4.5
t34.5 -10t32 -9.5t36 -4q21 0 42 10q10 5 18.5 9t22.5 4q21 0 34.5 -15t13.5 -35t-15 -35q-19 -19 -52.5 -30.5t-61.5 -11.5q-25 0 -43 4.5t-34 9.5t-32 9.5t-37 4.5t-42 -10q-10 -5 -18.5 -9t-22.5 -4z" />
    <glyph glyph-name="ograve" unicode="&#xf2;" 
d="M300 96q21 0 41 6.5t36 23.5t26 48t10 81q0 49 -10 80.5t-26 48.5t-36 23.5t-41 6.5t-41 -6.5t-35.5 -23.5t-25.5 -48.5t-10 -80.5q0 -50 10 -81t25.5 -48t35.5 -23.5t41 -6.5zM42 255q0 82 24.5 134.5t62.5 83.5t83.5 43t87.5 12t88 -12t83.5 -43t62 -83.5t24.5 -134.5
t-24.5 -135t-62.5 -83.5t-83.5 -42.5t-87.5 -12t-88 12t-83.5 42.5t-62 83.5t-24.5 135zM170 643q-22 8 -32 26t-10 36q0 29 17 45t43 16q18 0 35 -9l137 -73q14 -8 22.5 -21.5t8.5 -28.5q0 -22 -15 -36.5t-35 -14.5q-11 0 -22 4z" />
    <glyph glyph-name="oacute" unicode="&#xf3;" 
d="M300 96q21 0 41 6.5t36 23.5t26 48t10 81q0 49 -10 80.5t-26 48.5t-36 23.5t-41 6.5t-41 -6.5t-35.5 -23.5t-25.5 -48.5t-10 -80.5q0 -50 10 -81t25.5 -48t35.5 -23.5t41 -6.5zM42 255q0 82 24.5 134.5t62.5 83.5t83.5 43t87.5 12t88 -12t83.5 -43t62 -83.5t24.5 -134.5
t-24.5 -135t-62.5 -83.5t-83.5 -42.5t-87.5 -12t-88 12t-83.5 42.5t-62 83.5t-24.5 135zM259 583q-20 0 -35 14.5t-15 36.5q0 15 8.5 28.5t22.5 21.5l137 73q16 9 35 9q26 0 43 -16t17 -45q0 -18 -10 -36t-32 -26l-149 -56q-11 -4 -22 -4z" />
    <glyph glyph-name="ocircumflex" unicode="&#xf4;" 
d="M300 96q21 0 41 6.5t36 23.5t26 48t10 81q0 49 -10 80.5t-26 48.5t-36 23.5t-41 6.5t-41 -6.5t-35.5 -23.5t-25.5 -48.5t-10 -80.5q0 -50 10 -81t25.5 -48t35.5 -23.5t41 -6.5zM42 255q0 82 24.5 134.5t62.5 83.5t83.5 43t87.5 12t88 -12t83.5 -43t62 -83.5t24.5 -134.5
t-24.5 -135t-62.5 -83.5t-83.5 -42.5t-87.5 -12t-88 12t-83.5 42.5t-62 83.5t-24.5 135zM172 583q-19 0 -34.5 13.5t-15.5 35.5q0 14 7.5 26.5t19.5 20.5l116 76q7 5 16 8t20 3t20 -3t16 -8l116 -76q12 -8 19.5 -20.5t7.5 -26.5q0 -22 -15.5 -35.5t-34.5 -13.5q-5 0 -11 1
t-14 5l-104 54l-104 -54q-8 -4 -14 -5t-11 -1z" />
    <glyph glyph-name="otilde" unicode="&#xf5;" 
d="M300 96q21 0 41 6.5t36 23.5t26 48t10 81q0 49 -10 80.5t-26 48.5t-36 23.5t-41 6.5t-41 -6.5t-35.5 -23.5t-25.5 -48.5t-10 -80.5q0 -50 10 -81t25.5 -48t35.5 -23.5t41 -6.5zM42 255q0 82 24.5 134.5t62.5 83.5t83.5 43t87.5 12t88 -12t83.5 -43t62 -83.5t24.5 -134.5
t-24.5 -135t-62.5 -83.5t-83.5 -42.5t-87.5 -12t-88 12t-83.5 42.5t-62 83.5t-24.5 135zM147 614q-21 0 -34.5 15t-13.5 35t15 35q19 19 52.5 30.5t61.5 11.5q25 0 43.5 -4.5t34.5 -10t32 -9.5t36 -4q21 0 42 10q10 5 18.5 9t22.5 4q21 0 34.5 -15t13.5 -35t-15 -35
q-19 -19 -52.5 -30.5t-61.5 -11.5q-25 0 -43 4.5t-34 9.5t-32 9.5t-37 4.5t-42 -10q-10 -5 -18.5 -9t-22.5 -4z" />
    <glyph glyph-name="odieresis" unicode="&#xf6;" 
d="M300 96q21 0 41 6.5t36 23.5t26 48t10 81q0 49 -10 80.5t-26 48.5t-36 23.5t-41 6.5t-41 -6.5t-35.5 -23.5t-25.5 -48.5t-10 -80.5q0 -50 10 -81t25.5 -48t35.5 -23.5t41 -6.5zM42 255q0 82 24.5 134.5t62.5 83.5t83.5 43t87.5 12t88 -12t83.5 -43t62 -83.5t24.5 -134.5
t-24.5 -135t-62.5 -83.5t-83.5 -42.5t-87.5 -12t-88 12t-83.5 42.5t-62 83.5t-24.5 135zM196 598q-32 0 -55.5 22.5t-23.5 54.5q0 16 6.5 29.5t17 24t25 16.5t30.5 6t30.5 -6t25 -16.5t17 -24t6.5 -29.5q0 -32 -23.5 -54.5t-55.5 -22.5zM406 598q-32 0 -55.5 22.5
t-23.5 54.5q0 16 6.5 29.5t17 24t25 16.5t30.5 6t30.5 -6t25 -16.5t17 -24t6.5 -29.5q0 -32 -23.5 -54.5t-55.5 -22.5z" />
    <glyph glyph-name="divide" unicode="&#xf7;" horiz-adv-x="666" 
d="M255 108q0 16 6.5 29.5t17 24t25 16.5t30.5 6t30.5 -6t25 -16.5t17 -24t6.5 -29.5q0 -32 -23.5 -54.5t-55.5 -22.5t-55.5 22.5t-23.5 54.5zM140 222q-27 0 -40.5 17.5t-13.5 39.5q0 21 13.5 39t40.5 18h386q26 0 40 -18t14 -39q0 -22 -14 -39.5t-40 -17.5h-386zM334 374
q-32 0 -55.5 22.5t-23.5 54.5q0 16 6.5 29.5t17 24t25 16.5t30.5 6t30.5 -6t25 -16.5t17 -24t6.5 -29.5q0 -32 -23.5 -54.5t-55.5 -22.5z" />
    <glyph glyph-name="oslash" unicode="&#xf8;" 
d="M413 255q0 33 -5 58t-13 42l-91 -259q20 0 39.5 7t35 24.5t25 48.5t9.5 79zM188 255q0 -38 5.5 -65.5t16.5 -45.5l95 270h-5q-21 0 -41 -6.5t-35.5 -23.5t-25.5 -48.5t-10 -80.5zM42 255q0 82 24.5 134.5t62.5 83.5t83.5 43t87.5 12q21 0 44 -3l8 23q6 17 19 26.5t32 9.5
q12 0 23 -6.5t18 -16.5t9 -22.5t-2 -25.5l-8 -21q49 -28 82 -84.5t33 -152.5q0 -82 -24.5 -135t-62.5 -83.5t-83.5 -42.5t-87.5 -12q-9 0 -17.5 0.5t-17.5 1.5l-7 -20q-6 -18 -18.5 -27.5t-27.5 -9.5q-13 0 -25.5 5t-20.5 14t-11 21.5t3 28.5l6 17q-26 13 -48 34t-38.5 50.5
t-26 68.5t-9.5 89z" />
    <glyph glyph-name="ugrave" unicode="&#xf9;" horiz-adv-x="623" 
d="M68 451q0 37 22.5 53t48.5 16t48 -15.5t22 -53.5v-278q0 -25 7.5 -40t18.5 -23.5t24 -11.5t24 -3q24 0 42.5 5.5t33 14.5t24.5 19.5t17 19.5q-1 8 -1 15.5v9.5v272q0 37 22.5 53t48.5 16t47.5 -16t21.5 -53v-252q0 -22 6 -42t13 -38t13 -34.5t6 -30.5q0 -30 -20.5 -47
t-46.5 -17q-13 0 -26 4.5t-25 16.5q-8 8 -15 20t-15 27q-10 -13 -25.5 -26.5t-36.5 -24.5t-47.5 -18t-57.5 -7q-33 0 -67 6.5t-62.5 26.5t-46.5 57.5t-18 100.5v278zM173 643q-22 8 -32 26t-10 36q0 29 17 45t43 16q18 0 35 -9l137 -73q14 -8 22.5 -21.5t8.5 -28.5
q0 -22 -15 -36.5t-35 -14.5q-11 0 -22 4z" />
    <glyph glyph-name="uacute" unicode="&#xfa;" horiz-adv-x="623" 
d="M68 451q0 37 22.5 53t48.5 16t48 -15.5t22 -53.5v-278q0 -25 7.5 -40t18.5 -23.5t24 -11.5t24 -3q24 0 42.5 5.5t33 14.5t24.5 19.5t17 19.5q-1 8 -1 15.5v9.5v272q0 37 22.5 53t48.5 16t47.5 -16t21.5 -53v-252q0 -22 6 -42t13 -38t13 -34.5t6 -30.5q0 -30 -20.5 -47
t-46.5 -17q-13 0 -26 4.5t-25 16.5q-8 8 -15 20t-15 27q-10 -13 -25.5 -26.5t-36.5 -24.5t-47.5 -18t-57.5 -7q-33 0 -67 6.5t-62.5 26.5t-46.5 57.5t-18 100.5v278zM277 583q-20 0 -35 14.5t-15 36.5q0 15 8.5 28.5t22.5 21.5l137 73q16 9 35 9q26 0 43 -16t17 -45
q0 -18 -10 -36t-32 -26l-149 -56q-11 -4 -22 -4z" />
    <glyph glyph-name="ucircumflex" unicode="&#xfb;" horiz-adv-x="623" 
d="M68 451q0 37 22.5 53t48.5 16t48 -15.5t22 -53.5v-278q0 -25 7.5 -40t18.5 -23.5t24 -11.5t24 -3q24 0 42.5 5.5t33 14.5t24.5 19.5t17 19.5q-1 8 -1 15.5v9.5v272q0 37 22.5 53t48.5 16t47.5 -16t21.5 -53v-252q0 -22 6 -42t13 -38t13 -34.5t6 -30.5q0 -30 -20.5 -47
t-46.5 -17q-13 0 -26 4.5t-25 16.5q-8 8 -15 20t-15 27q-10 -13 -25.5 -26.5t-36.5 -24.5t-47.5 -18t-57.5 -7q-33 0 -67 6.5t-62.5 26.5t-46.5 57.5t-18 100.5v278zM174 583q-19 0 -34.5 13.5t-15.5 35.5q0 14 7.5 26.5t19.5 20.5l116 76q7 5 16 8t20 3t20 -3t16 -8
l116 -76q12 -8 19.5 -20.5t7.5 -26.5q0 -22 -15.5 -35.5t-34.5 -13.5q-5 0 -11 1t-14 5l-104 54l-104 -54q-8 -4 -14 -5t-11 -1z" />
    <glyph glyph-name="udieresis" unicode="&#xfc;" horiz-adv-x="623" 
d="M68 451q0 37 22.5 53t48.5 16t48 -15.5t22 -53.5v-278q0 -25 7.5 -40t18.5 -23.5t24 -11.5t24 -3q24 0 42.5 5.5t33 14.5t24.5 19.5t17 19.5q-1 8 -1 15.5v9.5v272q0 37 22.5 53t48.5 16t47.5 -16t21.5 -53v-252q0 -22 6 -42t13 -38t13 -34.5t6 -30.5q0 -30 -20.5 -47
t-46.5 -17q-13 0 -26 4.5t-25 16.5q-8 8 -15 20t-15 27q-10 -13 -25.5 -26.5t-36.5 -24.5t-47.5 -18t-57.5 -7q-33 0 -67 6.5t-62.5 26.5t-46.5 57.5t-18 100.5v278zM199 598q-32 0 -55.5 22.5t-23.5 54.5q0 16 6.5 29.5t17 24t25 16.5t30.5 6t30.5 -6t25 -16.5t17 -24
t6.5 -29.5q0 -32 -23.5 -54.5t-55.5 -22.5zM409 598q-32 0 -55.5 22.5t-23.5 54.5q0 16 6.5 29.5t17 24t25 16.5t30.5 6t30.5 -6t25 -16.5t17 -24t6.5 -29.5q0 -32 -23.5 -54.5t-55.5 -22.5z" />
    <glyph glyph-name="yacute" unicode="&#xfd;" horiz-adv-x="546" 
d="M37 -101q4 4 11.5 10t16.5 12t18 12.5t16 11.5q12 9 23 17.5t22 18.5t22 23t25 31q-30 37 -59 92.5t-51.5 114.5t-36 115.5t-13.5 96.5q0 27 16 46.5t51 19.5q25 0 43.5 -15.5t22.5 -40.5q5 -35 13 -71t21 -75t32.5 -81.5t46.5 -88.5h2q27 46 45 88.5t29.5 81.5t18.5 75
t12 71q4 25 23 40.5t42 15.5q32 0 49 -19.5t17 -46.5q0 -32 -8.5 -74t-23.5 -88.5t-35 -93.5t-43 -88q-39 -69 -83.5 -123.5t-97.5 -107.5q-14 -14 -31.5 -29.5t-37 -28.5t-39 -21.5t-38.5 -8.5q-25 0 -42.5 16.5t-17.5 47.5q0 11 5 23t14 21zM229 583q-20 0 -35 14.5
t-15 36.5q0 15 8.5 28.5t22.5 21.5l137 73q16 9 35 9q26 0 43 -16t17 -45q0 -18 -10 -36t-32 -26l-149 -56q-11 -4 -22 -4z" />
    <glyph glyph-name="thorn" unicode="&#xfe;" horiz-adv-x="626" 
d="M214 144q19 -24 48 -37t61 -13q21 0 42 8.5t37 27.5t26 50t10 77t-8.5 76.5t-23.5 49t-35 26.5t-43 8q-32 0 -64 -17.5t-50 -46.5v-209zM72 650q0 38 22 54t48 16q13 0 26 -4t23 -12.5t16.5 -21.5t6.5 -32v-170q23 21 56.5 35t77.5 14q45 0 87.5 -13.5t75.5 -45t53 -83.5
t20 -130t-22 -130.5t-56.5 -84.5t-77 -45.5t-82.5 -13.5q-38 0 -71 11t-61 34v-168q0 -19 -6.5 -32t-16.5 -21.5t-23 -12.5t-26 -4q-26 0 -48 16t-22 54v790z" />
    <glyph glyph-name="ydieresis" unicode="&#xff;" horiz-adv-x="546" 
d="M37 -101q4 4 11.5 10t16.5 12t18 12.5t16 11.5q12 9 23 17.5t22 18.5t22 23t25 31q-30 37 -59 92.5t-51.5 114.5t-36 115.5t-13.5 96.5q0 27 16 46.5t51 19.5q25 0 43.5 -15.5t22.5 -40.5q5 -35 13 -71t21 -75t32.5 -81.5t46.5 -88.5h2q27 46 45 88.5t29.5 81.5t18.5 75
t12 71q4 25 23 40.5t42 15.5q32 0 49 -19.5t17 -46.5q0 -32 -8.5 -74t-23.5 -88.5t-35 -93.5t-43 -88q-39 -69 -83.5 -123.5t-97.5 -107.5q-14 -14 -31.5 -29.5t-37 -28.5t-39 -21.5t-38.5 -8.5q-25 0 -42.5 16.5t-17.5 47.5q0 11 5 23t14 21zM170 598q-32 0 -55.5 22.5
t-23.5 54.5q0 16 6.5 29.5t17 24t25 16.5t30.5 6t30.5 -6t25 -16.5t17 -24t6.5 -29.5q0 -32 -23.5 -54.5t-55.5 -22.5zM380 598q-32 0 -55.5 22.5t-23.5 54.5q0 16 6.5 29.5t17 24t25 16.5t30.5 6t30.5 -6t25 -16.5t17 -24t6.5 -29.5q0 -32 -23.5 -54.5t-55.5 -22.5z" />
    <glyph glyph-name="Amacron" unicode="&#x100;" horiz-adv-x="671" 
d="M437 277q-11 46 -31.5 98.5t-48.5 106.5q-13 26 -22 47h-1q-5 -11 -10 -22.5t-12 -24.5q-28 -54 -48.5 -106.5t-31.5 -98.5h205zM46 63q0 33 9 82t25.5 106t38.5 118t48.5 117.5t56 104t60.5 78.5q21 21 51.5 21t51.5 -21q31 -31 60.5 -78.5t56 -104t48.5 -117
t38.5 -117.5t25.5 -106t9 -82q0 -42 -20.5 -59t-49.5 -17q-30 0 -47 18t-22 49q-3 20 -7.5 46t-12.5 58h-263q-8 -32 -12.5 -58t-7.5 -46q-5 -31 -22 -49t-47 -18q-29 0 -48.5 16.5t-19.5 58.5zM205 785q-22 0 -37 15.5t-15 37.5t15 37t37 15h262q22 0 37.5 -15t15.5 -37
t-15.5 -37.5t-37.5 -15.5h-262z" />
    <glyph glyph-name="amacron" unicode="&#x101;" horiz-adv-x="568" 
d="M181 152q0 -34 20.5 -47.5t54.5 -13.5q35 0 58.5 10t37.5 18q-3 16 -4 31t-1 33v39q-10 1 -16.5 1h-11.5q-23 0 -47.5 -2t-44.5 -9.5t-33 -21.5t-13 -38zM39 144q0 52 24.5 86t63 53.5t86 27t94.5 7.5h14t26 -1v46q0 27 -18.5 38.5t-55.5 11.5q-40 0 -65.5 -8t-39.5 -14
q-7 -3 -18 -6t-22 -3q-26 0 -40 16.5t-14 36.5q0 26 17 43q13 13 34 22.5t45.5 15.5t51 9t51.5 3q46 0 85 -9t67 -28.5t43.5 -50t15.5 -73.5v-189q0 -28 2.5 -43t8.5 -23q12 -13 24.5 -18t25.5 -19q13 -13 13 -36q0 -19 -13.5 -35.5t-45.5 -16.5q-35 0 -60 14.5t-45 34.5
q-9 -9 -24.5 -18.5t-35 -17.5t-43.5 -13t-49 -5q-39 0 -76 9.5t-65 29.5t-45 50.5t-17 72.5zM154 623q-22 0 -37 15.5t-15 37.5t15 37t37 15h262q22 0 37.5 -15t15.5 -37t-15.5 -37.5t-37.5 -15.5h-262z" />
    <glyph glyph-name="Abreve" unicode="&#x102;" horiz-adv-x="671" 
d="M437 277q-11 46 -31.5 98.5t-48.5 106.5q-13 26 -22 47h-1q-5 -11 -10 -22.5t-12 -24.5q-28 -54 -48.5 -106.5t-31.5 -98.5h205zM46 63q0 33 9 82t25.5 106t38.5 118t48.5 117.5t56 104t60.5 78.5q21 21 51.5 21t51.5 -21q31 -31 60.5 -78.5t56 -104t48.5 -117
t38.5 -117.5t25.5 -106t9 -82q0 -42 -20.5 -59t-49.5 -17q-30 0 -47 18t-22 49q-3 20 -7.5 46t-12.5 58h-263q-8 -32 -12.5 -58t-7.5 -46q-5 -31 -22 -49t-47 -18q-29 0 -48.5 16.5t-19.5 58.5zM187 812q-17 17 -24.5 34t-7.5 29q0 25 14.5 37.5t34.5 12.5q19 0 30 -8
t23 -20q14 -14 31.5 -26.5t47.5 -12.5t47.5 12.5t31.5 26.5q12 12 23 20t30 8q20 0 34.5 -12.5t14.5 -37.5q0 -12 -7.5 -29t-24.5 -34q-21 -20 -57 -35.5t-92 -15.5t-92 15.5t-57 35.5z" />
    <glyph glyph-name="abreve" unicode="&#x103;" horiz-adv-x="568" 
d="M181 152q0 -34 20.5 -47.5t54.5 -13.5q35 0 58.5 10t37.5 18q-3 16 -4 31t-1 33v39q-10 1 -16.5 1h-11.5q-23 0 -47.5 -2t-44.5 -9.5t-33 -21.5t-13 -38zM39 144q0 52 24.5 86t63 53.5t86 27t94.5 7.5h14t26 -1v46q0 27 -18.5 38.5t-55.5 11.5q-40 0 -65.5 -8t-39.5 -14
q-7 -3 -18 -6t-22 -3q-26 0 -40 16.5t-14 36.5q0 26 17 43q13 13 34 22.5t45.5 15.5t51 9t51.5 3q46 0 85 -9t67 -28.5t43.5 -50t15.5 -73.5v-189q0 -28 2.5 -43t8.5 -23q12 -13 24.5 -18t25.5 -19q13 -13 13 -36q0 -19 -13.5 -35.5t-45.5 -16.5q-35 0 -60 14.5t-45 34.5
q-9 -9 -24.5 -18.5t-35 -17.5t-43.5 -13t-49 -5q-39 0 -76 9.5t-65 29.5t-45 50.5t-17 72.5zM136 644q-17 17 -24.5 34t-7.5 29q0 25 14.5 37.5t34.5 12.5q19 0 30 -8t23 -20q14 -14 31.5 -26.5t47.5 -12.5t47.5 12.5t31.5 26.5q12 12 23 20t30 8q20 0 34.5 -12.5
t14.5 -37.5q0 -12 -7.5 -29t-24.5 -34q-21 -20 -57 -35.5t-92 -15.5t-92 15.5t-57 35.5z" />
    <glyph glyph-name="Aogonek" unicode="&#x104;" horiz-adv-x="671" 
d="M437 277q-11 46 -31.5 98.5t-48.5 106.5q-13 26 -22 47h-1q-5 -11 -10 -22.5t-12 -24.5q-28 -54 -48.5 -106.5t-31.5 -98.5h205zM449 -101q0 29 14.5 56.5t46.5 48.5q-19 16 -24 51q-3 20 -7.5 46t-12.5 58h-263q-8 -32 -12.5 -58t-7.5 -46q-5 -31 -22 -49t-47 -18
q-29 0 -48.5 16.5t-19.5 58.5q0 33 9 82t25.5 106t38.5 118t48.5 117.5t56 104t60.5 78.5q21 21 51.5 21t51.5 -21q31 -31 60.5 -78.5t56 -104t48.5 -117t38.5 -117.5t25.5 -106t9 -82q0 -23 -5.5 -37.5t-16.5 -23.5l-19 -17q-17 -17 -25 -35.5t-8 -30.5q0 -14 8 -18t18 -4
t18.5 2.5t16.5 5.5q7 2 14 4.5t15 2.5q17 0 28.5 -10t11.5 -28q0 -17 -13 -30q-9 -9 -23 -15.5t-28 -10t-27 -5t-22 -1.5q-57 0 -88 24.5t-31 61.5z" />
    <glyph glyph-name="aogonek" unicode="&#x105;" horiz-adv-x="568" 
d="M181 152q0 -34 20.5 -47.5t54.5 -13.5q35 0 58.5 10t37.5 18q-3 16 -4 31t-1 33v39q-10 1 -16.5 1h-11.5q-23 0 -47.5 -2t-44.5 -9.5t-33 -21.5t-13 -38zM39 144q0 52 24.5 86t63 53.5t86 27t94.5 7.5h14t26 -1v46q0 27 -18.5 38.5t-55.5 11.5q-40 0 -65.5 -8t-39.5 -14
q-7 -3 -18 -6t-22 -3q-26 0 -40 16.5t-14 36.5q0 26 17 43q13 13 34 22.5t45.5 15.5t51 9t51.5 3q46 0 85 -9t67 -28.5t43.5 -50t15.5 -73.5v-189q0 -28 2.5 -43t8.5 -23q12 -13 24.5 -18t25.5 -19q13 -13 13 -36q0 -19 -14 -36l-15 -17q-15 -17 -24.5 -35.5t-9.5 -30.5
q0 -14 8 -18t18 -4t18.5 2.5t16.5 5.5q7 2 14 4.5t15 2.5q17 0 28.5 -10t11.5 -28q0 -17 -13 -30q-9 -9 -23 -15.5t-28 -10t-27 -5t-22 -1.5q-57 0 -88 24.5t-31 61.5q0 27 13 52.5t40 46.5q-16 7 -28.5 17t-23.5 21q-9 -9 -24.5 -18.5t-35 -17.5t-43.5 -13t-49 -5
q-39 0 -76 9.5t-65 29.5t-45 50.5t-17 72.5z" />
    <glyph glyph-name="Cacute" unicode="&#x106;" horiz-adv-x="647" 
d="M53 334q0 102 29.5 171.5t77 112t106 61.5t116.5 19q39 0 76.5 -9.5t67 -27.5t47 -44t17.5 -59q0 -18 -6 -31t-15.5 -21.5t-21 -12.5t-21.5 -4q-25 0 -38.5 8.5t-24.5 19.5q-9 9 -17 19t-18.5 19t-24.5 14.5t-35 5.5q-29 0 -58.5 -12.5t-53.5 -41t-39 -74.5t-15 -113
q0 -66 18 -109t46 -68.5t62 -35.5t66 -10q41 0 71.5 12t53.5 23q24 11 41 11q27 0 42 -18t15 -38q0 -17 -5.5 -29.5t-18.5 -25.5q-15 -15 -38.5 -27t-50.5 -20t-55 -12.5t-51 -4.5q-70 0 -132.5 19t-110 61t-75 109t-27.5 163zM299 751q-20 0 -35 14.5t-15 36.5
q0 15 8.5 28.5t22.5 21.5l137 73q16 9 35 9q26 0 43 -16t17 -45q0 -18 -10 -36t-32 -26l-149 -56q-11 -4 -22 -4z" />
    <glyph glyph-name="cacute" unicode="&#x107;" horiz-adv-x="525" 
d="M42 252q0 77 25 130t62.5 85.5t82.5 46.5t84 14q31 0 63.5 -7t59.5 -22.5t44 -39.5t17 -58q0 -29 -17 -47t-47 -18q-17 0 -27.5 6t-17.5 13q-8 8 -14 18t-13.5 19t-19.5 15t-32 6q-17 0 -35.5 -9t-33.5 -28t-25 -50t-10 -74t12.5 -72t32.5 -47t45 -26t49 -8q25 0 44 6
t36 15q25 14 45 14q24 0 37.5 -14.5t13.5 -39.5q0 -26 -20.5 -44.5t-50 -30.5t-61.5 -17.5t-55 -5.5q-47 0 -96 13t-88.5 44.5t-64.5 83.5t-25 129zM235 583q-20 0 -35 14.5t-15 36.5q0 15 8.5 28.5t22.5 21.5l137 73q16 9 35 9q26 0 43 -16t17 -45q0 -18 -10 -36t-32 -26
l-149 -56q-11 -4 -22 -4z" />
    <glyph glyph-name="Ccircumflex" unicode="&#x108;" horiz-adv-x="647" 
d="M53 334q0 102 29.5 171.5t77 112t106 61.5t116.5 19q39 0 76.5 -9.5t67 -27.5t47 -44t17.5 -59q0 -18 -6 -31t-15.5 -21.5t-21 -12.5t-21.5 -4q-25 0 -38.5 8.5t-24.5 19.5q-9 9 -17 19t-18.5 19t-24.5 14.5t-35 5.5q-29 0 -58.5 -12.5t-53.5 -41t-39 -74.5t-15 -113
q0 -66 18 -109t46 -68.5t62 -35.5t66 -10q41 0 71.5 12t53.5 23q24 11 41 11q27 0 42 -18t15 -38q0 -17 -5.5 -29.5t-18.5 -25.5q-15 -15 -38.5 -27t-50.5 -20t-55 -12.5t-51 -4.5q-70 0 -132.5 19t-110 61t-75 109t-27.5 163zM219 751q-19 0 -34.5 13.5t-15.5 35.5
q0 14 7.5 26.5t19.5 20.5l116 76q7 5 16 8t20 3t20 -3t16 -8l116 -76q12 -8 19.5 -20.5t7.5 -26.5q0 -22 -15.5 -35.5t-34.5 -13.5q-5 0 -11 1t-14 5l-104 54l-104 -54q-8 -4 -14 -5t-11 -1z" />
    <glyph glyph-name="ccircumflex" unicode="&#x109;" horiz-adv-x="525" 
d="M42 252q0 77 25 130t62.5 85.5t82.5 46.5t84 14q31 0 63.5 -7t59.5 -22.5t44 -39.5t17 -58q0 -29 -17 -47t-47 -18q-17 0 -27.5 6t-17.5 13q-8 8 -14 18t-13.5 19t-19.5 15t-32 6q-17 0 -35.5 -9t-33.5 -28t-25 -50t-10 -74t12.5 -72t32.5 -47t45 -26t49 -8q25 0 44 6
t36 15q25 14 45 14q24 0 37.5 -14.5t13.5 -39.5q0 -26 -20.5 -44.5t-50 -30.5t-61.5 -17.5t-55 -5.5q-47 0 -96 13t-88.5 44.5t-64.5 83.5t-25 129zM146 583q-19 0 -34.5 13.5t-15.5 35.5q0 14 7.5 26.5t19.5 20.5l116 76q7 5 16 8t20 3t20 -3t16 -8l116 -76
q12 -8 19.5 -20.5t7.5 -26.5q0 -22 -15.5 -35.5t-34.5 -13.5q-5 0 -11 1t-14 5l-104 54l-104 -54q-8 -4 -14 -5t-11 -1z" />
    <glyph glyph-name="Cdotaccent" unicode="&#x10a;" horiz-adv-x="647" 
d="M53 334q0 102 29.5 171.5t77 112t106 61.5t116.5 19q39 0 76.5 -9.5t67 -27.5t47 -44t17.5 -59q0 -18 -6 -31t-15.5 -21.5t-21 -12.5t-21.5 -4q-25 0 -38.5 8.5t-24.5 19.5q-9 9 -17 19t-18.5 19t-24.5 14.5t-35 5.5q-29 0 -58.5 -12.5t-53.5 -41t-39 -74.5t-15 -113
q0 -66 18 -109t46 -68.5t62 -35.5t66 -10q41 0 71.5 12t53.5 23q24 11 41 11q27 0 42 -18t15 -38q0 -17 -5.5 -29.5t-18.5 -25.5q-15 -15 -38.5 -27t-50.5 -20t-55 -12.5t-51 -4.5q-70 0 -132.5 19t-110 61t-75 109t-27.5 163zM348 766q-32 0 -55.5 22.5t-23.5 54.5
q0 16 6.5 29.5t17 24t25 16.5t30.5 6t30.5 -6t25 -16.5t17 -24t6.5 -29.5q0 -32 -23.5 -54.5t-55.5 -22.5z" />
    <glyph glyph-name="cdotaccent" unicode="&#x10b;" horiz-adv-x="525" 
d="M42 252q0 77 25 130t62.5 85.5t82.5 46.5t84 14q31 0 63.5 -7t59.5 -22.5t44 -39.5t17 -58q0 -29 -17 -47t-47 -18q-17 0 -27.5 6t-17.5 13q-8 8 -14 18t-13.5 19t-19.5 15t-32 6q-17 0 -35.5 -9t-33.5 -28t-25 -50t-10 -74t12.5 -72t32.5 -47t45 -26t49 -8q25 0 44 6
t36 15q25 14 45 14q24 0 37.5 -14.5t13.5 -39.5q0 -26 -20.5 -44.5t-50 -30.5t-61.5 -17.5t-55 -5.5q-47 0 -96 13t-88.5 44.5t-64.5 83.5t-25 129zM277 598q-32 0 -55.5 22.5t-23.5 54.5q0 16 6.5 29.5t17 24t25 16.5t30.5 6t30.5 -6t25 -16.5t17 -24t6.5 -29.5
q0 -32 -23.5 -54.5t-55.5 -22.5z" />
    <glyph glyph-name="Ccaron" unicode="&#x10c;" horiz-adv-x="647" 
d="M53 334q0 102 29.5 171.5t77 112t106 61.5t116.5 19q39 0 76.5 -9.5t67 -27.5t47 -44t17.5 -59q0 -18 -6 -31t-15.5 -21.5t-21 -12.5t-21.5 -4q-25 0 -38.5 8.5t-24.5 19.5q-9 9 -17 19t-18.5 19t-24.5 14.5t-35 5.5q-29 0 -58.5 -12.5t-53.5 -41t-39 -74.5t-15 -113
q0 -66 18 -109t46 -68.5t62 -35.5t66 -10q41 0 71.5 12t53.5 23q24 11 41 11q27 0 42 -18t15 -38q0 -17 -5.5 -29.5t-18.5 -25.5q-15 -15 -38.5 -27t-50.5 -20t-55 -12.5t-51 -4.5q-70 0 -132.5 19t-110 61t-75 109t-27.5 163zM195 838q-12 8 -19.5 20.5t-7.5 26.5
q0 22 15.5 35.5t34.5 13.5q5 0 11 -1t14 -5l104 -54l104 54q8 4 14 5t11 1q19 0 34.5 -13.5t15.5 -35.5q0 -14 -7.5 -26.5t-19.5 -20.5l-116 -76q-7 -5 -16 -8t-20 -3t-20 3t-16 8z" />
    <glyph glyph-name="ccaron" unicode="&#x10d;" horiz-adv-x="525" 
d="M42 252q0 77 25 130t62.5 85.5t82.5 46.5t84 14q31 0 63.5 -7t59.5 -22.5t44 -39.5t17 -58q0 -29 -17 -47t-47 -18q-17 0 -27.5 6t-17.5 13q-8 8 -14 18t-13.5 19t-19.5 15t-32 6q-17 0 -35.5 -9t-33.5 -28t-25 -50t-10 -74t12.5 -72t32.5 -47t45 -26t49 -8q25 0 44 6
t36 15q25 14 45 14q24 0 37.5 -14.5t13.5 -39.5q0 -26 -20.5 -44.5t-50 -30.5t-61.5 -17.5t-55 -5.5q-47 0 -96 13t-88.5 44.5t-64.5 83.5t-25 129zM123 671q-12 8 -19.5 20.5t-7.5 26.5q0 22 15.5 35.5t34.5 13.5q5 0 11 -1t14 -5l104 -54l104 54q8 4 14 5t11 1
q19 0 34.5 -13.5t15.5 -35.5q0 -14 -7.5 -26.5t-19.5 -20.5l-116 -76q-7 -5 -16 -8t-20 -3t-20 3t-16 8z" />
    <glyph glyph-name="Dcaron" unicode="&#x10e;" horiz-adv-x="699" 
d="M323 122q42 0 74 9.5t54.5 34t34 67t11.5 107.5t-11.5 107.5t-34 67t-54.5 34t-74 9.5h-104v-436h104zM77 611q0 38 22 53.5t48 15.5h171q69 0 128.5 -16t104 -55t70 -104.5t25.5 -164.5t-25.5 -164.5t-70 -104.5t-104 -55t-128.5 -16h-171q-26 0 -48 16t-22 53v542z
M168 838q-12 8 -19.5 20.5t-7.5 26.5q0 22 15.5 35.5t34.5 13.5q5 0 11 -1t14 -5l104 -54l104 54q8 4 14 5t11 1q19 0 34.5 -13.5t15.5 -35.5q0 -14 -7.5 -26.5t-19.5 -20.5l-116 -76q-7 -5 -16 -8t-20 -3t-20 3t-16 8z" />
    <glyph glyph-name="dcaron" unicode="&#x10f;" horiz-adv-x="749" 
d="M296 94q36 0 66.5 17t47.5 48v206q-18 26 -46 39t-59 13q-22 0 -43 -8.5t-37.5 -27.5t-26.5 -50t-10 -77t8.5 -76.5t23.5 -49t34.5 -26.5t41.5 -8zM42 254q0 78 22 130.5t56.5 84.5t77 45.5t82.5 13.5q76 0 130 -43v166q0 37 22.5 53t48.5 16t47.5 -16t21.5 -53v-452
q0 -22 6 -42t12.5 -38t12.5 -34t6 -31q0 -29 -20 -46.5t-46 -17.5q-13 0 -26 5t-25 17q-16 17 -31 48q-23 -31 -63 -54.5t-98 -23.5q-45 0 -87.5 13.5t-75.5 45t-53 83.5t-20 130zM650 472q-21 0 -35.5 15.5t-14.5 37.5v5.5t1 5.5l26 132q5 25 21 38.5t39 13.5
q16 0 28.5 -7.5t20 -19.5t10 -26.5t-2.5 -29.5l-44 -129q-5 -16 -17.5 -26t-31.5 -10z" />
    <glyph glyph-name="Dcroat" unicode="&#x110;" horiz-adv-x="734" 
d="M358 122q42 0 74 9.5t54.5 34t34 67t11.5 107.5t-11.5 107.5t-34 67t-54.5 34t-74 9.5h-104v-158h119q22 0 36 -15.5t14 -37.5t-14 -37t-36 -15h-119v-173h104zM58 295q-22 0 -36 15t-14 37q0 21 14 37t36 16h54v211q0 38 22 53.5t48 15.5h171q69 0 128.5 -16t104 -55
t70 -104.5t25.5 -164.5t-25.5 -164.5t-70 -104.5t-104 -55t-128.5 -16h-171q-26 0 -48 16t-22 53v226h-54z" />
    <glyph glyph-name="dcroat" unicode="&#x111;" horiz-adv-x="634" 
d="M298 94q33 0 64 17t48 48v206q-19 27 -46.5 39.5t-60.5 12.5q-21 0 -42 -8.5t-37 -27.5t-26 -50t-10 -77t8.5 -76.5t23.5 -49t35 -26.5t43 -8zM290 548q-22 0 -36 15t-14 37q0 21 14 37t36 16h120q1 35 23 51t48 16q25 0 46.5 -16t22.5 -51h55q22 0 36 -15.5t14 -37.5
t-14 -37t-36 -15h-55v-349q0 -22 6 -42t12.5 -38t12.5 -34t6 -31q0 -29 -20 -46.5t-46 -17.5q-13 0 -26 5t-25 17q-16 17 -31 48q-23 -31 -63 -54.5t-98 -23.5q-45 0 -87.5 13.5t-75.5 45t-53 83.5t-20 130t22 130.5t56.5 84.5t77 45.5t82.5 13.5q76 0 130 -43v63h-120z" />
    <glyph glyph-name="Emacron" unicode="&#x112;" horiz-adv-x="574" 
d="M77 576q0 28 9 47.5t24 32t33.5 18.5t38.5 6h284q32 0 46 -20t14 -42q0 -23 -14 -41.5t-46 -18.5h-228q-19 0 -19 -19v-124h228q32 0 46 -18.5t14 -41.5q0 -22 -14 -42t-46 -20h-228v-152q0 -19 19 -19h239q32 0 46 -18.5t14 -41.5q0 -22 -14 -42t-46 -20h-295
q-20 0 -38.5 6t-33.5 18.5t-24 32t-9 47.5v472zM168 785q-22 0 -37 15.5t-15 37.5t15 37t37 15h262q22 0 37.5 -15t15.5 -37t-15.5 -37.5t-37.5 -15.5h-262z" />
    <glyph glyph-name="emacron" unicode="&#x113;" horiz-adv-x="547" 
d="M374 308q-4 60 -25 86.5t-64 26.5t-68 -29t-30 -84h187zM42 251q0 75 20 127.5t53 85.5t75 48.5t86 15.5q50 0 92 -15t72.5 -45.5t47.5 -78.5t17 -114q0 -14 -2 -26.5t-9 -22.5t-20 -15.5t-35 -5.5h-255q4 -32 15.5 -52.5t28 -32.5t36.5 -17t42 -5q25 0 49.5 5t42.5 12
q10 4 22 7.5t22 3.5q25 0 39 -16t14 -36q0 -25 -18 -43q-12 -12 -33 -21t-45 -15.5t-49 -9.5t-44 -3q-53 0 -101 12.5t-84 43.5t-57.5 83t-21.5 130zM145 623q-22 0 -37 15.5t-15 37.5t15 37t37 15h262q22 0 37.5 -15t15.5 -37t-15.5 -37.5t-37.5 -15.5h-262z" />
    <glyph glyph-name="Ebreve" unicode="&#x114;" horiz-adv-x="574" 
d="M77 576q0 28 9 47.5t24 32t33.5 18.5t38.5 6h284q32 0 46 -20t14 -42q0 -23 -14 -41.5t-46 -18.5h-228q-19 0 -19 -19v-124h228q32 0 46 -18.5t14 -41.5q0 -22 -14 -42t-46 -20h-228v-152q0 -19 19 -19h239q32 0 46 -18.5t14 -41.5q0 -22 -14 -42t-46 -20h-295
q-20 0 -38.5 6t-33.5 18.5t-24 32t-9 47.5v472zM151 812q-17 17 -24.5 34t-7.5 29q0 25 14.5 37.5t34.5 12.5q19 0 30 -8t23 -20q14 -14 31.5 -26.5t47.5 -12.5t47.5 12.5t31.5 26.5q12 12 23 20t30 8q20 0 34.5 -12.5t14.5 -37.5q0 -12 -7.5 -29t-24.5 -34
q-21 -20 -57 -35.5t-92 -15.5t-92 15.5t-57 35.5z" />
    <glyph glyph-name="ebreve" unicode="&#x115;" horiz-adv-x="547" 
d="M374 308q-4 60 -25 86.5t-64 26.5t-68 -29t-30 -84h187zM42 251q0 75 20 127.5t53 85.5t75 48.5t86 15.5q50 0 92 -15t72.5 -45.5t47.5 -78.5t17 -114q0 -14 -2 -26.5t-9 -22.5t-20 -15.5t-35 -5.5h-255q4 -32 15.5 -52.5t28 -32.5t36.5 -17t42 -5q25 0 49.5 5t42.5 12
q10 4 22 7.5t22 3.5q25 0 39 -16t14 -36q0 -25 -18 -43q-12 -12 -33 -21t-45 -15.5t-49 -9.5t-44 -3q-53 0 -101 12.5t-84 43.5t-57.5 83t-21.5 130zM127 644q-17 17 -24.5 34t-7.5 29q0 25 14.5 37.5t34.5 12.5q19 0 30 -8t23 -20q14 -14 31.5 -26.5t47.5 -12.5t47.5 12.5
t31.5 26.5q12 12 23 20t30 8q20 0 34.5 -12.5t14.5 -37.5q0 -12 -7.5 -29t-24.5 -34q-21 -20 -57 -35.5t-92 -15.5t-92 15.5t-57 35.5z" />
    <glyph glyph-name="Edotaccent" unicode="&#x116;" horiz-adv-x="574" 
d="M77 576q0 28 9 47.5t24 32t33.5 18.5t38.5 6h284q32 0 46 -20t14 -42q0 -23 -14 -41.5t-46 -18.5h-228q-19 0 -19 -19v-124h228q32 0 46 -18.5t14 -41.5q0 -22 -14 -42t-46 -20h-228v-152q0 -19 19 -19h239q32 0 46 -18.5t14 -41.5q0 -22 -14 -42t-46 -20h-295
q-20 0 -38.5 6t-33.5 18.5t-24 32t-9 47.5v472zM300 766q-32 0 -55.5 22.5t-23.5 54.5q0 16 6.5 29.5t17 24t25 16.5t30.5 6t30.5 -6t25 -16.5t17 -24t6.5 -29.5q0 -32 -23.5 -54.5t-55.5 -22.5z" />
    <glyph glyph-name="edotaccent" unicode="&#x117;" horiz-adv-x="547" 
d="M374 308q-4 60 -25 86.5t-64 26.5t-68 -29t-30 -84h187zM42 251q0 75 20 127.5t53 85.5t75 48.5t86 15.5q50 0 92 -15t72.5 -45.5t47.5 -78.5t17 -114q0 -14 -2 -26.5t-9 -22.5t-20 -15.5t-35 -5.5h-255q4 -32 15.5 -52.5t28 -32.5t36.5 -17t42 -5q25 0 49.5 5t42.5 12
q10 4 22 7.5t22 3.5q25 0 39 -16t14 -36q0 -25 -18 -43q-12 -12 -33 -21t-45 -15.5t-49 -9.5t-44 -3q-53 0 -101 12.5t-84 43.5t-57.5 83t-21.5 130zM285 598q-32 0 -55.5 22.5t-23.5 54.5q0 16 6.5 29.5t17 24t25 16.5t30.5 6t30.5 -6t25 -16.5t17 -24t6.5 -29.5
q0 -32 -23.5 -54.5t-55.5 -22.5z" />
    <glyph glyph-name="Eogonek" unicode="&#x118;" horiz-adv-x="574" 
d="M77 576q0 28 9 47.5t24 32t33.5 18.5t38.5 6h284q32 0 46 -20t14 -42q0 -23 -14 -41.5t-46 -18.5h-228q-19 0 -19 -19v-124h228q32 0 46 -18.5t14 -41.5q0 -22 -14 -42t-46 -20h-228v-152q0 -19 19 -19h239q32 0 46 -18.5t14 -41.5q0 -28 -19 -47q-7 -7 -18.5 -14.5
t-19.5 -15.5q-17 -17 -24 -35t-7 -30q0 -14 8 -18t18 -4t18.5 2.5t16.5 5.5q7 2 14 4.5t15 2.5q17 0 28.5 -10t11.5 -28q0 -17 -13 -30q-9 -9 -23 -15.5t-28 -10t-27 -5t-22 -1.5q-57 0 -88 24.5t-31 61.5q0 28 14 54t42 47h-221q-20 0 -38.5 6t-33.5 18.5t-24 32t-9 47.5
v472z" />
    <glyph glyph-name="eogonek" unicode="&#x119;" horiz-adv-x="547" 
d="M374 308q-4 60 -25 86.5t-64 26.5t-68 -29t-30 -84h187zM42 251q0 75 20 127.5t53 85.5t75 48.5t86 15.5q50 0 92 -15t72.5 -45.5t47.5 -78.5t17 -114q0 -14 -2 -26.5t-9 -22.5t-20 -15.5t-35 -5.5h-255q4 -32 15.5 -52.5t28 -32.5t36.5 -17t42 -5q25 0 49.5 5t42.5 12
q10 4 22 7.5t22 3.5q25 0 39 -16t14 -36q0 -11 -3.5 -21.5t-14.5 -21.5q-10 -10 -21 -18t-23 -20q-14 -14 -25.5 -33.5t-11.5 -39.5q0 -14 8 -18t18 -4t18.5 2.5t16.5 5.5q7 2 14 4.5t15 2.5q17 0 28.5 -10t11.5 -28q0 -17 -13 -30q-9 -9 -23 -15.5t-28 -10t-27 -5t-22 -1.5
q-57 0 -88 24.5t-31 61.5q0 24 9.5 45t25.5 39q-6 0 -12 -0.5t-11 -0.5q-53 0 -101 12.5t-84 43.5t-57.5 83t-21.5 130z" />
    <glyph glyph-name="Ecaron" unicode="&#x11a;" horiz-adv-x="574" 
d="M77 576q0 28 9 47.5t24 32t33.5 18.5t38.5 6h284q32 0 46 -20t14 -42q0 -23 -14 -41.5t-46 -18.5h-228q-19 0 -19 -19v-124h228q32 0 46 -18.5t14 -41.5q0 -22 -14 -42t-46 -20h-228v-152q0 -19 19 -19h239q32 0 46 -18.5t14 -41.5q0 -22 -14 -42t-46 -20h-295
q-20 0 -38.5 6t-33.5 18.5t-24 32t-9 47.5v472zM147 838q-12 8 -19.5 20.5t-7.5 26.5q0 22 15.5 35.5t34.5 13.5q5 0 11 -1t14 -5l104 -54l104 54q8 4 14 5t11 1q19 0 34.5 -13.5t15.5 -35.5q0 -14 -7.5 -26.5t-19.5 -20.5l-116 -76q-7 -5 -16 -8t-20 -3t-20 3t-16 8z" />
    <glyph glyph-name="ecaron" unicode="&#x11b;" horiz-adv-x="547" 
d="M374 308q-4 60 -25 86.5t-64 26.5t-68 -29t-30 -84h187zM42 251q0 75 20 127.5t53 85.5t75 48.5t86 15.5q50 0 92 -15t72.5 -45.5t47.5 -78.5t17 -114q0 -14 -2 -26.5t-9 -22.5t-20 -15.5t-35 -5.5h-255q4 -32 15.5 -52.5t28 -32.5t36.5 -17t42 -5q25 0 49.5 5t42.5 12
q10 4 22 7.5t22 3.5q25 0 39 -16t14 -36q0 -25 -18 -43q-12 -12 -33 -21t-45 -15.5t-49 -9.5t-44 -3q-53 0 -101 12.5t-84 43.5t-57.5 83t-21.5 130zM123 671q-12 8 -19.5 20.5t-7.5 26.5q0 22 15.5 35.5t34.5 13.5q5 0 11 -1t14 -5l104 -54l104 54q8 4 14 5t11 1
q19 0 34.5 -13.5t15.5 -35.5q0 -14 -7.5 -26.5t-19.5 -20.5l-116 -76q-7 -5 -16 -8t-20 -3t-20 3t-16 8z" />
    <glyph glyph-name="Gcircumflex" unicode="&#x11c;" horiz-adv-x="718" 
d="M53 339q0 100 30.5 168.5t79 111t108.5 61t119 18.5q28 0 57 -3.5t55.5 -10.5t49.5 -18t38 -26q11 -11 17.5 -24t6.5 -29q0 -26 -15 -43.5t-43 -17.5q-14 0 -25 4t-22 10q-19 10 -46 19.5t-75 9.5q-34 0 -67 -12t-59.5 -39t-42.5 -71t-16 -108t15.5 -108.5t42 -72.5
t61 -40.5t73.5 -12.5q29 0 64 5.5t61 16.5v134h-102q-32 0 -46 19t-14 42t14 42t46 19h170q38 0 54 -20.5t16 -55.5v-181q0 -25 -2 -39.5t-15 -27.5q-21 -21 -52.5 -35.5t-65.5 -24t-66.5 -13.5t-56.5 -4q-73 0 -136 19t-110 61.5t-74 110.5t-27 166zM239 751
q-19 0 -34.5 13.5t-15.5 35.5q0 14 7.5 26.5t19.5 20.5l116 76q7 5 16 8t20 3t20 -3t16 -8l116 -76q12 -8 19.5 -20.5t7.5 -26.5q0 -22 -15.5 -35.5t-34.5 -13.5q-5 0 -11 1t-14 5l-104 54l-104 -54q-8 -4 -14 -5t-11 -1z" />
    <glyph glyph-name="gcircumflex" unicode="&#x11d;" horiz-adv-x="621" 
d="M300 114q32 0 62 17t47 48v186q-18 27 -45 39.5t-59 12.5q-21 0 -41 -7.5t-36 -25.5t-25.5 -47.5t-9.5 -72.5t8.5 -71.5t23 -46t34 -25t41.5 -7.5zM70 -112q0 25 15.5 41t38.5 16q13 0 25 -4t25 -11q21 -11 47 -21t67 -10q29 0 53.5 8t38.5 22q17 16 23 44t6 63v13h-2
q-23 -20 -54 -33.5t-73 -13.5q-44 0 -86 13t-74.5 43.5t-52.5 80.5t-20 125t22.5 125.5t58 81t78 44t82.5 13.5q38 0 75 -12.5t65 -38.5l1 3q13 40 57 40q24 0 43.5 -15.5t19.5 -53.5v-406q0 -137 -71.5 -200t-197.5 -63q-27 0 -54.5 4t-53 11.5t-47 18t-34.5 24.5
q-21 21 -21 48zM170 583q-19 0 -34.5 13.5t-15.5 35.5q0 14 7.5 26.5t19.5 20.5l116 76q7 5 16 8t20 3t20 -3t16 -8l116 -76q12 -8 19.5 -20.5t7.5 -26.5q0 -22 -15.5 -35.5t-34.5 -13.5q-5 0 -11 1t-14 5l-104 54l-104 -54q-8 -4 -14 -5t-11 -1z" />
    <glyph glyph-name="Gbreve" unicode="&#x11e;" horiz-adv-x="718" 
d="M53 339q0 100 30.5 168.5t79 111t108.5 61t119 18.5q28 0 57 -3.5t55.5 -10.5t49.5 -18t38 -26q11 -11 17.5 -24t6.5 -29q0 -26 -15 -43.5t-43 -17.5q-14 0 -25 4t-22 10q-19 10 -46 19.5t-75 9.5q-34 0 -67 -12t-59.5 -39t-42.5 -71t-16 -108t15.5 -108.5t42 -72.5
t61 -40.5t73.5 -12.5q29 0 64 5.5t61 16.5v134h-102q-32 0 -46 19t-14 42t14 42t46 19h170q38 0 54 -20.5t16 -55.5v-181q0 -25 -2 -39.5t-15 -27.5q-21 -21 -52.5 -35.5t-65.5 -24t-66.5 -13.5t-56.5 -4q-73 0 -136 19t-110 61.5t-74 110.5t-27 166zM218 812
q-17 17 -24.5 34t-7.5 29q0 25 14.5 37.5t34.5 12.5q19 0 30 -8t23 -20q14 -14 31.5 -26.5t47.5 -12.5t47.5 12.5t31.5 26.5q12 12 23 20t30 8q20 0 34.5 -12.5t14.5 -37.5q0 -12 -7.5 -29t-24.5 -34q-21 -20 -57 -35.5t-92 -15.5t-92 15.5t-57 35.5z" />
    <glyph glyph-name="gbreve" unicode="&#x11f;" horiz-adv-x="621" 
d="M300 114q32 0 62 17t47 48v186q-18 27 -45 39.5t-59 12.5q-21 0 -41 -7.5t-36 -25.5t-25.5 -47.5t-9.5 -72.5t8.5 -71.5t23 -46t34 -25t41.5 -7.5zM70 -112q0 25 15.5 41t38.5 16q13 0 25 -4t25 -11q21 -11 47 -21t67 -10q29 0 53.5 8t38.5 22q17 16 23 44t6 63v13h-2
q-23 -20 -54 -33.5t-73 -13.5q-44 0 -86 13t-74.5 43.5t-52.5 80.5t-20 125t22.5 125.5t58 81t78 44t82.5 13.5q38 0 75 -12.5t65 -38.5l1 3q13 40 57 40q24 0 43.5 -15.5t19.5 -53.5v-406q0 -137 -71.5 -200t-197.5 -63q-27 0 -54.5 4t-53 11.5t-47 18t-34.5 24.5
q-21 21 -21 48zM149 644q-17 17 -24.5 34t-7.5 29q0 25 14.5 37.5t34.5 12.5q19 0 30 -8t23 -20q14 -14 31.5 -26.5t47.5 -12.5t47.5 12.5t31.5 26.5q12 12 23 20t30 8q20 0 34.5 -12.5t14.5 -37.5q0 -12 -7.5 -29t-24.5 -34q-21 -20 -57 -35.5t-92 -15.5t-92 15.5t-57 35.5
z" />
    <glyph glyph-name="Gdotaccent" unicode="&#x120;" horiz-adv-x="718" 
d="M53 339q0 100 30.5 168.5t79 111t108.5 61t119 18.5q28 0 57 -3.5t55.5 -10.5t49.5 -18t38 -26q11 -11 17.5 -24t6.5 -29q0 -26 -15 -43.5t-43 -17.5q-14 0 -25 4t-22 10q-19 10 -46 19.5t-75 9.5q-34 0 -67 -12t-59.5 -39t-42.5 -71t-16 -108t15.5 -108.5t42 -72.5
t61 -40.5t73.5 -12.5q29 0 64 5.5t61 16.5v134h-102q-32 0 -46 19t-14 42t14 42t46 19h170q38 0 54 -20.5t16 -55.5v-181q0 -25 -2 -39.5t-15 -27.5q-21 -21 -52.5 -35.5t-65.5 -24t-66.5 -13.5t-56.5 -4q-73 0 -136 19t-110 61.5t-74 110.5t-27 166zM368 766
q-32 0 -55.5 22.5t-23.5 54.5q0 16 6.5 29.5t17 24t25 16.5t30.5 6t30.5 -6t25 -16.5t17 -24t6.5 -29.5q0 -32 -23.5 -54.5t-55.5 -22.5z" />
    <glyph glyph-name="gdotaccent" unicode="&#x121;" horiz-adv-x="621" 
d="M300 114q32 0 62 17t47 48v186q-18 27 -45 39.5t-59 12.5q-21 0 -41 -7.5t-36 -25.5t-25.5 -47.5t-9.5 -72.5t8.5 -71.5t23 -46t34 -25t41.5 -7.5zM70 -112q0 25 15.5 41t38.5 16q13 0 25 -4t25 -11q21 -11 47 -21t67 -10q29 0 53.5 8t38.5 22q17 16 23 44t6 63v13h-2
q-23 -20 -54 -33.5t-73 -13.5q-44 0 -86 13t-74.5 43.5t-52.5 80.5t-20 125t22.5 125.5t58 81t78 44t82.5 13.5q38 0 75 -12.5t65 -38.5l1 3q13 40 57 40q24 0 43.5 -15.5t19.5 -53.5v-406q0 -137 -71.5 -200t-197.5 -63q-27 0 -54.5 4t-53 11.5t-47 18t-34.5 24.5
q-21 21 -21 48zM299 598q-32 0 -55.5 22.5t-23.5 54.5q0 16 6.5 29.5t17 24t25 16.5t30.5 6t30.5 -6t25 -16.5t17 -24t6.5 -29.5q0 -32 -23.5 -54.5t-55.5 -22.5z" />
    <glyph glyph-name="Gcommaaccent" unicode="&#x122;" horiz-adv-x="718" 
d="M319 -100q13 21 28.5 28t32.5 7q25 0 41.5 -18.5t16.5 -44.5t-15 -44l-84 -95q-15 -18 -40 -18q-21 0 -37 14.5t-16 37.5q0 18 11 34zM53 339q0 100 30.5 168.5t79 111t108.5 61t119 18.5q28 0 57 -3.5t55.5 -10.5t49.5 -18t38 -26q11 -11 17.5 -24t6.5 -29
q0 -26 -15 -43.5t-43 -17.5q-14 0 -25 4t-22 10q-19 10 -46 19.5t-75 9.5q-34 0 -67 -12t-59.5 -39t-42.5 -71t-16 -108t15.5 -108.5t42 -72.5t61 -40.5t73.5 -12.5q29 0 64 5.5t61 16.5v134h-102q-32 0 -46 19t-14 42t14 42t46 19h170q38 0 54 -20.5t16 -55.5v-181
q0 -25 -2 -39.5t-15 -27.5q-21 -21 -52.5 -35.5t-65.5 -24t-66.5 -13.5t-56.5 -4q-73 0 -136 19t-110 61.5t-74 110.5t-27 166z" />
    <glyph glyph-name="gcommaaccent" unicode="&#x123;" horiz-adv-x="621" 
d="M300 114q32 0 62 17t47 48v186q-18 27 -45 39.5t-59 12.5q-21 0 -41 -7.5t-36 -25.5t-25.5 -47.5t-9.5 -72.5t8.5 -71.5t23 -46t34 -25t41.5 -7.5zM70 -112q0 25 15.5 41t38.5 16q13 0 25 -4t25 -11q21 -11 47 -21t67 -10q29 0 53.5 8t38.5 22q17 16 23 44t6 63v13h-2
q-23 -20 -54 -33.5t-73 -13.5q-44 0 -86 13t-74.5 43.5t-52.5 80.5t-20 125t22.5 125.5t58 81t78 44t82.5 13.5q38 0 75 -12.5t65 -38.5l1 3q13 40 57 40q24 0 43.5 -15.5t19.5 -53.5v-406q0 -137 -71.5 -200t-197.5 -63q-27 0 -54.5 4t-53 11.5t-47 18t-34.5 24.5
q-21 21 -21 48zM285 591q-21 0 -37 14.5t-16 37.5q0 18 11 34l62 99q13 21 28.5 28t32.5 7q25 0 41.5 -18.5t16.5 -44.5t-15 -44l-84 -95q-15 -18 -40 -18z" />
    <glyph glyph-name="Hcircumflex" unicode="&#x124;" horiz-adv-x="715" 
d="M77 621q0 37 22 53t48 16q13 0 26 -4t23 -12t16.5 -21t6.5 -32v-206h277v206q0 38 22 53.5t48 15.5q13 0 25.5 -4t23 -12t17 -21t6.5 -32v-562q0 -18 -6.5 -31.5t-17 -21.5t-23 -12t-25.5 -4q-26 0 -48 16t-22 53v234h-277v-234q0 -18 -6.5 -31.5t-16.5 -21.5t-23 -12
t-26 -4q-26 0 -48 16t-22 53v562zM229 751q-19 0 -34.5 13.5t-15.5 35.5q0 14 7.5 26.5t19.5 20.5l116 76q7 5 16 8t20 3t20 -3t16 -8l116 -76q12 -8 19.5 -20.5t7.5 -26.5q0 -22 -15.5 -35.5t-34.5 -13.5q-5 0 -11 1t-14 5l-104 54l-104 -54q-8 -4 -14 -5t-11 -1z" />
    <glyph glyph-name="hcircumflex" unicode="&#x125;" horiz-adv-x="611" 
d="M72 651q0 37 21.5 53t47.5 16t48.5 -16t22.5 -53v-178q17 20 52.5 37t87.5 17q30 0 63.5 -6.5t62 -26.5t47 -57.5t18.5 -100.5v-277q0 -38 -22.5 -53.5t-48.5 -15.5t-48 15.5t-22 53.5v278q0 25 -7.5 40t-18.5 23.5t-24 11.5t-24 3q-24 0 -42 -5.5t-32.5 -14.5
t-24.5 -19.5t-17 -19.5v-297q0 -37 -22.5 -53t-48.5 -16t-47.5 16t-21.5 53v592zM14 794q-19 0 -34.5 13.5t-15.5 35.5q0 14 7.5 26.5t19.5 20.5l116 76q7 5 16 8t20 3t20 -3t16 -8l116 -76q12 -8 19.5 -20.5t7.5 -26.5q0 -22 -15.5 -35.5t-34.5 -13.5q-5 0 -11 1t-14 5
l-104 54l-104 -54q-8 -4 -14 -5t-11 -1z" />
    <glyph glyph-name="Hbar" unicode="&#x126;" horiz-adv-x="715" 
d="M496 415v48h-277v-48h277zM77 621q0 37 22 53t48 16q13 0 26 -4t23 -12t16.5 -21t6.5 -32v-53h277v53q0 38 22 53.5t48 15.5q13 0 25.5 -4t23 -12t17 -21t6.5 -32v-562q0 -18 -6.5 -31.5t-17 -21.5t-23 -12t-25.5 -4q-26 0 -48 16t-22 53v234h-277v-234q0 -18 -6.5 -31.5
t-16.5 -21.5t-23 -12t-26 -4q-26 0 -48 16t-22 53v562z" />
    <glyph glyph-name="hbar" unicode="&#x127;" horiz-adv-x="630" 
d="M37 563q-22 0 -36 12t-14 34t14 33t36 11h54q1 35 22 51t47 16t48 -16t23 -51h99q22 0 36 -12t14 -34t-14 -33t-36 -11h-99v-90q17 20 52.5 37t87.5 17q30 0 63.5 -6.5t62 -26.5t47 -57.5t18.5 -100.5v-277q0 -38 -22.5 -53.5t-48.5 -15.5t-48 15.5t-22 53.5v278
q0 25 -7.5 40t-18.5 23.5t-24 11.5t-24 3q-24 0 -42 -5.5t-32.5 -14.5t-24.5 -19.5t-17 -19.5v-297q0 -37 -22.5 -53t-48.5 -16t-47.5 16t-21.5 53v504h-54z" />
    <glyph glyph-name="Itilde" unicode="&#x128;" horiz-adv-x="390" 
d="M56 54q0 21 13 39.5t42 18.5h13v457h-13q-29 0 -42 17t-13 37q0 21 13 39t42 18h169q29 0 41.5 -18t12.5 -39q0 -20 -12.5 -37t-41.5 -17h-14v-457h14q29 0 41.5 -18.5t12.5 -39.5q0 -19 -12.5 -36.5t-41.5 -17.5h-169q-29 0 -42 17.5t-13 36.5zM43 777q-21 0 -34.5 15
t-13.5 35t15 35q19 19 52.5 30.5t61.5 11.5q25 0 43.5 -4.5t34.5 -10t32 -9.5t36 -4q21 0 42 10q10 5 18.5 9t22.5 4q21 0 34.5 -15t13.5 -35t-15 -35q-19 -19 -52.5 -30.5t-61.5 -11.5q-25 0 -43 4.5t-34 9.5t-32 9.5t-37 4.5t-42 -10q-10 -5 -18.5 -9t-22.5 -4z" />
    <glyph glyph-name="itilde" unicode="&#x129;" horiz-adv-x="319" 
d="M99 396h-38q-32 0 -45.5 17t-13.5 40q0 22 13.5 39.5t45.5 17.5h122q31 0 44 -17t13 -38v-396q0 -18 -6.5 -31.5t-16.5 -21.5t-22.5 -12t-25.5 -4q-26 0 -48 16t-22 53v337zM-6 614q-21 0 -34.5 15t-13.5 35t15 35q19 19 52.5 30.5t61.5 11.5q25 0 43.5 -4.5t34.5 -10
t32 -9.5t36 -4q21 0 42 10q10 5 18.5 9t22.5 4q21 0 34.5 -15t13.5 -35t-15 -35q-19 -19 -52.5 -30.5t-61.5 -11.5q-25 0 -43 4.5t-34 9.5t-32 9.5t-37 4.5t-42 -10q-10 -5 -18.5 -9t-22.5 -4z" />
    <glyph glyph-name="Imacron" unicode="&#x12a;" horiz-adv-x="390" 
d="M56 54q0 21 13 39.5t42 18.5h13v457h-13q-29 0 -42 17t-13 37q0 21 13 39t42 18h169q29 0 41.5 -18t12.5 -39q0 -20 -12.5 -37t-41.5 -17h-14v-457h14q29 0 41.5 -18.5t12.5 -39.5q0 -19 -12.5 -36.5t-41.5 -17.5h-169q-29 0 -42 17.5t-13 36.5zM66 785q-22 0 -37 15.5
t-15 37.5t15 37t37 15h262q22 0 37.5 -15t15.5 -37t-15.5 -37.5t-37.5 -15.5h-262z" />
    <glyph glyph-name="imacron" unicode="&#x12b;" horiz-adv-x="319" 
d="M99 396h-38q-32 0 -45.5 17t-13.5 40q0 22 13.5 39.5t45.5 17.5h122q31 0 44 -17t13 -38v-396q0 -18 -6.5 -31.5t-16.5 -21.5t-22.5 -12t-25.5 -4q-26 0 -48 16t-22 53v337zM17 623q-22 0 -37 15.5t-15 37.5t15 37t37 15h262q22 0 37.5 -15t15.5 -37t-15.5 -37.5
t-37.5 -15.5h-262z" />
    <glyph glyph-name="Ibreve" unicode="&#x12c;" horiz-adv-x="390" 
d="M57 54q0 21 13 39.5t42 18.5h13v457h-13q-29 0 -42 17t-13 37q0 21 13 39t42 18h169q29 0 41.5 -18t12.5 -39q0 -20 -12.5 -37t-41.5 -17h-14v-457h14q29 0 41.5 -18.5t12.5 -39.5q0 -19 -12.5 -36.5t-41.5 -17.5h-169q-29 0 -42 17.5t-13 36.5zM49 812q-17 17 -24.5 34
t-7.5 29q0 25 14.5 37.5t34.5 12.5q19 0 30 -8t23 -20q14 -14 31.5 -26.5t47.5 -12.5t47.5 12.5t31.5 26.5q12 12 23 20t30 8q20 0 34.5 -12.5t14.5 -37.5q0 -12 -7.5 -29t-24.5 -34q-21 -20 -57 -35.5t-92 -15.5t-92 15.5t-57 35.5z" />
    <glyph glyph-name="ibreve" unicode="&#x12d;" horiz-adv-x="319" 
d="M99 396h-38q-32 0 -45.5 17t-13.5 40q0 22 13.5 39.5t45.5 17.5h122q31 0 44 -17t13 -38v-396q0 -18 -6.5 -31.5t-16.5 -21.5t-22.5 -12t-25.5 -4q-26 0 -48 16t-22 53v337zM0 644q-17 17 -24.5 34t-7.5 29q0 25 14.5 37.5t34.5 12.5q19 0 30 -8t23 -20
q14 -14 31.5 -26.5t47.5 -12.5t47.5 12.5t31.5 26.5q12 12 23 20t30 8q20 0 34.5 -12.5t14.5 -37.5q0 -12 -7.5 -29t-24.5 -34q-21 -20 -57 -35.5t-92 -15.5t-92 15.5t-57 35.5z" />
    <glyph glyph-name="Iogonek" unicode="&#x12e;" horiz-adv-x="390" 
d="M57 54q0 21 13 39.5t42 18.5h13v457h-13q-29 0 -42 17t-13 37q0 21 13 39t42 18h169q29 0 41.5 -18t12.5 -39q0 -20 -12.5 -37t-41.5 -17h-14v-457h14q29 0 41.5 -18.5t12.5 -39.5q0 -11 -4 -21.5t-12 -18.5q-5 -5 -14 -11.5t-16 -13.5q-19 -19 -28 -37.5t-9 -31.5
q0 -14 8 -18t18 -4t18.5 2.5t16.5 5.5q7 2 14 4.5t15 2.5q17 0 28.5 -10t11.5 -28q0 -17 -13 -30q-9 -9 -23 -15.5t-28 -10t-27 -5t-22 -1.5q-57 0 -88 24.5t-31 61.5q0 28 14 54t42 47h-94q-29 0 -42 17.5t-13 36.5z" />
    <glyph glyph-name="iogonek" unicode="&#x12f;" horiz-adv-x="319" 
d="M100 396h-38q-32 0 -45.5 17t-13.5 40q0 22 13.5 39.5t45.5 17.5h122q31 0 44 -17t13 -38v-396q0 -17 -5.5 -29t-13.5 -20q-5 -5 -12 -10.5t-13 -11.5q-18 -18 -27 -36t-9 -32t8 -18t18 -4t18.5 2.5t16.5 5.5q7 2 14 4.5t15 2.5q17 0 28.5 -10t11.5 -28q0 -17 -13 -30
q-9 -9 -23 -15.5t-28 -10t-27 -5t-22 -1.5q-57 0 -88 24.5t-31 61.5q0 29 15.5 57t47.5 49q-10 8 -16 21.5t-6 32.5v337zM155 585q-19 0 -36 7t-29.5 19t-20 28.5t-7.5 35.5q0 18 7.5 34.5t20 28.5t29.5 19t36 7t36 -7t29.5 -19t20 -28.5t7.5 -34.5q0 -19 -7.5 -35.5
t-20 -28.5t-29.5 -19t-36 -7z" />
    <glyph glyph-name="Idotaccent" unicode="&#x130;" horiz-adv-x="390" 
d="M57 54q0 21 13 39.5t42 18.5h13v457h-13q-29 0 -42 17t-13 37q0 21 13 39t42 18h169q29 0 41.5 -18t12.5 -39q0 -20 -12.5 -37t-41.5 -17h-14v-457h14q29 0 41.5 -18.5t12.5 -39.5q0 -19 -12.5 -36.5t-41.5 -17.5h-169q-29 0 -42 17.5t-13 36.5zM198 766
q-32 0 -55.5 22.5t-23.5 54.5q0 16 6.5 29.5t17 24t25 16.5t30.5 6t30.5 -6t25 -16.5t17 -24t6.5 -29.5q0 -32 -23.5 -54.5t-55.5 -22.5z" />
    <glyph glyph-name="dotlessi" unicode="&#x131;" horiz-adv-x="319" 
d="M100 396h-38q-32 0 -45.5 17t-13.5 40q0 22 13.5 39.5t45.5 17.5h122q31 0 44 -17t13 -38v-396q0 -18 -6.5 -31.5t-16.5 -21.5t-22.5 -12t-25.5 -4q-26 0 -48 16t-22 53v337z" />
    <glyph glyph-name="IJ" unicode="&#x132;" horiz-adv-x="719" 
d="M56 54q0 21 13 39.5t42 18.5h13v457h-13q-29 0 -42 17t-13 37q0 21 13 39t42 18h169q29 0 41.5 -18t12.5 -39q0 -20 -12.5 -37t-41.5 -17h-14v-457h14q29 0 41.5 -18.5t12.5 -39.5q0 -19 -12.5 -36.5t-41.5 -17.5h-169q-29 0 -42 17.5t-13 36.5zM408 -55l34 17t29 20
q22 22 25.5 49.5t3.5 68.5v521q0 38 22 53.5t48 15.5q13 0 26 -4t23 -12t16.5 -21t6.5 -32v-548q0 -34 -3 -59.5t-10.5 -46t-20 -38.5t-31.5 -37q-13 -13 -31 -25t-38.5 -21.5t-40.5 -15t-38 -5.5q-33 0 -48 16.5t-15 42.5q0 22 12 37t30 24z" />
    <glyph glyph-name="ij" unicode="&#x133;" horiz-adv-x="638" 
d="M100 396h-38q-32 0 -45.5 17t-13.5 40q0 22 13.5 39.5t45.5 17.5h122q31 0 44 -17t13 -38v-396q0 -18 -6.5 -31.5t-16.5 -21.5t-22.5 -12t-25.5 -4q-26 0 -48 16t-22 53v337zM389 -74q17 17 23.5 48t6.5 72v350h-36q-32 0 -45.5 17t-13.5 40q0 22 13.5 39.5t45.5 17.5
h120q31 0 44 -17.5t13 -38.5v-419q0 -68 -16.5 -112.5t-51.5 -79.5q-58 -58 -128 -58q-29 0 -46 14t-17 40q0 14 4.5 23.5t12.5 17.5q17 17 36.5 24t34.5 22zM155 585q-19 0 -36 7t-29.5 19t-20 28.5t-7.5 35.5q0 18 7.5 34.5t20 28.5t29.5 19t36 7t36 -7t29.5 -19t20 -28.5
t7.5 -34.5q0 -19 -7.5 -35.5t-20 -28.5t-29.5 -19t-36 -7zM474 585q-19 0 -36 7t-29.5 19t-20 28.5t-7.5 35.5q0 18 7.5 34.5t20 28.5t29.5 19t36 7t36 -7t29.5 -19t20 -28.5t7.5 -34.5q0 -19 -7.5 -35.5t-20 -28.5t-29.5 -19t-36 -7z" />
    <glyph glyph-name="Jcircumflex" unicode="&#x134;" horiz-adv-x="329" 
d="M18 -55l34 17t29 20q22 22 25.5 49.5t3.5 68.5v521q0 38 22 53.5t48 15.5q13 0 26 -4t23 -12t16.5 -21t6.5 -32v-548q0 -34 -3 -59.5t-10.5 -46t-20 -38.5t-31.5 -37q-13 -13 -31 -25t-38.5 -21.5t-40.5 -15t-38 -5.5q-33 0 -48 16.5t-15 42.5q0 22 12 37t30 24zM52 751
q-19 0 -34.5 13.5t-15.5 35.5q0 14 7.5 26.5t19.5 20.5l116 76q7 5 16 8t20 3t20 -3t16 -8l116 -76q12 -8 19.5 -20.5t7.5 -26.5q0 -22 -15.5 -35.5t-34.5 -13.5q-5 0 -11 1t-14 5l-104 54l-104 -54q-8 -4 -14 -5t-11 -1z" />
    <glyph glyph-name="jcircumflex" unicode="&#x135;" horiz-adv-x="319" 
d="M70 -74q17 17 23.5 48t6.5 72v350h-36q-32 0 -45.5 17t-13.5 40q0 22 13.5 39.5t45.5 17.5h120q31 0 44 -17.5t13 -38.5v-419q0 -68 -16.5 -112.5t-51.5 -79.5q-58 -58 -128 -58q-29 0 -46 14t-17 40q0 14 4.5 23.5t12.5 17.5q17 17 36.5 24t34.5 22zM9 583
q-19 0 -34.5 13.5t-15.5 35.5q0 14 7.5 26.5t19.5 20.5l116 76q7 5 16 8t20 3t20 -3t16 -8l116 -76q12 -8 19.5 -20.5t7.5 -26.5q0 -22 -15.5 -35.5t-34.5 -13.5q-5 0 -11 1t-14 5l-104 54l-104 -54q-8 -4 -14 -5t-11 -1z" />
    <glyph glyph-name="Kcommaaccent" unicode="&#x136;" horiz-adv-x="632" 
d="M266 -100q13 21 28.5 28t32.5 7q25 0 41.5 -18.5t16.5 -44.5t-15 -44l-84 -95q-15 -18 -40 -18q-21 0 -37 14.5t-16 37.5q0 18 11 34zM77 621q0 37 22 53t48 16q13 0 26 -4t23 -12t16.5 -21t6.5 -32v-228q48 27 82.5 53t61 55.5t47.5 64t42 79.5q8 17 22.5 31.5
t36.5 14.5q29 0 49.5 -18t20.5 -49q0 -15 -9 -41.5t-29.5 -61t-52.5 -74.5t-78 -81q42 -39 77 -82t59.5 -84.5t38.5 -77.5t14 -62q0 -35 -19.5 -54.5t-48.5 -19.5q-26 0 -42.5 12.5t-24.5 35.5q-10 27 -23 57t-32.5 61.5t-48 62.5t-69.5 61q-17 -10 -36 -20l-38 -20v-177
q0 -18 -6.5 -31.5t-16.5 -21.5t-23 -12t-26 -4q-26 0 -48 16t-22 53v562z" />
    <glyph glyph-name="kcommaaccent" unicode="&#x137;" horiz-adv-x="555" 
d="M226 -100q13 21 28.5 28t32.5 7q25 0 41.5 -18.5t16.5 -44.5t-15 -44l-84 -95q-15 -18 -40 -18q-21 0 -37 14.5t-16 37.5q0 18 11 34zM72 650q0 38 21.5 54t47.5 16t48.5 -16t22.5 -54v-320q32 15 57.5 32.5t42.5 34.5q31 31 45 55t27 44q14 20 26.5 28.5t32.5 8.5
q26 0 44 -16.5t18 -43.5q0 -20 -9.5 -42.5t-25.5 -46t-38.5 -47t-47.5 -45.5q28 -29 52.5 -61t43 -64t29.5 -62t11 -54q0 -32 -19.5 -48.5t-46.5 -16.5t-45 18q-10 10 -17 25.5t-15 37.5q-12 31 -35 69.5t-70 75.5q-15 -8 -30.5 -15.5t-29.5 -14.5v-122q0 -38 -22.5 -54
t-48.5 -16t-47.5 16t-21.5 54v590z" />
    <glyph glyph-name="kgreenlandic" unicode="&#x138;" horiz-adv-x="555" 
d="M72 450q0 38 22 54t48 16q13 0 26 -4t23 -12.5t16.5 -21.5t6.5 -32v-120q32 15 56.5 32.5t41.5 34.5q31 31 45 55t27 44q14 20 26.5 28.5t32.5 8.5q26 0 44 -16.5t18 -43.5q0 -20 -9.5 -42.5t-25.5 -46t-38.5 -47t-47.5 -45.5q28 -29 52.5 -61t43 -64t29.5 -62t11 -54
q0 -32 -19.5 -48.5t-46.5 -16.5t-45 18q-10 10 -17 25.5t-15 37.5q-12 31 -35 69.5t-70 75.5q-15 -8 -29.5 -15.5t-28.5 -14.5v-122q0 -19 -6.5 -32t-16.5 -21.5t-23 -12.5t-26 -4q-26 0 -48 16t-22 54v390z" />
    <glyph glyph-name="Lacute" unicode="&#x139;" horiz-adv-x="541" 
d="M77 619q0 38 23 54.5t49 16.5q13 0 26.5 -4t24 -12.5t17 -22t6.5 -32.5v-478q0 -19 19 -19h230q32 0 46 -18.5t14 -41.5q0 -22 -14 -42t-46 -20h-290q-20 0 -38.5 6t-33.5 18.5t-24 32t-9 47.5v515zM128 751q-20 0 -35 14.5t-15 36.5q0 15 8.5 28.5t22.5 21.5l137 73
q16 9 35 9q26 0 43 -16t17 -45q0 -18 -10 -36t-32 -26l-149 -56q-11 -4 -22 -4z" />
    <glyph glyph-name="lacute" unicode="&#x13a;" horiz-adv-x="339" 
d="M72 651q0 37 21.5 53t47.5 16t48.5 -16t22.5 -53v-477q0 -35 11.5 -51.5t29.5 -16.5q5 0 14.5 1.5t17.5 1.5q24 0 40 -13.5t16 -38.5q0 -27 -17 -44q-16 -16 -40 -21t-46 -5q-30 0 -60 8t-53.5 28t-38 54t-14.5 87v487zM122 784q-20 0 -35 14.5t-15 36.5q0 15 8.5 28.5
t22.5 21.5l137 73q16 9 35 9q26 0 43 -16t17 -45q0 -18 -10 -36t-32 -26l-149 -56q-11 -4 -22 -4z" />
    <glyph glyph-name="Lcommaaccent" unicode="&#x13b;" horiz-adv-x="541" 
d="M235 -100q13 21 28.5 28t32.5 7q25 0 41.5 -18.5t16.5 -44.5t-15 -44l-84 -95q-15 -18 -40 -18q-21 0 -37 14.5t-16 37.5q0 18 11 34zM77 619q0 38 23 54.5t49 16.5q13 0 26.5 -4t24 -12.5t17 -22t6.5 -32.5v-478q0 -19 19 -19h230q32 0 46 -18.5t14 -41.5q0 -22 -14 -42
t-46 -20h-290q-20 0 -38.5 6t-33.5 18.5t-24 32t-9 47.5v515z" />
    <glyph glyph-name="lcommaaccent" unicode="&#x13c;" horiz-adv-x="339" 
d="M157 -100q13 21 28.5 28t32.5 7q25 0 41.5 -18.5t16.5 -44.5t-15 -44l-84 -95q-15 -18 -40 -18q-21 0 -37 14.5t-16 37.5q0 18 11 34zM72 651q0 37 21.5 53t47.5 16t48.5 -16t22.5 -53v-477q0 -35 11.5 -51.5t29.5 -16.5q5 0 14.5 1.5t17.5 1.5q24 0 40 -13.5t16 -38.5
q0 -27 -17 -44q-16 -16 -40 -21t-46 -5q-30 0 -60 8t-53.5 28t-38 54t-14.5 87v487z" />
    <glyph glyph-name="Lcaron" unicode="&#x13d;" horiz-adv-x="541" 
d="M77 619q0 38 23 54.5t49 16.5q13 0 26.5 -4t24 -12.5t17 -22t6.5 -32.5v-478q0 -19 19 -19h230q32 0 46 -18.5t14 -41.5q0 -22 -14 -42t-46 -20h-290q-20 0 -38.5 6t-33.5 18.5t-24 32t-9 47.5v515zM375 472q-21 0 -35.5 15.5t-14.5 37.5v5.5t1 5.5l26 132q5 25 21 38.5
t39 13.5q16 0 28.5 -7.5t20 -19.5t10 -26.5t-2.5 -29.5l-44 -129q-5 -16 -17.5 -26t-31.5 -10z" />
    <glyph glyph-name="lcaron" unicode="&#x13e;" horiz-adv-x="410" 
d="M72 651q0 37 21.5 53t47.5 16t48.5 -16t22.5 -53v-477q0 -35 11.5 -51.5t29.5 -16.5q5 0 14.5 1.5t17.5 1.5q24 0 40 -13.5t16 -38.5q0 -27 -17 -44q-16 -16 -40 -21t-46 -5q-30 0 -60 8t-53.5 28t-38 54t-14.5 87v487zM311 472q-21 0 -35.5 15.5t-14.5 37.5v5.5t1 5.5
l26 132q5 25 21 38.5t39 13.5q16 0 28.5 -7.5t20 -19.5t10 -26.5t-2.5 -29.5l-44 -129q-5 -16 -17.5 -26t-31.5 -10z" />
    <glyph glyph-name="Ldot" unicode="&#x13f;" horiz-adv-x="541" 
d="M335 347q0 16 6.5 29.5t17 24t25 16.5t30.5 6t30.5 -6t25 -16.5t17 -24t6.5 -29.5q0 -32 -23.5 -54.5t-55.5 -22.5t-55.5 22.5t-23.5 54.5zM77 619q0 38 23 54.5t49 16.5q13 0 26.5 -4t24 -12.5t17 -22t6.5 -32.5v-478q0 -19 19 -19h230q32 0 46 -18.5t14 -41.5
q0 -22 -14 -42t-46 -20h-290q-20 0 -38.5 6t-33.5 18.5t-24 32t-9 47.5v515z" />
    <glyph glyph-name="ldot" unicode="&#x140;" horiz-adv-x="463" 
d="M274 347q0 16 6.5 29.5t17 24t25 16.5t30.5 6t30.5 -6t25 -16.5t17 -24t6.5 -29.5q0 -32 -23.5 -54.5t-55.5 -22.5t-55.5 22.5t-23.5 54.5zM72 651q0 37 21.5 53t47.5 16t48.5 -16t22.5 -53v-477q0 -35 11.5 -51.5t29.5 -16.5q5 0 14.5 1.5t17.5 1.5q24 0 40 -13.5
t16 -38.5q0 -27 -17 -44q-16 -16 -40 -21t-46 -5q-30 0 -60 8t-53.5 28t-38 54t-14.5 87v487z" />
    <glyph glyph-name="Lslash" unicode="&#x141;" horiz-adv-x="606" 
d="M58 196q-23 0 -38.5 17.5t-15.5 38.5q0 24 23 40l115 74v253q0 38 23 54.5t49 16.5q13 0 26.5 -4t24 -12.5t17 -22t6.5 -32.5v-158l124 81q13 8 29 8q23 0 38 -17t15 -38q0 -25 -24 -41l-182 -118v-195q0 -19 19 -19h230q32 0 46 -18.5t14 -41.5q0 -22 -14 -42t-46 -20
h-290q-20 0 -38.5 6t-33.5 18.5t-24 32t-9 47.5v137l-55 -36q-13 -9 -29 -9z" />
    <glyph glyph-name="lslash" unicode="&#x142;" horiz-adv-x="444" 
d="M45 192q-22 0 -37 18t-15 38q0 25 24 41l117 76v286q0 37 21.5 53t47.5 16t48.5 -16t22.5 -53v-195l79 52q13 9 29 9q23 0 38 -16t15 -36q0 -13 -6 -25t-18 -20l-137 -90v-156q0 -35 11.5 -51.5t29.5 -16.5q5 0 14.5 1.5t17.5 1.5q24 0 40 -13.5t16 -38.5q0 -27 -17 -44
q-16 -16 -40 -21t-46 -5q-30 0 -60 8t-53.5 28t-38 54t-14.5 87v75l-57 -37q-16 -10 -32 -10z" />
    <glyph glyph-name="Nacute" unicode="&#x143;" horiz-adv-x="720" 
d="M77 615q0 38 23 56.5t51 18.5q17 0 38 -6.5t44 -38.5l224 -317l10 -15l13 -19.5t13 -21t11 -19.5h2q-2 26 -2.5 49.5t-0.5 51.5v267q0 18 6.5 31t16.5 21.5t23 12.5t26 4q25 0 46.5 -16.5t21.5 -52.5v-558q0 -37 -22.5 -55t-47.5 -18q-7 0 -16.5 1t-20.5 5t-22 11.5
t-20 20.5l-229 321q-9 13 -24.5 36.5t-24.5 41.5h-2q2 -27 2.5 -50t0.5 -52v-266q0 -18 -6.5 -31t-16.5 -21.5t-23 -12.5t-26 -4q-25 0 -46.5 16.5t-21.5 52.5v556zM285 751q-20 0 -35 14.5t-15 36.5q0 15 8.5 28.5t22.5 21.5l137 73q16 9 35 9q26 0 43 -16t17 -45
q0 -18 -10 -36t-32 -26l-149 -56q-11 -4 -22 -4z" />
    <glyph glyph-name="nacute" unicode="&#x144;" horiz-adv-x="623" 
d="M84 311q0 22 -6 42t-13 38t-13 34.5t-6 30.5q0 30 20.5 47t46.5 17q13 0 26 -4.5t25 -16.5q8 -8 15 -20t15 -27q10 13 26 26.5t37 24.5t47 18t58 7q33 0 67 -6.5t62 -26.5t46 -57.5t18 -100.5v-278q0 -19 -6.5 -32t-16.5 -21.5t-22.5 -12t-25.5 -3.5q-26 0 -48 15.5
t-22 53.5v278q0 25 -7.5 40t-18.5 23.5t-24 11.5t-24 3q-24 0 -42.5 -5.5t-33 -14.5t-24.5 -19.5t-17 -19.5q1 -8 1 -15.5v-9.5v-272q0 -37 -22.5 -53t-48.5 -16t-47.5 16t-21.5 53v252zM288 583q-20 0 -35 14.5t-15 36.5q0 15 8.5 28.5t22.5 21.5l137 73q16 9 35 9
q26 0 43 -16t17 -45q0 -18 -10 -36t-32 -26l-149 -56q-11 -4 -22 -4z" />
    <glyph glyph-name="Ncommaaccent" unicode="&#x145;" horiz-adv-x="720" 
d="M313 -100q13 21 28.5 28t32.5 7q25 0 41.5 -18.5t16.5 -44.5t-15 -44l-84 -95q-15 -18 -40 -18q-21 0 -37 14.5t-16 37.5q0 18 11 34zM77 615q0 38 23 56.5t51 18.5q17 0 38 -6.5t44 -38.5l224 -317l10 -15l13 -19.5t13 -21t11 -19.5h2q-2 26 -2.5 49.5t-0.5 51.5v267
q0 18 6.5 31t16.5 21.5t23 12.5t26 4q25 0 46.5 -16.5t21.5 -52.5v-558q0 -37 -22.5 -55t-47.5 -18q-7 0 -16.5 1t-20.5 5t-22 11.5t-20 20.5l-229 321q-9 13 -24.5 36.5t-24.5 41.5h-2q2 -27 2.5 -50t0.5 -52v-266q0 -18 -6.5 -31t-16.5 -21.5t-23 -12.5t-26 -4
q-25 0 -46.5 16.5t-21.5 52.5v556z" />
    <glyph glyph-name="ncommaaccent" unicode="&#x146;" horiz-adv-x="623" 
d="M265 -100q13 21 28.5 28t32.5 7q25 0 41.5 -18.5t16.5 -44.5t-15 -44l-84 -95q-15 -18 -40 -18q-21 0 -37 14.5t-16 37.5q0 18 11 34zM84 311q0 22 -6 42t-13 38t-13 34.5t-6 30.5q0 30 20.5 47t46.5 17q13 0 26 -4.5t25 -16.5q8 -8 15 -20t15 -27q10 13 26 26.5t37 24.5
t47 18t58 7q33 0 67 -6.5t62 -26.5t46 -57.5t18 -100.5v-278q0 -19 -6.5 -32t-16.5 -21.5t-22.5 -12t-25.5 -3.5q-26 0 -48 15.5t-22 53.5v278q0 25 -7.5 40t-18.5 23.5t-24 11.5t-24 3q-24 0 -42.5 -5.5t-33 -14.5t-24.5 -19.5t-17 -19.5q1 -8 1 -15.5v-9.5v-272
q0 -37 -22.5 -53t-48.5 -16t-47.5 16t-21.5 53v252z" />
    <glyph glyph-name="Ncaron" unicode="&#x147;" horiz-adv-x="720" 
d="M77 615q0 38 23 56.5t51 18.5q17 0 38 -6.5t44 -38.5l224 -317l10 -15l13 -19.5t13 -21t11 -19.5h2q-2 26 -2.5 49.5t-0.5 51.5v267q0 18 6.5 31t16.5 21.5t23 12.5t26 4q25 0 46.5 -16.5t21.5 -52.5v-558q0 -37 -22.5 -55t-47.5 -18q-7 0 -16.5 1t-20.5 5t-22 11.5
t-20 20.5l-229 321q-9 13 -24.5 36.5t-24.5 41.5h-2q2 -27 2.5 -50t0.5 -52v-266q0 -18 -6.5 -31t-16.5 -21.5t-23 -12.5t-26 -4q-25 0 -46.5 16.5t-21.5 52.5v556zM209 838q-12 8 -19.5 20.5t-7.5 26.5q0 22 15.5 35.5t34.5 13.5q5 0 11 -1t14 -5l104 -54l104 54q8 4 14 5
t11 1q19 0 34.5 -13.5t15.5 -35.5q0 -14 -7.5 -26.5t-19.5 -20.5l-116 -76q-7 -5 -16 -8t-20 -3t-20 3t-16 8z" />
    <glyph glyph-name="ncaron" unicode="&#x148;" horiz-adv-x="623" 
d="M84 311q0 22 -6 42t-13 38t-13 34.5t-6 30.5q0 30 20.5 47t46.5 17q13 0 26 -4.5t25 -16.5q8 -8 15 -20t15 -27q10 13 26 26.5t37 24.5t47 18t58 7q33 0 67 -6.5t62 -26.5t46 -57.5t18 -100.5v-278q0 -19 -6.5 -32t-16.5 -21.5t-22.5 -12t-25.5 -3.5q-26 0 -48 15.5
t-22 53.5v278q0 25 -7.5 40t-18.5 23.5t-24 11.5t-24 3q-24 0 -42.5 -5.5t-33 -14.5t-24.5 -19.5t-17 -19.5q1 -8 1 -15.5v-9.5v-272q0 -37 -22.5 -53t-48.5 -16t-47.5 16t-21.5 53v252zM161 671q-12 8 -19.5 20.5t-7.5 26.5q0 22 15.5 35.5t34.5 13.5q5 0 11 -1t14 -5
l104 -54l104 54q8 4 14 5t11 1q19 0 34.5 -13.5t15.5 -35.5q0 -14 -7.5 -26.5t-19.5 -20.5l-116 -76q-7 -5 -16 -8t-20 -3t-20 3t-16 8z" />
    <glyph glyph-name="Eng" unicode="&#x14a;" horiz-adv-x="721" 
d="M77 615q0 38 23 56.5t51 18.5q17 0 38 -6.5t44 -38.5l225 -319q4 -6 10 -16t13 -21t13 -21.5t11 -18.5h2q-1 27 -2 50t-1 51v271q0 18 6.5 31t16.5 21.5t23 12.5t26 4q25 0 46.5 -16.5t21.5 -52.5v-548q0 -34 -3 -59.5t-10.5 -46t-20 -38.5t-31.5 -37q-13 -13 -31 -25
t-38.5 -21.5t-40.5 -15t-38 -5.5q-33 0 -48 16.5t-15 42.5q0 22 12 36.5t30 23.5q16 8 34 17.5t29 20.5t16.5 23t8.5 26l-233 321q-9 13 -24.5 36t-24.5 39h-2q1 -27 2 -50t1 -52v-266q0 -18 -6.5 -31t-16.5 -21.5t-23 -12.5t-26 -4q-25 0 -46.5 16.5t-21.5 52.5v556z" />
    <glyph glyph-name="eng" unicode="&#x14b;" horiz-adv-x="623" 
d="M84 311q0 22 -6 42t-13 38t-13 34.5t-6 30.5q0 30 20.5 47t46.5 17q13 0 26 -4.5t25 -16.5q8 -8 15 -20t15 -27q10 13 26 26.5t37 24.5t47 18t58 7q33 0 67 -6.5t62 -26.5t46 -57.5t18 -100.5v-302q0 -68 -17.5 -113t-52.5 -80q-57 -57 -126 -57q-29 0 -46 14t-17 40
q0 14 5 23.5t13 17.5q16 16 35.5 23.5t34.5 22.5q17 17 23.5 48t6.5 72v291q0 25 -7.5 40t-18.5 23.5t-24 11.5t-24 3q-24 0 -42.5 -5.5t-33 -14.5t-24.5 -19.5t-17 -19.5q1 -8 1 -15.5v-9.5v-272q0 -37 -22.5 -53t-48.5 -16t-47.5 16t-21.5 53v252z" />
    <glyph glyph-name="Omacron" unicode="&#x14c;" horiz-adv-x="732" 
d="M366 109q28 0 57.5 10t53 36t38.5 71t15 115q0 69 -15 114t-38.5 71t-53 36t-57.5 10q-29 0 -58 -10t-52.5 -36t-38.5 -71t-15 -114q0 -70 15 -115t38.5 -71t52.5 -36t58 -10zM53 341q0 107 29 176t74 109.5t100.5 56t109.5 15.5t109.5 -15.5t100.5 -56t74 -109.5
t29 -176t-29 -176.5t-74 -110t-100.5 -56.5t-109.5 -16t-109.5 16t-100.5 56.5t-74 110t-29 176.5zM235 785q-22 0 -37 15.5t-15 37.5t15 37t37 15h262q22 0 37.5 -15t15.5 -37t-15.5 -37.5t-37.5 -15.5h-262z" />
    <glyph glyph-name="omacron" unicode="&#x14d;" 
d="M300 96q21 0 41 6.5t36 23.5t26 48t10 81q0 49 -10 80.5t-26 48.5t-36 23.5t-41 6.5t-41 -6.5t-35.5 -23.5t-25.5 -48.5t-10 -80.5q0 -50 10 -81t25.5 -48t35.5 -23.5t41 -6.5zM42 255q0 82 24.5 134.5t62.5 83.5t83.5 43t87.5 12t88 -12t83.5 -43t62 -83.5t24.5 -134.5
t-24.5 -135t-62.5 -83.5t-83.5 -42.5t-87.5 -12t-88 12t-83.5 42.5t-62 83.5t-24.5 135zM171 622q-22 0 -37 15.5t-15 37.5t15 37t37 15h262q22 0 37.5 -15t15.5 -37t-15.5 -37.5t-37.5 -15.5h-262z" />
    <glyph glyph-name="Obreve" unicode="&#x14e;" horiz-adv-x="732" 
d="M366 109q28 0 57.5 10t53 36t38.5 71t15 115q0 69 -15 114t-38.5 71t-53 36t-57.5 10q-29 0 -58 -10t-52.5 -36t-38.5 -71t-15 -114q0 -70 15 -115t38.5 -71t52.5 -36t58 -10zM53 341q0 107 29 176t74 109.5t100.5 56t109.5 15.5t109.5 -15.5t100.5 -56t74 -109.5
t29 -176t-29 -176.5t-74 -110t-100.5 -56.5t-109.5 -16t-109.5 16t-100.5 56.5t-74 110t-29 176.5zM216 812q-17 17 -24.5 34t-7.5 29q0 25 14.5 37.5t34.5 12.5q19 0 30 -8t23 -20q14 -14 31.5 -26.5t47.5 -12.5t47.5 12.5t31.5 26.5q12 12 23 20t30 8q20 0 34.5 -12.5
t14.5 -37.5q0 -12 -7.5 -29t-24.5 -34q-21 -20 -57 -35.5t-92 -15.5t-92 15.5t-57 35.5z" />
    <glyph glyph-name="obreve" unicode="&#x14f;" 
d="M300 96q21 0 41 6.5t36 23.5t26 48t10 81q0 49 -10 80.5t-26 48.5t-36 23.5t-41 6.5t-41 -6.5t-35.5 -23.5t-25.5 -48.5t-10 -80.5q0 -50 10 -81t25.5 -48t35.5 -23.5t41 -6.5zM42 255q0 82 24.5 134.5t62.5 83.5t83.5 43t87.5 12t88 -12t83.5 -43t62 -83.5t24.5 -134.5
t-24.5 -135t-62.5 -83.5t-83.5 -42.5t-87.5 -12t-88 12t-83.5 42.5t-62 83.5t-24.5 135zM152 644q-17 17 -24.5 34t-7.5 29q0 25 14.5 37.5t34.5 12.5q19 0 30 -8t23 -20q14 -14 31.5 -26.5t47.5 -12.5t47.5 12.5t31.5 26.5q12 12 23 20t30 8q20 0 34.5 -12.5t14.5 -37.5
q0 -12 -7.5 -29t-24.5 -34q-21 -20 -57 -35.5t-92 -15.5t-92 15.5t-57 35.5z" />
    <glyph glyph-name="Ohungarumlaut" unicode="&#x150;" horiz-adv-x="732" 
d="M366 109q28 0 57.5 10t53 36t38.5 71t15 115q0 69 -15 114t-38.5 71t-53 36t-57.5 10q-29 0 -58 -10t-52.5 -36t-38.5 -71t-15 -114q0 -70 15 -115t38.5 -71t52.5 -36t58 -10zM53 341q0 107 29 176t74 109.5t100.5 56t109.5 15.5t109.5 -15.5t100.5 -56t74 -109.5
t29 -176t-29 -176.5t-74 -110t-100.5 -56.5t-109.5 -16t-109.5 16t-100.5 56.5t-74 110t-29 176.5zM258 751q-18 0 -32.5 13t-14.5 33q0 21 16 38l76 78q8 8 18.5 14.5t24.5 6.5q20 0 36 -15t16 -38q0 -13 -4.5 -25.5t-21.5 -26.5l-84 -68q-12 -10 -30 -10zM446 751
q-18 0 -32.5 13t-14.5 33q0 21 16 38l76 78q8 8 18.5 14.5t24.5 6.5q20 0 36 -15t16 -38q0 -13 -4.5 -25.5t-21.5 -26.5l-84 -68q-12 -10 -30 -10z" />
    <glyph glyph-name="ohungarumlaut" unicode="&#x151;" 
d="M300 96q21 0 41 6.5t36 23.5t26 48t10 81q0 49 -10 80.5t-26 48.5t-36 23.5t-41 6.5t-41 -6.5t-35.5 -23.5t-25.5 -48.5t-10 -80.5q0 -50 10 -81t25.5 -48t35.5 -23.5t41 -6.5zM42 255q0 82 24.5 134.5t62.5 83.5t83.5 43t87.5 12t88 -12t83.5 -43t62 -83.5t24.5 -134.5
t-24.5 -135t-62.5 -83.5t-83.5 -42.5t-87.5 -12t-88 12t-83.5 42.5t-62 83.5t-24.5 135zM203 583q-18 0 -32.5 13t-14.5 33q0 21 16 38l76 78q8 8 18.5 14.5t24.5 6.5q20 0 36 -15t16 -38q0 -13 -4.5 -25.5t-21.5 -26.5l-84 -68q-12 -10 -30 -10zM391 583q-18 0 -32.5 13
t-14.5 33q0 21 16 38l76 78q8 8 18.5 14.5t24.5 6.5q20 0 36 -15t16 -38q0 -13 -4.5 -25.5t-21.5 -26.5l-84 -68q-12 -10 -30 -10z" />
    <glyph glyph-name="OE" unicode="&#x152;" horiz-adv-x="1027" 
d="M360 109q28 0 58 10t54.5 36.5t40 71.5t15.5 114t-15.5 114t-40 71t-54.5 36t-58 10q-29 0 -56.5 -10t-50 -36t-36 -71t-13.5 -114q0 -70 13.5 -115t36 -71t50 -36t56.5 -10zM53 341q0 107 28 176t72 109.5t98.5 56t108.5 15.5t99 -14t86 -46h2q15 22 38.5 32t49.5 10
h284q32 0 46 -20t14 -42q0 -23 -14 -41.5t-46 -18.5h-228q-19 0 -19 -19v-124h228q32 0 46 -18.5t14 -41.5q0 -22 -14 -42t-46 -20h-228v-152q0 -19 19 -19h239q32 0 46 -18.5t14 -41.5q0 -22 -14 -42t-46 -20h-295q-26 0 -49.5 9.5t-38.5 31.5h-2q-40 -32 -85 -45.5
t-100 -13.5q-54 0 -108.5 16t-98.5 56.5t-72 110t-28 176.5z" />
    <glyph glyph-name="oe" unicode="&#x153;" horiz-adv-x="918" 
d="M300 96q21 0 41 6.5t36 23.5t26 48t10 81q0 49 -10 80.5t-26 48.5t-36 23.5t-41 6.5t-41 -6.5t-35.5 -23.5t-25.5 -48.5t-10 -80.5q0 -50 10 -81t25.5 -48t35.5 -23.5t41 -6.5zM745 308q-4 60 -25 86.5t-64 26.5t-68 -29t-30 -84h187zM42 255q0 82 24.5 134.5t62.5 83.5
t83.5 43t87.5 12q51 0 98.5 -16.5t83.5 -58.5h1q31 39 73.5 57t90.5 18q50 0 92 -15t72.5 -46t47.5 -78.5t17 -113.5q0 -14 -2 -26.5t-9 -22.5t-20 -15.5t-35 -5.5h-255q4 -32 15.5 -52.5t28 -32.5t37 -17t43.5 -5q25 0 49.5 5t42.5 12q10 4 22 7.5t22 3.5q26 0 40 -16
t14 -36q0 -24 -19 -43q-12 -12 -33 -21t-45.5 -15.5t-49.5 -9.5t-45 -3q-61 0 -111 16t-84 58h-1q-37 -37 -79 -55.5t-102 -18.5q-42 0 -88 12t-83.5 42.5t-62 83.5t-24.5 135z" />
    <glyph glyph-name="Racute" unicode="&#x154;" horiz-adv-x="653" 
d="M346 367q31 0 51 8.5t31.5 22.5t16 31t4.5 34t-4.5 34t-16 30.5t-31.5 22t-51 8.5h-127v-191h127zM77 611q0 38 22 53.5t48 15.5h205q64 0 110 -18t75.5 -48.5t43 -70t13.5 -81.5q0 -63 -33.5 -117t-102.5 -81q22 -20 45.5 -46t42.5 -53.5t31 -56.5t12 -55
q0 -32 -19.5 -49.5t-48.5 -17.5q-26 0 -42.5 12t-27.5 38q-28 63 -67.5 114t-105.5 95h-59v-186q0 -18 -6.5 -31.5t-16.5 -21.5t-23 -12t-26 -4q-26 0 -48 16t-22 53v552zM253 751q-20 0 -35 14.5t-15 36.5q0 15 8.5 28.5t22.5 21.5l137 73q16 9 35 9q26 0 43 -16t17 -45
q0 -18 -10 -36t-32 -26l-149 -56q-11 -4 -22 -4z" />
    <glyph glyph-name="racute" unicode="&#x155;" horiz-adv-x="437" 
d="M89 311q0 24 -9 43.5t-20.5 36t-20.5 32.5t-9 33q0 30 17 47t46 17q20 0 36 -8t33 -25q12 -12 22 -27t18 -30q10 18 24 34.5t31.5 29.5t38.5 21t47 8q41 0 65.5 -24t24.5 -61q0 -13 -4 -27t-13 -26t-22.5 -19.5t-31.5 -7.5t-29.5 5t-19.5 13q-7 7 -13.5 13t-19.5 6
q-10 0 -18.5 -7t-15 -17t-11 -22.5t-6.5 -22.5v-267q0 -37 -22.5 -53t-48.5 -16t-47.5 16t-21.5 53v252zM183 583q-20 0 -35 14.5t-15 36.5q0 15 8.5 28.5t22.5 21.5l137 73q16 9 35 9q26 0 43 -16t17 -45q0 -18 -10 -36t-32 -26l-149 -56q-11 -4 -22 -4z" />
    <glyph glyph-name="Rcommaaccent" unicode="&#x156;" horiz-adv-x="653" 
d="M270 -100q13 21 28.5 28t32.5 7q25 0 41.5 -18.5t16.5 -44.5t-15 -44l-84 -95q-15 -18 -40 -18q-21 0 -37 14.5t-16 37.5q0 18 11 34zM346 367q31 0 51 8.5t31.5 22.5t16 31t4.5 34t-4.5 34t-16 30.5t-31.5 22t-51 8.5h-127v-191h127zM77 611q0 38 22 53.5t48 15.5h205
q64 0 110 -18t75.5 -48.5t43 -70t13.5 -81.5q0 -63 -33.5 -117t-102.5 -81q22 -20 45.5 -46t42.5 -53.5t31 -56.5t12 -55q0 -32 -19.5 -49.5t-48.5 -17.5q-26 0 -42.5 12t-27.5 38q-28 63 -67.5 114t-105.5 95h-59v-186q0 -18 -6.5 -31.5t-16.5 -21.5t-23 -12t-26 -4
q-26 0 -48 16t-22 53v552z" />
    <glyph glyph-name="rcommaaccent" unicode="&#x157;" horiz-adv-x="437" 
d="M103 -100q13 21 28.5 28t32.5 7q25 0 41.5 -18.5t16.5 -44.5t-15 -44l-84 -95q-15 -18 -40 -18q-21 0 -37 14.5t-16 37.5q0 18 11 34zM89 311q0 24 -9 43.5t-20.5 36t-20.5 32.5t-9 33q0 30 17 47t46 17q20 0 36 -8t33 -25q12 -12 22 -27t18 -30q10 18 24 34.5t31.5 29.5
t38.5 21t47 8q41 0 65.5 -24t24.5 -61q0 -13 -4 -27t-13 -26t-22.5 -19.5t-31.5 -7.5t-29.5 5t-19.5 13q-7 7 -13.5 13t-19.5 6q-10 0 -18.5 -7t-15 -17t-11 -22.5t-6.5 -22.5v-267q0 -37 -22.5 -53t-48.5 -16t-47.5 16t-21.5 53v252z" />
    <glyph glyph-name="Rcaron" unicode="&#x158;" horiz-adv-x="653" 
d="M346 367q31 0 51 8.5t31.5 22.5t16 31t4.5 34t-4.5 34t-16 30.5t-31.5 22t-51 8.5h-127v-191h127zM77 611q0 38 22 53.5t48 15.5h205q64 0 110 -18t75.5 -48.5t43 -70t13.5 -81.5q0 -63 -33.5 -117t-102.5 -81q22 -20 45.5 -46t42.5 -53.5t31 -56.5t12 -55
q0 -32 -19.5 -49.5t-48.5 -17.5q-26 0 -42.5 12t-27.5 38q-28 63 -67.5 114t-105.5 95h-59v-186q0 -18 -6.5 -31.5t-16.5 -21.5t-23 -12t-26 -4q-26 0 -48 16t-22 53v552zM152 838q-12 8 -19.5 20.5t-7.5 26.5q0 22 15.5 35.5t34.5 13.5q5 0 11 -1t14 -5l104 -54l104 54
q8 4 14 5t11 1q19 0 34.5 -13.5t15.5 -35.5q0 -14 -7.5 -26.5t-19.5 -20.5l-116 -76q-7 -5 -16 -8t-20 -3t-20 3t-16 8z" />
    <glyph glyph-name="rcaron" unicode="&#x159;" horiz-adv-x="437" 
d="M89 311q0 24 -9 43.5t-20.5 36t-20.5 32.5t-9 33q0 30 17 47t46 17q20 0 36 -8t33 -25q12 -12 22 -27t18 -30q10 18 24 34.5t31.5 29.5t38.5 21t47 8q41 0 65.5 -24t24.5 -61q0 -13 -4 -27t-13 -26t-22.5 -19.5t-31.5 -7.5t-29.5 5t-19.5 13q-7 7 -13.5 13t-19.5 6
q-10 0 -18.5 -7t-15 -17t-11 -22.5t-6.5 -22.5v-267q0 -37 -22.5 -53t-48.5 -16t-47.5 16t-21.5 53v252zM76 671q-12 8 -19.5 20.5t-7.5 26.5q0 22 15.5 35.5t34.5 13.5q5 0 11 -1t14 -5l104 -54l104 54q8 4 14 5t11 1q19 0 34.5 -13.5t15.5 -35.5q0 -14 -7.5 -26.5
t-19.5 -20.5l-116 -76q-7 -5 -16 -8t-20 -3t-20 3t-16 8z" />
    <glyph glyph-name="Sacute" unicode="&#x15a;" horiz-adv-x="617" 
d="M78 51q-27 27 -27 59q0 28 18.5 46t44.5 18q14 0 28 -6t29 -15q26 -16 57.5 -28.5t76.5 -12.5q53 0 85.5 17.5t32.5 58.5q0 10 -3.5 20t-11.5 18q-20 20 -53.5 31t-71.5 21t-77.5 23t-71 36t-51.5 61t-20 98q0 46 17.5 83t50 63.5t77.5 41t101 14.5q27 0 64 -4.5t71 -17
t58 -34t24 -55.5q0 -26 -15 -43t-43 -17q-17 0 -30.5 6t-28.5 13q-18 8 -41.5 15.5t-61.5 7.5q-96 0 -96 -70q0 -25 16 -41q15 -16 47 -25.5t70 -19.5t78.5 -24t73.5 -38t54 -61.5t21 -94.5q0 -53 -21 -92.5t-57.5 -66.5t-86.5 -40.5t-107 -13.5q-30 0 -61.5 4t-60.5 12.5
t-54.5 21.5t-43.5 31zM236 751q-20 0 -35 14.5t-15 36.5q0 15 8.5 28.5t22.5 21.5l137 73q16 9 35 9q26 0 43 -16t17 -45q0 -18 -10 -36t-32 -26l-149 -56q-11 -4 -22 -4z" />
    <glyph glyph-name="sacute" unicode="&#x15b;" horiz-adv-x="503" 
d="M39 88q0 25 15.5 41t38.5 16q14 0 24.5 -3.5t24.5 -11.5q20 -11 47 -22.5t62 -11.5q34 0 53 11.5t19 32.5q0 20 -20.5 31.5t-51.5 20t-66.5 19t-66.5 29t-51.5 49t-20.5 80.5q0 29 9.5 55.5t28.5 45.5q29 29 70.5 43.5t99.5 14.5q20 0 50.5 -4.5t59 -15t48.5 -28
t20 -44.5q0 -21 -14 -38.5t-38 -17.5q-12 0 -22.5 3.5t-21.5 8.5q-16 8 -39.5 14.5t-51.5 6.5q-30 0 -43 -10t-13 -27q0 -21 20.5 -32.5t51.5 -20t66.5 -18t66.5 -27.5t51.5 -47.5t20.5 -77.5q0 -67 -44 -111q-29 -29 -74 -44.5t-100 -15.5q-23 0 -58.5 5t-69 17t-57.5 32.5
t-24 51.5zM201 583q-20 0 -35 14.5t-15 36.5q0 15 8.5 28.5t22.5 21.5l137 73q16 9 35 9q26 0 43 -16t17 -45q0 -18 -10 -36t-32 -26l-149 -56q-11 -4 -22 -4z" />
    <glyph glyph-name="Scircumflex" unicode="&#x15c;" horiz-adv-x="617" 
d="M78 51q-27 27 -27 59q0 28 18.5 46t44.5 18q14 0 28 -6t29 -15q26 -16 57.5 -28.5t76.5 -12.5q53 0 85.5 17.5t32.5 58.5q0 10 -3.5 20t-11.5 18q-20 20 -53.5 31t-71.5 21t-77.5 23t-71 36t-51.5 61t-20 98q0 46 17.5 83t50 63.5t77.5 41t101 14.5q27 0 64 -4.5t71 -17
t58 -34t24 -55.5q0 -26 -15 -43t-43 -17q-17 0 -30.5 6t-28.5 13q-18 8 -41.5 15.5t-61.5 7.5q-96 0 -96 -70q0 -25 16 -41q15 -16 47 -25.5t70 -19.5t78.5 -24t73.5 -38t54 -61.5t21 -94.5q0 -53 -21 -92.5t-57.5 -66.5t-86.5 -40.5t-107 -13.5q-30 0 -61.5 4t-60.5 12.5
t-54.5 21.5t-43.5 31zM187 751q-19 0 -34.5 13.5t-15.5 35.5q0 14 7.5 26.5t19.5 20.5l116 76q7 5 16 8t20 3t20 -3t16 -8l116 -76q12 -8 19.5 -20.5t7.5 -26.5q0 -22 -15.5 -35.5t-34.5 -13.5q-5 0 -11 1t-14 5l-104 54l-104 -54q-8 -4 -14 -5t-11 -1z" />
    <glyph glyph-name="scircumflex" unicode="&#x15d;" horiz-adv-x="503" 
d="M39 88q0 25 15.5 41t38.5 16q14 0 24.5 -3.5t24.5 -11.5q20 -11 47 -22.5t62 -11.5q34 0 53 11.5t19 32.5q0 20 -20.5 31.5t-51.5 20t-66.5 19t-66.5 29t-51.5 49t-20.5 80.5q0 29 9.5 55.5t28.5 45.5q29 29 70.5 43.5t99.5 14.5q20 0 50.5 -4.5t59 -15t48.5 -28
t20 -44.5q0 -21 -14 -38.5t-38 -17.5q-12 0 -22.5 3.5t-21.5 8.5q-16 8 -39.5 14.5t-51.5 6.5q-30 0 -43 -10t-13 -27q0 -21 20.5 -32.5t51.5 -20t66.5 -18t66.5 -27.5t51.5 -47.5t20.5 -77.5q0 -67 -44 -111q-29 -29 -74 -44.5t-100 -15.5q-23 0 -58.5 5t-69 17t-57.5 32.5
t-24 51.5zM124 583q-19 0 -34.5 13.5t-15.5 35.5q0 14 7.5 26.5t19.5 20.5l116 76q7 5 16 8t20 3t20 -3t16 -8l116 -76q12 -8 19.5 -20.5t7.5 -26.5q0 -22 -15.5 -35.5t-34.5 -13.5q-5 0 -11 1t-14 5l-104 54l-104 -54q-8 -4 -14 -5t-11 -1z" />
    <glyph glyph-name="Scedilla" unicode="&#x15e;" horiz-adv-x="617" 
d="M171 -129q0 20 12.5 31t30.5 11q17 0 31 -6q8 -3 18.5 -6t16.5 -3q19 0 19 9q0 3 -3.5 6.5t-7.5 8.5q-6 6 -11.5 14.5t-5.5 22.5q0 11 5 24q-28 1 -56.5 5.5t-54.5 13t-48.5 20.5t-38.5 29q-27 27 -27 59q0 28 18.5 46t44.5 18q14 0 28 -6t29 -15q26 -16 57.5 -28.5
t76.5 -12.5q53 0 85.5 17.5t32.5 58.5q0 10 -3.5 20t-11.5 18q-20 20 -53.5 31t-71.5 21t-77.5 23t-71 36t-51.5 61t-20 98q0 46 17.5 83t50 63.5t77.5 41t101 14.5q27 0 64 -4.5t71 -17t58 -34t24 -55.5q0 -26 -15 -43t-43 -17q-17 0 -30.5 6t-28.5 13q-18 8 -41.5 15.5
t-61.5 7.5q-96 0 -96 -70q0 -25 16 -41q15 -16 47 -25.5t70 -19.5t78.5 -24t73.5 -38t54 -61.5t21 -94.5q0 -45 -15.5 -80.5t-43 -61.5t-65.5 -42.5t-83 -23.5q-4 -8 -4 -15q0 -11 10 -19q11 -10 23.5 -22t12.5 -38q0 -31 -31 -55.5t-89 -24.5q-8 0 -21.5 1t-28 4.5t-28.5 9
t-23 14.5q-13 13 -13 29z" />
    <glyph glyph-name="scedilla" unicode="&#x15f;" horiz-adv-x="503" 
d="M110 -129q0 20 12.5 31t30.5 11q17 0 31 -6q8 -3 18.5 -6t16.5 -3q19 0 19 9q0 3 -3.5 6.5t-7.5 8.5q-6 6 -11.5 14.5t-5.5 22.5q0 12 5 25q-26 3 -57 9.5t-57.5 19t-44 31t-17.5 44.5q0 25 15.5 41t38.5 16q14 0 24.5 -3.5t24.5 -11.5q20 -11 47 -22.5t62 -11.5
q34 0 53 11.5t19 32.5q0 20 -20.5 31.5t-51.5 20t-66.5 19t-66.5 29t-51.5 49t-20.5 80.5q0 29 9.5 55.5t28.5 45.5q29 29 70.5 43.5t99.5 14.5q20 0 50.5 -4.5t59 -15t48.5 -28t20 -44.5q0 -21 -14 -38.5t-38 -17.5q-12 0 -22.5 3.5t-21.5 8.5q-16 8 -39.5 14.5t-51.5 6.5
q-30 0 -43 -10t-13 -27q0 -21 20.5 -32.5t51.5 -20t66.5 -18t66.5 -27.5t51.5 -47.5t20.5 -77.5q0 -67 -44 -111t-120 -56q-4 -8 -4 -14q0 -11 10 -19q11 -10 23.5 -22t12.5 -38q0 -31 -31 -55.5t-89 -24.5q-8 0 -21.5 1t-28 4.5t-28.5 9t-23 14.5q-13 13 -13 29z" />
    <glyph glyph-name="Scaron" unicode="&#x160;" horiz-adv-x="617" 
d="M78 51q-27 27 -27 59q0 28 18.5 46t44.5 18q14 0 28 -6t29 -15q26 -16 57.5 -28.5t76.5 -12.5q53 0 85.5 17.5t32.5 58.5q0 10 -3.5 20t-11.5 18q-20 20 -53.5 31t-71.5 21t-77.5 23t-71 36t-51.5 61t-20 98q0 46 17.5 83t50 63.5t77.5 41t101 14.5q27 0 64 -4.5t71 -17
t58 -34t24 -55.5q0 -26 -15 -43t-43 -17q-17 0 -30.5 6t-28.5 13q-18 8 -41.5 15.5t-61.5 7.5q-96 0 -96 -70q0 -25 16 -41q15 -16 47 -25.5t70 -19.5t78.5 -24t73.5 -38t54 -61.5t21 -94.5q0 -53 -21 -92.5t-57.5 -66.5t-86.5 -40.5t-107 -13.5q-30 0 -61.5 4t-60.5 12.5
t-54.5 21.5t-43.5 31zM165 838q-12 8 -19.5 20.5t-7.5 26.5q0 22 15.5 35.5t34.5 13.5q5 0 11 -1t14 -5l104 -54l104 54q8 4 14 5t11 1q19 0 34.5 -13.5t15.5 -35.5q0 -14 -7.5 -26.5t-19.5 -20.5l-116 -76q-7 -5 -16 -8t-20 -3t-20 3t-16 8z" />
    <glyph glyph-name="scaron" unicode="&#x161;" horiz-adv-x="503" 
d="M39 88q0 25 15.5 41t38.5 16q14 0 24.5 -3.5t24.5 -11.5q20 -11 47 -22.5t62 -11.5q34 0 53 11.5t19 32.5q0 20 -20.5 31.5t-51.5 20t-66.5 19t-66.5 29t-51.5 49t-20.5 80.5q0 29 9.5 55.5t28.5 45.5q29 29 70.5 43.5t99.5 14.5q20 0 50.5 -4.5t59 -15t48.5 -28
t20 -44.5q0 -21 -14 -38.5t-38 -17.5q-12 0 -22.5 3.5t-21.5 8.5q-16 8 -39.5 14.5t-51.5 6.5q-30 0 -43 -10t-13 -27q0 -21 20.5 -32.5t51.5 -20t66.5 -18t66.5 -27.5t51.5 -47.5t20.5 -77.5q0 -67 -44 -111q-29 -29 -74 -44.5t-100 -15.5q-23 0 -58.5 5t-69 17t-57.5 32.5
t-24 51.5zM101 671q-12 8 -19.5 20.5t-7.5 26.5q0 22 15.5 35.5t34.5 13.5q5 0 11 -1t14 -5l104 -54l104 54q8 4 14 5t11 1q19 0 34.5 -13.5t15.5 -35.5q0 -14 -7.5 -26.5t-19.5 -20.5l-116 -76q-7 -5 -16 -8t-20 -3t-20 3t-16 8z" />
    <glyph glyph-name="Tcommaaccent" unicode="&#x162;" horiz-adv-x="530" 
d="M209 -100q13 21 28.5 28t32.5 7q25 0 41.5 -18.5t16.5 -44.5t-15 -44l-84 -95q-15 -18 -40 -18q-21 0 -37 14.5t-16 37.5q0 18 11 34zM191 558h-133q-32 0 -46 19t-14 41q0 23 14 42.5t46 19.5h414q32 0 46 -19.5t14 -42.5q0 -22 -14 -41t-46 -19h-139v-499
q0 -18 -6.5 -31.5t-16.5 -21.5t-23 -12t-26 -4q-26 0 -48 16t-22 53v499z" />
    <glyph glyph-name="tcommaaccent" unicode="&#x163;" horiz-adv-x="419" 
d="M191 -100q13 21 28.5 28t32.5 7q25 0 41.5 -18.5t16.5 -44.5t-15 -44l-84 -95q-15 -18 -40 -18q-21 0 -37 14.5t-16 37.5q0 18 11 34zM94 396h-40q-24 0 -35.5 15t-11.5 32q0 20 10 32.5t24 21.5t30 17t27 19t17 28.5t13.5 34t19 28.5t34.5 12t37.5 -12.5t14.5 -39.5v-74
h104q32 0 45.5 -17.5t13.5 -39.5q0 -23 -13.5 -40t-45.5 -17h-104v-228q0 -35 17.5 -48.5t46.5 -13.5q5 0 12 0.5t14 2.5t15.5 4t13.5 2q20 0 37 -13.5t17 -41.5q0 -24 -14.5 -38t-35 -22t-42.5 -10.5t-38 -2.5q-35 0 -67.5 7t-58.5 25.5t-41.5 52t-15.5 86.5v238z" />
    <glyph glyph-name="Tcaron" unicode="&#x164;" horiz-adv-x="530" 
d="M191 558h-133q-32 0 -46 19t-14 41q0 23 14 42.5t46 19.5h414q32 0 46 -19.5t14 -42.5q0 -22 -14 -41t-46 -19h-139v-499q0 -18 -6.5 -31.5t-16.5 -21.5t-23 -12t-26 -4q-26 0 -48 16t-22 53v499zM109 838q-12 8 -19.5 20.5t-7.5 26.5q0 22 15.5 35.5t34.5 13.5
q5 0 11 -1t14 -5l104 -54l104 54q8 4 14 5t11 1q19 0 34.5 -13.5t15.5 -35.5q0 -14 -7.5 -26.5t-19.5 -20.5l-116 -76q-7 -5 -16 -8t-20 -3t-20 3t-16 8z" />
    <glyph glyph-name="tcaron" unicode="&#x165;" horiz-adv-x="419" 
d="M94 388h-40q-24 0 -35.5 15t-11.5 32q0 20 10 33t24 22.5t30 18.5t27 20t17 29t13.5 35.5t19 30t34.5 12.5t37.5 -12.5t14.5 -39.5v-82h104q32 0 45.5 -17.5t13.5 -39.5q0 -23 -13.5 -40t-45.5 -17h-104v-220q0 -35 17.5 -48.5t46.5 -13.5q5 0 12 0.5t14 2.5t15.5 4
t13.5 2q20 0 37 -13.5t17 -41.5q0 -24 -14.5 -38t-35 -22t-42.5 -10.5t-38 -2.5q-35 0 -67.5 7t-58.5 25.5t-41.5 52t-15.5 86.5v230zM326 544q-21 0 -35.5 15.5t-14.5 37.5v5.5t1 5.5l26 132q5 25 21 38.5t39 13.5q16 0 28.5 -7.5t20 -19.5t10 -26.5t-2.5 -29.5l-44 -129
q-5 -16 -17.5 -26t-31.5 -10z" />
    <glyph glyph-name="Tbar" unicode="&#x166;" horiz-adv-x="530" 
d="M104 294q-22 0 -36 15t-14 37q0 21 14 37t36 16h87v159h-133q-32 0 -46 19t-14 41q0 23 14 42.5t46 19.5h414q32 0 46 -19.5t14 -42.5q0 -22 -14 -41t-46 -19h-139v-159h86q22 0 36 -15.5t14 -37.5t-14 -37t-36 -15h-86v-235q0 -18 -6.5 -31.5t-16.5 -21.5t-23 -12
t-26 -4q-26 0 -48 16t-22 53v235h-87z" />
    <glyph glyph-name="tbar" unicode="&#x167;" horiz-adv-x="419" 
d="M70 225q-22 0 -36 12t-14 34t14 33t36 11h24v81h-40q-24 0 -35.5 15t-11.5 32q0 20 10 32.5t24 21.5t30 17t27 19t17 28.5t13.5 34t19 28.5t34.5 12t37.5 -12.5t14.5 -39.5v-74h104q32 0 45.5 -17.5t13.5 -39.5q0 -23 -13.5 -40t-45.5 -17h-104v-81h100q22 0 36 -12
t14 -34t-14 -33t-36 -11h-100v-57q0 -35 17.5 -48.5t46.5 -13.5q5 0 12 0.5t14 2.5t15.5 4t13.5 2q20 0 37 -13.5t17 -41.5q0 -24 -14.5 -38t-35 -22t-42.5 -10.5t-38 -2.5q-35 0 -67.5 7t-58.5 25.5t-41.5 52t-15.5 86.5v67h-24z" />
    <glyph glyph-name="Utilde" unicode="&#x168;" horiz-adv-x="714" 
d="M72 621q0 38 22 53.5t48 15.5q13 0 26 -4t23 -12t16.5 -21t6.5 -32v-350q0 -51 12 -83t32 -49.5t45.5 -24t53.5 -6.5t53.5 6.5t45.5 24t32 49.5t12 83v350q0 38 22 53.5t48 15.5q13 0 25.5 -4t23 -12t17 -21t6.5 -32v-339q0 -92 -23.5 -150.5t-63 -91.5t-91 -45.5
t-107.5 -12.5t-107.5 12.5t-91 45.5t-63 91t-23.5 150v340zM204 777q-21 0 -34.5 15t-13.5 35t15 35q19 19 52.5 30.5t61.5 11.5q25 0 43.5 -4.5t34.5 -10t32 -9.5t36 -4q21 0 42 10q10 5 18.5 9t22.5 4q21 0 34.5 -15t13.5 -35t-15 -35q-19 -19 -52.5 -30.5t-61.5 -11.5
q-25 0 -43 4.5t-34 9.5t-32 9.5t-37 4.5t-42 -10q-10 -5 -18.5 -9t-22.5 -4z" />
    <glyph glyph-name="utilde" unicode="&#x169;" horiz-adv-x="623" 
d="M68 451q0 37 22.5 53t48.5 16t48 -15.5t22 -53.5v-278q0 -25 7.5 -40t18.5 -23.5t24 -11.5t24 -3q24 0 42.5 5.5t33 14.5t24.5 19.5t17 19.5q-1 8 -1 15.5v9.5v272q0 37 22.5 53t48.5 16t47.5 -16t21.5 -53v-252q0 -22 6 -42t13 -38t13 -34.5t6 -30.5q0 -30 -20.5 -47
t-46.5 -17q-13 0 -26 4.5t-25 16.5q-8 8 -15 20t-15 27q-10 -13 -25.5 -26.5t-36.5 -24.5t-47.5 -18t-57.5 -7q-33 0 -67 6.5t-62.5 26.5t-46.5 57.5t-18 100.5v278zM148 614q-21 0 -34.5 15t-13.5 35t15 35q19 19 52.5 30.5t61.5 11.5q25 0 43.5 -4.5t34.5 -10t32 -9.5
t36 -4q21 0 42 10q10 5 18.5 9t22.5 4q21 0 34.5 -15t13.5 -35t-15 -35q-19 -19 -52.5 -30.5t-61.5 -11.5q-25 0 -43 4.5t-34 9.5t-32 9.5t-37 4.5t-42 -10q-10 -5 -18.5 -9t-22.5 -4z" />
    <glyph glyph-name="Umacron" unicode="&#x16a;" horiz-adv-x="714" 
d="M72 621q0 38 22 53.5t48 15.5q13 0 26 -4t23 -12t16.5 -21t6.5 -32v-350q0 -51 12 -83t32 -49.5t45.5 -24t53.5 -6.5t53.5 6.5t45.5 24t32 49.5t12 83v350q0 38 22 53.5t48 15.5q13 0 25.5 -4t23 -12t17 -21t6.5 -32v-339q0 -92 -23.5 -150.5t-63 -91.5t-91 -45.5
t-107.5 -12.5t-107.5 12.5t-91 45.5t-63 91t-23.5 150v340zM228 785q-22 0 -37 15.5t-15 37.5t15 37t37 15h262q22 0 37.5 -15t15.5 -37t-15.5 -37.5t-37.5 -15.5h-262z" />
    <glyph glyph-name="umacron" unicode="&#x16b;" horiz-adv-x="623" 
d="M68 451q0 37 22.5 53t48.5 16t48 -15.5t22 -53.5v-278q0 -25 7.5 -40t18.5 -23.5t24 -11.5t24 -3q24 0 42.5 5.5t33 14.5t24.5 19.5t17 19.5q-1 8 -1 15.5v9.5v272q0 37 22.5 53t48.5 16t47.5 -16t21.5 -53v-252q0 -22 6 -42t13 -38t13 -34.5t6 -30.5q0 -30 -20.5 -47
t-46.5 -17q-13 0 -26 4.5t-25 16.5q-8 8 -15 20t-15 27q-10 -13 -25.5 -26.5t-36.5 -24.5t-47.5 -18t-57.5 -7q-33 0 -67 6.5t-62.5 26.5t-46.5 57.5t-18 100.5v278zM172 623q-22 0 -37 15.5t-15 37.5t15 37t37 15h262q22 0 37.5 -15t15.5 -37t-15.5 -37.5t-37.5 -15.5h-262
z" />
    <glyph glyph-name="Ubreve" unicode="&#x16c;" horiz-adv-x="714" 
d="M72 621q0 38 22 53.5t48 15.5q13 0 26 -4t23 -12t16.5 -21t6.5 -32v-350q0 -51 12 -83t32 -49.5t45.5 -24t53.5 -6.5t53.5 6.5t45.5 24t32 49.5t12 83v350q0 38 22 53.5t48 15.5q13 0 25.5 -4t23 -12t17 -21t6.5 -32v-339q0 -92 -23.5 -150.5t-63 -91.5t-91 -45.5
t-107.5 -12.5t-107.5 12.5t-91 45.5t-63 91t-23.5 150v340zM210 812q-17 17 -24.5 34t-7.5 29q0 25 14.5 37.5t34.5 12.5q19 0 30 -8t23 -20q14 -14 31.5 -26.5t47.5 -12.5t47.5 12.5t31.5 26.5q12 12 23 20t30 8q20 0 34.5 -12.5t14.5 -37.5q0 -12 -7.5 -29t-24.5 -34
q-21 -20 -57 -35.5t-92 -15.5t-92 15.5t-57 35.5z" />
    <glyph glyph-name="ubreve" unicode="&#x16d;" horiz-adv-x="623" 
d="M68 451q0 37 22.5 53t48.5 16t48 -15.5t22 -53.5v-278q0 -25 7.5 -40t18.5 -23.5t24 -11.5t24 -3q24 0 42.5 5.5t33 14.5t24.5 19.5t17 19.5q-1 8 -1 15.5v9.5v272q0 37 22.5 53t48.5 16t47.5 -16t21.5 -53v-252q0 -22 6 -42t13 -38t13 -34.5t6 -30.5q0 -30 -20.5 -47
t-46.5 -17q-13 0 -26 4.5t-25 16.5q-8 8 -15 20t-15 27q-10 -13 -25.5 -26.5t-36.5 -24.5t-47.5 -18t-57.5 -7q-33 0 -67 6.5t-62.5 26.5t-46.5 57.5t-18 100.5v278zM154 644q-17 17 -24.5 34t-7.5 29q0 25 14.5 37.5t34.5 12.5q19 0 30 -8t23 -20q14 -14 31.5 -26.5
t47.5 -12.5t47.5 12.5t31.5 26.5q12 12 23 20t30 8q20 0 34.5 -12.5t14.5 -37.5q0 -12 -7.5 -29t-24.5 -34q-21 -20 -57 -35.5t-92 -15.5t-92 15.5t-57 35.5z" />
    <glyph glyph-name="Uring" unicode="&#x16e;" horiz-adv-x="714" 
d="M72 621q0 38 22 53.5t48 15.5q13 0 26 -4t23 -12t16.5 -21t6.5 -32v-350q0 -51 12 -83t32 -49.5t45.5 -24t53.5 -6.5t53.5 6.5t45.5 24t32 49.5t12 83v350q0 38 22 53.5t48 15.5q13 0 25.5 -4t23 -12t17 -21t6.5 -32v-339q0 -92 -23.5 -150.5t-63 -91.5t-91 -45.5
t-107.5 -12.5t-107.5 12.5t-91 45.5t-63 91t-23.5 150v340zM360 805q17 0 28 10.5t11 27.5q0 16 -11 27t-28 11t-28 -11t-11 -27q0 -17 11 -27.5t28 -10.5zM360 732q-24 0 -44.5 8.5t-36.5 23.5t-25 35t-9 44q0 22 9 42t25 34.5t36.5 23t44.5 8.5t44.5 -8.5t36.5 -23
t25 -34.5t9 -42q0 -24 -9 -44t-25 -35t-36.5 -23.5t-44.5 -8.5z" />
    <glyph glyph-name="uring" unicode="&#x16f;" horiz-adv-x="623" 
d="M68 451q0 37 22.5 53t48.5 16t48 -15.5t22 -53.5v-278q0 -25 7.5 -40t18.5 -23.5t24 -11.5t24 -3q24 0 42.5 5.5t33 14.5t24.5 19.5t17 19.5q-1 8 -1 15.5v9.5v272q0 37 22.5 53t48.5 16t47.5 -16t21.5 -53v-252q0 -22 6 -42t13 -38t13 -34.5t6 -30.5q0 -30 -20.5 -47
t-46.5 -17q-13 0 -26 4.5t-25 16.5q-8 8 -15 20t-15 27q-10 -13 -25.5 -26.5t-36.5 -24.5t-47.5 -18t-57.5 -7q-33 0 -67 6.5t-62.5 26.5t-46.5 57.5t-18 100.5v278zM303 637q17 0 28 10.5t11 27.5q0 16 -11 27t-28 11t-28 -11t-11 -27q0 -17 11 -27.5t28 -10.5zM303 564
q-24 0 -44.5 8.5t-36.5 23.5t-25 35t-9 44q0 22 9 42t25 34.5t36.5 23t44.5 8.5t44.5 -8.5t36.5 -23t25 -34.5t9 -42q0 -24 -9 -44t-25 -35t-36.5 -23.5t-44.5 -8.5z" />
    <glyph glyph-name="Uhungarumlaut" unicode="&#x170;" horiz-adv-x="714" 
d="M72 621q0 38 22 53.5t48 15.5q13 0 26 -4t23 -12t16.5 -21t6.5 -32v-350q0 -51 12 -83t32 -49.5t45.5 -24t53.5 -6.5t53.5 6.5t45.5 24t32 49.5t12 83v350q0 38 22 53.5t48 15.5q13 0 25.5 -4t23 -12t17 -21t6.5 -32v-339q0 -92 -23.5 -150.5t-63 -91.5t-91 -45.5
t-107.5 -12.5t-107.5 12.5t-91 45.5t-63 91t-23.5 150v340zM261 751q-18 0 -32.5 13t-14.5 33q0 21 16 38l76 78q8 8 18.5 14.5t24.5 6.5q20 0 36 -15t16 -38q0 -13 -4.5 -25.5t-21.5 -26.5l-84 -68q-12 -10 -30 -10zM449 751q-18 0 -32.5 13t-14.5 33q0 21 16 38l76 78
q8 8 18.5 14.5t24.5 6.5q20 0 36 -15t16 -38q0 -13 -4.5 -25.5t-21.5 -26.5l-84 -68q-12 -10 -30 -10z" />
    <glyph glyph-name="uhungarumlaut" unicode="&#x171;" horiz-adv-x="623" 
d="M68 451q0 37 22.5 53t48.5 16t48 -15.5t22 -53.5v-278q0 -25 7.5 -40t18.5 -23.5t24 -11.5t24 -3q24 0 42.5 5.5t33 14.5t24.5 19.5t17 19.5q-1 8 -1 15.5v9.5v272q0 37 22.5 53t48.5 16t47.5 -16t21.5 -53v-252q0 -22 6 -42t13 -38t13 -34.5t6 -30.5q0 -30 -20.5 -47
t-46.5 -17q-13 0 -26 4.5t-25 16.5q-8 8 -15 20t-15 27q-10 -13 -25.5 -26.5t-36.5 -24.5t-47.5 -18t-57.5 -7q-33 0 -67 6.5t-62.5 26.5t-46.5 57.5t-18 100.5v278zM223 583q-18 0 -32.5 13t-14.5 33q0 21 16 38l76 78q8 8 18.5 14.5t24.5 6.5q20 0 36 -15t16 -38
q0 -13 -4.5 -25.5t-21.5 -26.5l-84 -68q-12 -10 -30 -10zM411 583q-18 0 -32.5 13t-14.5 33q0 21 16 38l76 78q8 8 18.5 14.5t24.5 6.5q20 0 36 -15t16 -38q0 -13 -4.5 -25.5t-21.5 -26.5l-84 -68q-12 -10 -30 -10z" />
    <glyph glyph-name="Uogonek" unicode="&#x172;" horiz-adv-x="714" 
d="M283 -101q0 47 36 85q-50 3 -95 18.5t-79 49.5t-53.5 89.5t-19.5 139.5v340q0 38 22 53.5t48 15.5q13 0 26 -4t23 -12t16.5 -21t6.5 -32v-350q0 -51 12 -83t32 -49.5t45.5 -24t53.5 -6.5t53.5 6.5t45.5 24t32 49.5t12 83v350q0 38 22 53.5t48 15.5q13 0 25.5 -4t23 -12
t17 -21t6.5 -32v-339q0 -79 -17.5 -133t-48 -88.5t-71.5 -51.5t-87 -23q-17 -19 -25 -36.5t-8 -29.5q0 -14 8 -18t18 -4t18.5 2.5t16.5 5.5q7 2 14 4.5t15 2.5q17 0 28.5 -10t11.5 -28q0 -17 -13 -30q-9 -9 -23 -15.5t-28 -10t-27 -5t-22 -1.5q-57 0 -88 24.5t-31 61.5z" />
    <glyph glyph-name="uogonek" unicode="&#x173;" horiz-adv-x="623" 
d="M68 451q0 37 22.5 53t48.5 16t48 -15.5t22 -53.5v-278q0 -25 7.5 -40t18.5 -23.5t24 -11.5t24 -3q24 0 42.5 5.5t33 14.5t24.5 19.5t17 19.5q-1 8 -1 15.5v9.5v272q0 37 22.5 53t48.5 16t47.5 -16t21.5 -53v-252q0 -22 6 -42t13 -38t13 -34.5t6 -30.5q0 -27 -18 -45
q-5 -5 -12.5 -11t-11.5 -10q-19 -19 -27.5 -37t-8.5 -31q0 -14 8 -18t18 -4t18.5 2.5t16.5 5.5q7 2 14 4.5t15 2.5q17 0 28.5 -10t11.5 -28q0 -17 -13 -30q-9 -9 -23 -15.5t-28 -10t-27 -5t-22 -1.5q-57 0 -88 24.5t-31 61.5q0 30 16 58.5t50 49.5q-3 1 -4 4q-8 8 -15 20
t-15 27q-10 -13 -25.5 -26.5t-36.5 -24.5t-47.5 -18t-57.5 -7q-33 0 -67 6.5t-62.5 26.5t-46.5 57.5t-18 100.5v278z" />
    <glyph glyph-name="Wcircumflex" unicode="&#x174;" horiz-adv-x="899" 
d="M205 15q-24 24 -45.5 65.5t-39.5 92.5t-32.5 108.5t-24.5 113.5t-15.5 106.5t-5.5 89.5q0 46 17 72t57 26q14 0 26.5 -4.5t24.5 -16.5q14 -14 17 -36.5t4 -44.5q1 -36 5.5 -79t12 -87.5t18 -89.5t23.5 -85q7 -21 14.5 -44t15.5 -40h2q12 20 21.5 42t17.5 41q19 47 29 90
t17 78.5t14.5 62t21.5 40.5q12 12 24.5 17t28.5 5q18 0 29 -5t23 -17q13 -13 20 -39t13.5 -61.5t16.5 -78.5t30 -90q8 -20 18 -43t23 -43h2q8 17 15.5 40.5t14.5 44.5q13 40 24 85t18.5 89.5t11.5 87.5t4 79q0 9 0.5 20t3 22t6.5 21.5t10 16.5q11 11 22.5 16t28.5 5
q38 0 54 -26.5t16 -71.5q0 -38 -5.5 -89t-15.5 -106.5t-24.5 -112.5t-33 -108t-40 -92.5t-45.5 -65.5q-14 -14 -30 -20t-31 -6q-14 0 -29 6t-29 20q-18 18 -36 45t-34 58t-30 65.5t-25 67.5h-2q-9 -35 -22 -69t-28.5 -65t-33.5 -57.5t-37 -45.5q-14 -14 -30 -19.5t-30 -5.5
q-15 0 -31 5.5t-30 19.5zM316 751q-19 0 -34.5 13.5t-15.5 35.5q0 14 7.5 26.5t19.5 20.5l116 76q7 5 16 8t20 3t20 -3t16 -8l116 -76q12 -8 19.5 -20.5t7.5 -26.5q0 -22 -15.5 -35.5t-34.5 -13.5q-5 0 -11 1t-14 5l-104 54l-104 -54q-8 -4 -14 -5t-11 -1z" />
    <glyph glyph-name="wcircumflex" unicode="&#x175;" horiz-adv-x="740" 
d="M167 10q-22 21 -39.5 54.5t-31.5 73t-24 82t-16.5 83.5t-10 77t-3.5 62q0 32 17.5 54.5t51.5 22.5q32 0 49 -20q14 -15 16 -34.5t4 -37.5q4 -59 12.5 -116.5t27.5 -114.5l19 -58h2q6 12 12 28t11 29q10 29 16.5 58t12 55t12 46t17.5 31t22.5 16t28.5 5q31 0 52 -21
q11 -11 17.5 -31.5t12.5 -46t12 -55t17 -58.5q5 -13 10.5 -29t11.5 -27h2l19 57q19 57 27.5 114.5t12.5 117.5q2 18 3.5 38t15.5 35q16 19 43 19q34 0 51.5 -22.5t17.5 -54.5q0 -26 -3.5 -62t-10 -77t-16.5 -83.5t-24 -82t-31.5 -72.5t-39.5 -55q-12 -12 -27 -17.5t-29 -5.5
q-17 0 -32 5.5t-27 17.5q-15 15 -28.5 36.5t-24.5 45t-20 48t-15 46.5h-2q-6 -22 -14 -46.5t-19 -48t-24.5 -45t-28.5 -36.5q-23 -23 -58 -23q-14 0 -29.5 5.5t-27.5 17.5zM241 583q-19 0 -34.5 13.5t-15.5 35.5q0 14 7.5 26.5t19.5 20.5l116 76q7 5 16 8t20 3t20 -3t16 -8
l116 -76q12 -8 19.5 -20.5t7.5 -26.5q0 -22 -15.5 -35.5t-34.5 -13.5q-5 0 -11 1t-14 5l-104 54l-104 -54q-8 -4 -14 -5t-11 -1z" />
    <glyph glyph-name="Ycircumflex" unicode="&#x176;" horiz-adv-x="601" 
d="M230 238q-33 30 -69.5 75.5t-67 98t-50.5 106t-20 99.5q0 32 19 52t48 20q25 0 43 -14t25 -40q5 -20 15 -51.5t26.5 -68t42 -76t61.5 -73.5q36 34 61 73.5t41.5 76t25.5 68t14 51.5q7 27 25 40.5t42 13.5q31 0 48.5 -20.5t17.5 -51.5q0 -45 -19 -97.5t-49 -104t-66.5 -98
t-71.5 -79.5v-179q0 -18 -6.5 -31.5t-16.5 -21.5t-23 -12t-26 -4q-26 0 -48 16t-22 53v179zM173 751q-19 0 -34.5 13.5t-15.5 35.5q0 14 7.5 26.5t19.5 20.5l116 76q7 5 16 8t20 3t20 -3t16 -8l116 -76q12 -8 19.5 -20.5t7.5 -26.5q0 -22 -15.5 -35.5t-34.5 -13.5
q-5 0 -11 1t-14 5l-104 54l-104 -54q-8 -4 -14 -5t-11 -1z" />
    <glyph glyph-name="ycircumflex" unicode="&#x177;" horiz-adv-x="546" 
d="M37 -101q4 4 11.5 10t16.5 12t18 12.5t16 11.5q12 9 23 17.5t22 18.5t22 23t25 31q-30 37 -59 92.5t-51.5 114.5t-36 115.5t-13.5 96.5q0 27 16 46.5t51 19.5q25 0 43.5 -15.5t22.5 -40.5q5 -35 13 -71t21 -75t32.5 -81.5t46.5 -88.5h2q27 46 45 88.5t29.5 81.5t18.5 75
t12 71q4 25 23 40.5t42 15.5q32 0 49 -19.5t17 -46.5q0 -32 -8.5 -74t-23.5 -88.5t-35 -93.5t-43 -88q-39 -69 -83.5 -123.5t-97.5 -107.5q-14 -14 -31.5 -29.5t-37 -28.5t-39 -21.5t-38.5 -8.5q-25 0 -42.5 16.5t-17.5 47.5q0 11 5 23t14 21zM146 583q-19 0 -34.5 13.5
t-15.5 35.5q0 14 7.5 26.5t19.5 20.5l116 76q7 5 16 8t20 3t20 -3t16 -8l116 -76q12 -8 19.5 -20.5t7.5 -26.5q0 -22 -15.5 -35.5t-34.5 -13.5q-5 0 -11 1t-14 5l-104 54l-104 -54q-8 -4 -14 -5t-11 -1z" />
    <glyph glyph-name="Ydieresis" unicode="&#x178;" horiz-adv-x="601" 
d="M230 238q-33 30 -69.5 75.5t-67 98t-50.5 106t-20 99.5q0 32 19 52t48 20q25 0 43 -14t25 -40q5 -20 15 -51.5t26.5 -68t42 -76t61.5 -73.5q36 34 61 73.5t41.5 76t25.5 68t14 51.5q7 27 25 40.5t42 13.5q31 0 48.5 -20.5t17.5 -51.5q0 -45 -19 -97.5t-49 -104t-66.5 -98
t-71.5 -79.5v-179q0 -18 -6.5 -31.5t-16.5 -21.5t-23 -12t-26 -4q-26 0 -48 16t-22 53v179zM197 766q-32 0 -55.5 22.5t-23.5 54.5q0 16 6.5 29.5t17 24t25 16.5t30.5 6t30.5 -6t25 -16.5t17 -24t6.5 -29.5q0 -32 -23.5 -54.5t-55.5 -22.5zM407 766q-32 0 -55.5 22.5
t-23.5 54.5q0 16 6.5 29.5t17 24t25 16.5t30.5 6t30.5 -6t25 -16.5t17 -24t6.5 -29.5q0 -32 -23.5 -54.5t-55.5 -22.5z" />
    <glyph glyph-name="Zacute" unicode="&#x179;" horiz-adv-x="569" 
d="M18 62q0 22 11 37l311 459h-244q-32 0 -46 18.5t-14 41.5q0 22 14 42t46 20h381q32 0 46 -20t14 -42t-11 -37l-311 -459h257q32 0 46 -18.5t14 -41.5q0 -22 -14 -42t-46 -20h-394q-32 0 -46 20t-14 42zM235 751q-20 0 -35 14.5t-15 36.5q0 15 8.5 28.5t22.5 21.5l137 73
q16 9 35 9q26 0 43 -16t17 -45q0 -18 -10 -36t-32 -26l-149 -56q-11 -4 -22 -4z" />
    <glyph glyph-name="zacute" unicode="&#x17a;" horiz-adv-x="505" 
d="M36 57q0 11 4.5 22.5t10.5 19.5l222 297h-165q-32 0 -45.5 17t-13.5 40q0 22 13.5 39.5t45.5 17.5h301q32 0 45.5 -17.5t13.5 -39.5t-14 -39l-223 -300h185q32 0 45.5 -17t13.5 -40q0 -22 -13.5 -39.5t-45.5 -17.5h-321q-32 0 -45.5 17.5t-13.5 39.5zM228 583
q-20 0 -35 14.5t-15 36.5q0 15 8.5 28.5t22.5 21.5l137 73q16 9 35 9q26 0 43 -16t17 -45q0 -18 -10 -36t-32 -26l-149 -56q-11 -4 -22 -4z" />
    <glyph glyph-name="Zdotaccent" unicode="&#x17b;" horiz-adv-x="569" 
d="M18 62q0 22 11 37l311 459h-244q-32 0 -46 18.5t-14 41.5q0 22 14 42t46 20h381q32 0 46 -20t14 -42t-11 -37l-311 -459h257q32 0 46 -18.5t14 -41.5q0 -22 -14 -42t-46 -20h-394q-32 0 -46 20t-14 42zM276 766q-32 0 -55.5 22.5t-23.5 54.5q0 16 6.5 29.5t17 24t25 16.5
t30.5 6t30.5 -6t25 -16.5t17 -24t6.5 -29.5q0 -32 -23.5 -54.5t-55.5 -22.5z" />
    <glyph glyph-name="zdotaccent" unicode="&#x17c;" horiz-adv-x="505" 
d="M36 57q0 11 4.5 22.5t10.5 19.5l222 297h-165q-32 0 -45.5 17t-13.5 40q0 22 13.5 39.5t45.5 17.5h301q32 0 45.5 -17.5t13.5 -39.5t-14 -39l-223 -300h185q32 0 45.5 -17t13.5 -40q0 -22 -13.5 -39.5t-45.5 -17.5h-321q-32 0 -45.5 17.5t-13.5 39.5zM284 598
q-32 0 -55.5 22.5t-23.5 54.5q0 16 6.5 29.5t17 24t25 16.5t30.5 6t30.5 -6t25 -16.5t17 -24t6.5 -29.5q0 -32 -23.5 -54.5t-55.5 -22.5z" />
    <glyph glyph-name="Zcaron" unicode="&#x17d;" horiz-adv-x="569" 
d="M18 62q0 22 11 37l311 459h-244q-32 0 -46 18.5t-14 41.5q0 22 14 42t46 20h381q32 0 46 -20t14 -42t-11 -37l-311 -459h257q32 0 46 -18.5t14 -41.5q0 -22 -14 -42t-46 -20h-394q-32 0 -46 20t-14 42zM143 838q-12 8 -19.5 20.5t-7.5 26.5q0 22 15.5 35.5t34.5 13.5
q5 0 11 -1t14 -5l104 -54l104 54q8 4 14 5t11 1q19 0 34.5 -13.5t15.5 -35.5q0 -14 -7.5 -26.5t-19.5 -20.5l-116 -76q-7 -5 -16 -8t-20 -3t-20 3t-16 8z" />
    <glyph glyph-name="zcaron" unicode="&#x17e;" horiz-adv-x="505" 
d="M36 57q0 11 4.5 22.5t10.5 19.5l222 297h-165q-32 0 -45.5 17t-13.5 40q0 22 13.5 39.5t45.5 17.5h301q32 0 45.5 -17.5t13.5 -39.5t-14 -39l-223 -300h185q32 0 45.5 -17t13.5 -40q0 -22 -13.5 -39.5t-45.5 -17.5h-321q-32 0 -45.5 17.5t-13.5 39.5zM130 671
q-12 8 -19.5 20.5t-7.5 26.5q0 22 15.5 35.5t34.5 13.5q5 0 11 -1t14 -5l104 -54l104 54q8 4 14 5t11 1q19 0 34.5 -13.5t15.5 -35.5q0 -14 -7.5 -26.5t-19.5 -20.5l-116 -76q-7 -5 -16 -8t-20 -3t-20 3t-16 8z" />
    <glyph glyph-name="Schwa" unicode="&#x18f;" horiz-adv-x="698" 
d="M197 276q7 -95 39 -138t97 -43q66 0 103.5 46.5t45.5 134.5h-285zM41 312q0 16 2.5 30.5t10.5 25t22.5 16.5t39.5 6h365q-6 52 -22 86t-40 54.5t-55 28.5t-67 8q-39 0 -66 -10t-51 -22q-12 -6 -24.5 -10.5t-23.5 -4.5q-27 0 -42.5 18.5t-15.5 38.5q0 31 23 54
q17 17 42 29.5t52 20.5t54 11.5t50 3.5q70 0 133.5 -17t111.5 -58t76.5 -109.5t28.5 -171.5q0 -98 -26 -166.5t-69 -111.5t-98 -62.5t-113 -19.5q-65 0 -119.5 19.5t-94 60t-62 103t-22.5 149.5z" />
    <glyph glyph-name="florin" unicode="&#x192;" horiz-adv-x="660" 
d="M210 295h-21q-29 0 -42.5 18t-13.5 41q0 22 13.5 40.5t42.5 18.5h39l11 66q16 97 67.5 137t131.5 40q24 0 47.5 -3.5t42 -12t30.5 -22t12 -32.5q0 -26 -16 -44t-44 -18q-18 0 -36 5q-10 2 -19 4.5t-25 2.5q-17 0 -29 -9.5t-17 -40.5l-12 -73h131q28 0 42 -18.5t14 -40.5
q0 -23 -14 -41t-42 -18h-150l-50 -319q-5 -26 -24 -44t-46 -18q-15 0 -29 6t-24 17t-14.5 28t-1.5 38z" />
    <glyph glyph-name="Khook" unicode="&#x198;" horiz-adv-x="632" 
d="M77 619q0 37 22 53t48 16q13 0 26 -4t23 -12t16.5 -21t6.5 -32v-231q22 11 38 22.5t28 23.5q17 17 28.5 41t24 51.5t30 57.5t46.5 59q21 21 46.5 33.5t54.5 12.5q22 0 39 -4t29 -16q17 -17 17 -43q0 -11 -3.5 -22.5t-14.5 -22.5q-9 -9 -18.5 -14t-19.5 -10t-21 -11.5
t-22 -17.5q-15 -15 -22.5 -33t-15 -38.5t-18.5 -43t-33 -47.5q42 -39 76.5 -82t59.5 -83.5t38.5 -76.5t13.5 -62q0 -35 -19 -55.5t-48 -20.5q-26 0 -42.5 12.5t-24.5 35.5q-10 27 -23 57t-32.5 61.5t-48 62.5t-69.5 61q-17 -10 -36 -20l-38 -20v-179q0 -18 -6.5 -31.5
t-16.5 -21.5t-23 -12t-26 -4q-26 0 -48 16t-22 53v562z" />
    <glyph glyph-name="khook" unicode="&#x199;" horiz-adv-x="555" 
d="M72 553q0 48 11.5 81.5t34 54.5t54.5 30t73 9q39 0 73.5 -9.5t51.5 -26.5q16 -16 16 -40q0 -25 -15 -39t-37 -14q-12 0 -22.5 2t-19.5 5q-20 6 -40 6q-17 0 -27.5 -10t-10.5 -42v-230q32 15 56.5 32.5t41.5 34.5q31 31 45 55t27 44q14 20 26.5 28.5t32.5 8.5
q26 0 44 -16.5t18 -43.5q0 -20 -9.5 -42.5t-25.5 -46t-38.5 -47t-47.5 -45.5q28 -29 52.5 -61t43 -64t29.5 -62t11 -54q0 -32 -19.5 -48.5t-46.5 -16.5t-45 18q-10 10 -17 25.5t-15 37.5q-12 31 -35 69.5t-70 75.5q-15 -8 -29.5 -15.5t-28.5 -14.5v-122q0 -19 -6.5 -32
t-16.5 -21.5t-23 -12.5t-26 -4q-26 0 -48 16t-22 54v493z" />
    <glyph glyph-name="Yogh" unicode="&#x1b7;" horiz-adv-x="590" 
d="M14 -50q0 23 16.5 42t43.5 19q11 0 23 -3.5t21 -7.5q26 -11 53 -16t64 -5q28 0 57 7.5t52.5 22.5t38 38t14.5 54q0 54 -29 86t-102 33q-17 0 -33 -2t-30 -2q-22 0 -36 16t-14 39q0 14 5.5 26t14.5 24l170 237h-236q-32 0 -46 18.5t-14 41.5q0 22 14 42t46 20h373
q32 0 46 -20t14 -42t-11 -37l-173 -241q47 -9 82.5 -31t59.5 -53.5t36 -70.5t12 -81q0 -68 -27 -115.5t-71.5 -77.5t-100 -44t-112.5 -14q-23 0 -52 2.5t-57 8.5t-52.5 16t-39.5 25q-20 20 -20 45z" />
    <glyph glyph-name="Acaron" unicode="&#x1cd;" horiz-adv-x="671" 
d="M437 277q-11 46 -31.5 98.5t-48.5 106.5q-13 26 -22 47h-1q-5 -11 -10 -22.5t-12 -24.5q-28 -54 -48.5 -106.5t-31.5 -98.5h205zM46 63q0 33 9 82t25.5 106t38.5 118t48.5 117.5t56 104t60.5 78.5q21 21 51.5 21t51.5 -21q31 -31 60.5 -78.5t56 -104t48.5 -117
t38.5 -117.5t25.5 -106t9 -82q0 -42 -20.5 -59t-49.5 -17q-30 0 -47 18t-22 49q-3 20 -7.5 46t-12.5 58h-263q-8 -32 -12.5 -58t-7.5 -46q-5 -31 -22 -49t-47 -18q-29 0 -48.5 16.5t-19.5 58.5zM184 838q-12 8 -19.5 20.5t-7.5 26.5q0 22 15.5 35.5t34.5 13.5q5 0 11 -1
t14 -5l104 -54l104 54q8 4 14 5t11 1q19 0 34.5 -13.5t15.5 -35.5q0 -14 -7.5 -26.5t-19.5 -20.5l-116 -76q-7 -5 -16 -8t-20 -3t-20 3t-16 8z" />
    <glyph glyph-name="acaron" unicode="&#x1ce;" horiz-adv-x="568" 
d="M181 152q0 -34 20.5 -47.5t54.5 -13.5q35 0 58.5 10t37.5 18q-3 16 -4 31t-1 33v39q-10 1 -16.5 1h-11.5q-23 0 -47.5 -2t-44.5 -9.5t-33 -21.5t-13 -38zM39 144q0 52 24.5 86t63 53.5t86 27t94.5 7.5h14t26 -1v46q0 27 -18.5 38.5t-55.5 11.5q-40 0 -65.5 -8t-39.5 -14
q-7 -3 -18 -6t-22 -3q-26 0 -40 16.5t-14 36.5q0 26 17 43q13 13 34 22.5t45.5 15.5t51 9t51.5 3q46 0 85 -9t67 -28.5t43.5 -50t15.5 -73.5v-189q0 -28 2.5 -43t8.5 -23q12 -13 24.5 -18t25.5 -19q13 -13 13 -36q0 -19 -13.5 -35.5t-45.5 -16.5q-35 0 -60 14.5t-45 34.5
q-9 -9 -24.5 -18.5t-35 -17.5t-43.5 -13t-49 -5q-39 0 -76 9.5t-65 29.5t-45 50.5t-17 72.5zM133 671q-12 8 -19.5 20.5t-7.5 26.5q0 22 15.5 35.5t34.5 13.5q5 0 11 -1t14 -5l104 -54l104 54q8 4 14 5t11 1q19 0 34.5 -13.5t15.5 -35.5q0 -14 -7.5 -26.5t-19.5 -20.5
l-116 -76q-7 -5 -16 -8t-20 -3t-20 3t-16 8z" />
    <glyph glyph-name="Icaron" unicode="&#x1cf;" horiz-adv-x="390" 
d="M56 54q0 21 13 39.5t42 18.5h13v457h-13q-29 0 -42 17t-13 37q0 21 13 39t42 18h169q29 0 41.5 -18t12.5 -39q0 -20 -12.5 -37t-41.5 -17h-14v-457h14q29 0 41.5 -18.5t12.5 -39.5q0 -19 -12.5 -36.5t-41.5 -17.5h-169q-29 0 -42 17.5t-13 36.5zM45 838q-12 8 -19.5 20.5
t-7.5 26.5q0 22 15.5 35.5t34.5 13.5q5 0 11 -1t14 -5l104 -54l104 54q8 4 14 5t11 1q19 0 34.5 -13.5t15.5 -35.5q0 -14 -7.5 -26.5t-19.5 -20.5l-116 -76q-7 -5 -16 -8t-20 -3t-20 3t-16 8z" />
    <glyph glyph-name="icaron" unicode="&#x1d0;" horiz-adv-x="319" 
d="M100 396h-38q-32 0 -45.5 17t-13.5 40q0 22 13.5 39.5t45.5 17.5h122q31 0 44 -17t13 -38v-396q0 -18 -6.5 -31.5t-16.5 -21.5t-22.5 -12t-25.5 -4q-26 0 -48 16t-22 53v337zM-6 671q-12 8 -19.5 20.5t-7.5 26.5q0 22 15.5 35.5t34.5 13.5q5 0 11 -1t14 -5l104 -54
l104 54q8 4 14 5t11 1q19 0 34.5 -13.5t15.5 -35.5q0 -14 -7.5 -26.5t-19.5 -20.5l-116 -76q-7 -5 -16 -8t-20 -3t-20 3t-16 8z" />
    <glyph glyph-name="Ocaron" unicode="&#x1d1;" horiz-adv-x="732" 
d="M366 109q28 0 57.5 10t53 36t38.5 71t15 115q0 69 -15 114t-38.5 71t-53 36t-57.5 10q-29 0 -58 -10t-52.5 -36t-38.5 -71t-15 -114q0 -70 15 -115t38.5 -71t52.5 -36t58 -10zM53 341q0 107 29 176t74 109.5t100.5 56t109.5 15.5t109.5 -15.5t100.5 -56t74 -109.5
t29 -176t-29 -176.5t-74 -110t-100.5 -56.5t-109.5 -16t-109.5 16t-100.5 56.5t-74 110t-29 176.5zM213 838q-12 8 -19.5 20.5t-7.5 26.5q0 22 15.5 35.5t34.5 13.5q5 0 11 -1t14 -5l104 -54l104 54q8 4 14 5t11 1q19 0 34.5 -13.5t15.5 -35.5q0 -14 -7.5 -26.5t-19.5 -20.5
l-116 -76q-7 -5 -16 -8t-20 -3t-20 3t-16 8z" />
    <glyph glyph-name="ocaron" unicode="&#x1d2;" 
d="M300 96q21 0 41 6.5t36 23.5t26 48t10 81q0 49 -10 80.5t-26 48.5t-36 23.5t-41 6.5t-41 -6.5t-35.5 -23.5t-25.5 -48.5t-10 -80.5q0 -50 10 -81t25.5 -48t35.5 -23.5t41 -6.5zM42 255q0 82 24.5 134.5t62.5 83.5t83.5 43t87.5 12t88 -12t83.5 -43t62 -83.5t24.5 -134.5
t-24.5 -135t-62.5 -83.5t-83.5 -42.5t-87.5 -12t-88 12t-83.5 42.5t-62 83.5t-24.5 135zM148 671q-12 8 -19.5 20.5t-7.5 26.5q0 22 15.5 35.5t34.5 13.5q5 0 11 -1t14 -5l104 -54l104 54q8 4 14 5t11 1q19 0 34.5 -13.5t15.5 -35.5q0 -14 -7.5 -26.5t-19.5 -20.5l-116 -76
q-7 -5 -16 -8t-20 -3t-20 3t-16 8z" />
    <glyph glyph-name="Ucaron" unicode="&#x1d3;" horiz-adv-x="714" 
d="M72 621q0 38 22 53.5t48 15.5q13 0 26 -4t23 -12t16.5 -21t6.5 -32v-350q0 -51 12 -83t32 -49.5t45.5 -24t53.5 -6.5t53.5 6.5t45.5 24t32 49.5t12 83v350q0 38 22 53.5t48 15.5q13 0 25.5 -4t23 -12t17 -21t6.5 -32v-339q0 -92 -23.5 -150.5t-63 -91.5t-91 -45.5
t-107.5 -12.5t-107.5 12.5t-91 45.5t-63 91t-23.5 150v340zM208 838q-12 8 -19.5 20.5t-7.5 26.5q0 22 15.5 35.5t34.5 13.5q5 0 11 -1t14 -5l104 -54l104 54q8 4 14 5t11 1q19 0 34.5 -13.5t15.5 -35.5q0 -14 -7.5 -26.5t-19.5 -20.5l-116 -76q-7 -5 -16 -8t-20 -3t-20 3
t-16 8z" />
    <glyph glyph-name="ucaron" unicode="&#x1d4;" horiz-adv-x="623" 
d="M68 451q0 37 22.5 53t48.5 16t48 -15.5t22 -53.5v-278q0 -25 7.5 -40t18.5 -23.5t24 -11.5t24 -3q24 0 42.5 5.5t33 14.5t24.5 19.5t17 19.5q-1 8 -1 15.5v9.5v272q0 37 22.5 53t48.5 16t47.5 -16t21.5 -53v-252q0 -22 6 -42t13 -38t13 -34.5t6 -30.5q0 -30 -20.5 -47
t-46.5 -17q-13 0 -26 4.5t-25 16.5q-8 8 -15 20t-15 27q-10 -13 -25.5 -26.5t-36.5 -24.5t-47.5 -18t-57.5 -7q-33 0 -67 6.5t-62.5 26.5t-46.5 57.5t-18 100.5v278zM153 671q-12 8 -19.5 20.5t-7.5 26.5q0 22 15.5 35.5t34.5 13.5q5 0 11 -1t14 -5l104 -54l104 54q8 4 14 5
t11 1q19 0 34.5 -13.5t15.5 -35.5q0 -14 -7.5 -26.5t-19.5 -20.5l-116 -76q-7 -5 -16 -8t-20 -3t-20 3t-16 8z" />
    <glyph glyph-name="Adieresismacron" unicode="&#x1de;" horiz-adv-x="671" 
d="M437 277q-11 46 -31.5 98.5t-48.5 106.5q-13 26 -22 47h-1q-5 -11 -10 -22.5t-12 -24.5q-28 -54 -48.5 -106.5t-31.5 -98.5h205zM46 63q0 33 9 82t25.5 106t38.5 118t48.5 117.5t56 104t60.5 78.5q21 21 51.5 21t51.5 -21q31 -31 60.5 -78.5t56 -104t48.5 -117
t38.5 -117.5t25.5 -106t9 -82q0 -42 -20.5 -59t-49.5 -17q-30 0 -47 18t-22 49q-3 20 -7.5 46t-12.5 58h-263q-8 -32 -12.5 -58t-7.5 -46q-5 -31 -22 -49t-47 -18q-29 0 -48.5 16.5t-19.5 58.5zM237 733q-30 0 -51.5 21t-21.5 51q0 29 21.5 50t51.5 21t52 -21t22 -50
q0 -30 -22 -51t-52 -21zM435 733q-30 0 -51.5 21t-21.5 51q0 29 21.5 50t51.5 21t52 -21t22 -50q0 -30 -22 -51t-52 -21zM205 914q-22 0 -37 15t-15 37t15 36t37 14h262q22 0 37.5 -14t15.5 -36t-15.5 -37t-37.5 -15h-262z" />
    <glyph glyph-name="adieresismacron" unicode="&#x1df;" horiz-adv-x="568" 
d="M181 152q0 -34 20.5 -47.5t54.5 -13.5q35 0 58.5 10t37.5 18q-3 16 -4 31t-1 33v39q-10 1 -16.5 1h-11.5q-23 0 -47.5 -2t-44.5 -9.5t-33 -21.5t-13 -38zM39 144q0 52 24.5 86t63 53.5t86 27t94.5 7.5h14t26 -1v46q0 27 -18.5 38.5t-55.5 11.5q-40 0 -65.5 -8t-39.5 -14
q-7 -3 -18 -6t-22 -3q-26 0 -40 16.5t-14 36.5q0 26 17 43q13 13 34 22.5t45.5 15.5t51 9t51.5 3q46 0 85 -9t67 -28.5t43.5 -50t15.5 -73.5v-189q0 -28 2.5 -43t8.5 -23q12 -13 24.5 -18t25.5 -19q13 -13 13 -36q0 -19 -13.5 -35.5t-45.5 -16.5q-35 0 -60 14.5t-45 34.5
q-9 -9 -24.5 -18.5t-35 -17.5t-43.5 -13t-49 -5q-39 0 -76 9.5t-65 29.5t-45 50.5t-17 72.5zM186 565q-30 0 -51.5 21t-21.5 51q0 29 21.5 50t51.5 21t52 -21t22 -50q0 -30 -22 -51t-52 -21zM384 565q-30 0 -51.5 21t-21.5 51q0 29 21.5 50t51.5 21t52 -21t22 -50
q0 -30 -22 -51t-52 -21zM154 746q-22 0 -37 15t-15 37t15 36t37 14h262q22 0 37.5 -14t15.5 -36t-15.5 -37t-37.5 -15h-262z" />
    <glyph glyph-name="AEmacron" unicode="&#x1e2;" horiz-adv-x="918" 
d="M421 277v239h-1q-48 -51 -90.5 -112t-75.5 -127h167zM8 58q0 19 11 55t31.5 82.5t48.5 100.5t62.5 108.5t74.5 106.5t83 95q37 37 67 55.5t60 18.5h364q32 0 46 -20t14 -42q0 -23 -14 -41.5t-46 -18.5h-228q-19 0 -19 -19v-124h228q32 0 46 -18.5t14 -41.5q0 -22 -14 -42
t-46 -20h-228v-152q0 -19 19 -19h239q32 0 46 -18.5t14 -41.5q0 -22 -14 -42t-46 -20h-295q-20 0 -38.5 6t-33.5 18.5t-24 32t-9 47.5v55h-217q-15 -28 -26 -60.5t-22 -58.5q-11 -27 -30 -39t-45 -12q-35 0 -54 20.5t-19 48.5zM361 785q-22 0 -37 15.5t-15 37.5t15 37t37 15
h262q22 0 37.5 -15t15.5 -37t-15.5 -37.5t-37.5 -15.5h-262z" />
    <glyph glyph-name="aemacron" unicode="&#x1e3;" horiz-adv-x="836" 
d="M181 150q0 -18 6.5 -29.5t17.5 -18t24 -9t27 -2.5q35 0 58.5 10.5t37.5 19.5q-9 26 -13.5 49.5t-6.5 52.5h-13q-23 0 -47.5 -2t-44.5 -9.5t-33 -22t-13 -39.5zM663 308q-4 60 -25 86.5t-64 26.5t-68 -29t-30 -84h187zM39 144q0 57 28 91.5t69 53t87.5 24t83.5 5.5h14
t26 -1v46q0 4 -2 12.5t-9.5 16.5t-22 14.5t-40.5 6.5q-40 0 -64.5 -7t-40.5 -15q-6 -3 -17.5 -6t-22.5 -3q-26 0 -40 16.5t-14 36.5q0 26 17 43q13 13 34 22.5t45.5 15.5t51 9t51.5 3q49 0 85.5 -10.5t67.5 -41.5h1q29 26 65 39t73 13q50 0 92 -14.5t72.5 -45.5t47.5 -79
t17 -114q0 -14 -2 -26.5t-9 -22.5t-20 -15.5t-35 -5.5h-255q4 -32 15.5 -52.5t28 -32.5t36.5 -17t42 -5q25 0 49.5 5t42.5 12q10 4 22 7.5t22 3.5q25 0 39 -16t14 -36q0 -25 -18 -43q-12 -12 -33 -21t-45 -15.5t-49 -9.5t-44 -3q-54 0 -102.5 15t-84.5 47h-1
q-30 -28 -72 -45t-93 -17q-32 0 -68 7.5t-66 26.5t-49.5 50t-19.5 78zM292 606q-22 0 -37 15.5t-15 37.5t15 37t37 15h262q22 0 37.5 -15t15.5 -37t-15.5 -37.5t-37.5 -15.5h-262z" />
    <glyph glyph-name="Gstroke" unicode="&#x1e4;" horiz-adv-x="747" 
d="M53 339q0 100 30.5 168.5t79 111t108.5 61t119 18.5q28 0 57 -3.5t55.5 -10.5t49.5 -18t38 -26q11 -11 17.5 -24t6.5 -29q0 -26 -15 -43.5t-43 -17.5q-14 0 -25 4t-22 10q-19 10 -46 19.5t-75 9.5q-34 0 -67 -12t-59.5 -39t-42.5 -71t-16 -108t15.5 -108.5t42 -72.5
t61 -40.5t73.5 -12.5q29 0 64 5.5t61 16.5v10h-117q-22 0 -33.5 12.5t-11.5 34.5q0 20 11.5 34t33.5 14h117v29h-102q-32 0 -46 19t-14 42t14 42t46 19h170q38 0 54 -20.5t16 -55.5v-64h54q22 0 36 -15.5t14 -37.5t-14 -37.5t-36 -15.5h-54v-11q0 -25 -2 -39.5t-15 -27.5
q-21 -21 -52.5 -35.5t-65.5 -24t-66.5 -13.5t-56.5 -4q-73 0 -136 19t-110 61.5t-74 110.5t-27 166z" />
    <glyph glyph-name="gstroke" unicode="&#x1e5;" horiz-adv-x="621" 
d="M300 139q32 0 62 17t47 48v161q-18 27 -45 39.5t-59 12.5q-21 0 -41 -7.5t-36 -24t-25.5 -43.5t-9.5 -65q0 -43 8.5 -70t23 -42t34 -20.5t41.5 -5.5zM70 -112q0 25 15.5 41t38.5 16q13 0 25 -4t25 -11q21 -11 47 -21t67 -10q27 0 49.5 7t37.5 19h-85q-22 0 -33.5 9
t-11.5 31q0 40 45 40h118q1 11 1 23.5v25.5v20h-2q-23 -20 -54 -33.5t-73 -13.5q-44 0 -86 11t-74.5 39.5t-52.5 77t-20 123.5q0 69 22.5 116.5t58 77t78 43t82.5 13.5q38 0 75 -12.5t65 -38.5l1 3q13 40 57 40q24 0 43.5 -15.5t19.5 -53.5v-402q0 -11 -0.5 -20.5
t-1.5 -18.5h56q22 0 36 -12t14 -34t-14 -33t-36 -11h-74q-26 -71 -86.5 -104.5t-155.5 -33.5q-27 0 -55 4t-54.5 11.5t-48.5 18t-35 24.5q-11 11 -17.5 22.5t-6.5 25.5z" />
    <glyph glyph-name="Gcaron" unicode="&#x1e6;" horiz-adv-x="718" 
d="M53 339q0 100 30.5 168.5t79 111t108.5 61t119 18.5q28 0 57 -3.5t55.5 -10.5t49.5 -18t38 -26q11 -11 17.5 -24t6.5 -29q0 -26 -15 -43.5t-43 -17.5q-14 0 -25 4t-22 10q-19 10 -46 19.5t-75 9.5q-34 0 -67 -12t-59.5 -39t-42.5 -71t-16 -108t15.5 -108.5t42 -72.5
t61 -40.5t73.5 -12.5q29 0 64 5.5t61 16.5v134h-102q-32 0 -46 19t-14 42t14 42t46 19h170q38 0 54 -20.5t16 -55.5v-181q0 -25 -2 -39.5t-15 -27.5q-21 -21 -52.5 -35.5t-65.5 -24t-66.5 -13.5t-56.5 -4q-73 0 -136 19t-110 61.5t-74 110.5t-27 166zM216 838
q-12 8 -19.5 20.5t-7.5 26.5q0 22 15.5 35.5t34.5 13.5q5 0 11 -1t14 -5l104 -54l104 54q8 4 14 5t11 1q19 0 34.5 -13.5t15.5 -35.5q0 -14 -7.5 -26.5t-19.5 -20.5l-116 -76q-7 -5 -16 -8t-20 -3t-20 3t-16 8z" />
    <glyph glyph-name="gcaron" unicode="&#x1e7;" horiz-adv-x="621" 
d="M300 114q32 0 62 17t47 48v186q-18 27 -45 39.5t-59 12.5q-21 0 -41 -7.5t-36 -25.5t-25.5 -47.5t-9.5 -72.5t8.5 -71.5t23 -46t34 -25t41.5 -7.5zM70 -112q0 25 15.5 41t38.5 16q13 0 25 -4t25 -11q21 -11 47 -21t67 -10q29 0 53.5 8t38.5 22q17 16 23 44t6 63v13h-2
q-23 -20 -54 -33.5t-73 -13.5q-44 0 -86 13t-74.5 43.5t-52.5 80.5t-20 125t22.5 125.5t58 81t78 44t82.5 13.5q38 0 75 -12.5t65 -38.5l1 3q13 40 57 40q24 0 43.5 -15.5t19.5 -53.5v-406q0 -137 -71.5 -200t-197.5 -63q-27 0 -54.5 4t-53 11.5t-47 18t-34.5 24.5
q-21 21 -21 48zM146 671q-12 8 -19.5 20.5t-7.5 26.5q0 22 15.5 35.5t34.5 13.5q5 0 11 -1t14 -5l104 -54l104 54q8 4 14 5t11 1q19 0 34.5 -13.5t15.5 -35.5q0 -14 -7.5 -26.5t-19.5 -20.5l-116 -76q-7 -5 -16 -8t-20 -3t-20 3t-16 8z" />
    <glyph glyph-name="Kcaron" unicode="&#x1e8;" horiz-adv-x="632" 
d="M77 621q0 37 22 53t48 16q13 0 26 -4t23 -12t16.5 -21t6.5 -32v-228q48 27 82.5 53t61 55.5t47.5 64t42 79.5q8 17 22.5 31.5t36.5 14.5q29 0 49.5 -18t20.5 -49q0 -15 -9 -41.5t-29.5 -61t-52.5 -74.5t-78 -81q42 -39 77 -82t59.5 -84.5t38.5 -77.5t14 -62
q0 -35 -19.5 -54.5t-48.5 -19.5q-26 0 -42.5 12.5t-24.5 35.5q-10 27 -23 57t-32.5 61.5t-48 62.5t-69.5 61q-17 -10 -36 -20l-38 -20v-177q0 -18 -6.5 -31.5t-16.5 -21.5t-23 -12t-26 -4q-26 0 -48 16t-22 53v562zM165 839q-12 8 -19.5 20.5t-7.5 26.5q0 22 15.5 35.5
t34.5 13.5q5 0 11 -1t14 -5l104 -54l104 54q8 4 14 5t11 1q19 0 34.5 -13.5t15.5 -35.5q0 -14 -7.5 -26.5t-19.5 -20.5l-116 -76q-7 -5 -16 -8t-20 -3t-20 3t-16 8z" />
    <glyph glyph-name="kcaron" unicode="&#x1e9;" horiz-adv-x="555" 
d="M72 650q0 38 21.5 54t47.5 16t48.5 -16t22.5 -54v-320q32 15 57.5 32.5t42.5 34.5q31 31 45 55t27 44q14 20 26.5 28.5t32.5 8.5q26 0 44 -16.5t18 -43.5q0 -20 -9.5 -42.5t-25.5 -46t-38.5 -47t-47.5 -45.5q28 -29 52.5 -61t43 -64t29.5 -62t11 -54q0 -32 -19.5 -48.5
t-46.5 -16.5t-45 18q-10 10 -17 25.5t-15 37.5q-12 31 -35 69.5t-70 75.5q-15 -8 -30.5 -15.5t-29.5 -14.5v-122q0 -38 -22.5 -54t-48.5 -16t-47.5 16t-21.5 54v590zM-12 881q-12 8 -19.5 20.5t-7.5 26.5q0 22 15.5 35.5t34.5 13.5q5 0 11 -1t14 -5l104 -54l104 54q8 4 14 5
t11 1q19 0 34.5 -13.5t15.5 -35.5q0 -14 -7.5 -26.5t-19.5 -20.5l-116 -76q-7 -5 -16 -8t-20 -3t-20 3t-16 8z" />
    <glyph glyph-name="Oogonek" unicode="&#x1ea;" horiz-adv-x="732" 
d="M366 109q28 0 57.5 10t53 36t38.5 71t15 115q0 69 -15 114t-38.5 71t-53 36t-57.5 10q-29 0 -58 -10t-52.5 -36t-38.5 -71t-15 -114q0 -70 15 -115t38.5 -71t52.5 -36t58 -10zM281 -101q0 23 9 45t29 41q-49 6 -97 26.5t-85.5 61.5t-60.5 106.5t-23 161.5q0 107 29 176
t74 109.5t100.5 56t109.5 15.5t109.5 -15.5t100.5 -56t74 -109.5t29 -176q0 -95 -23 -160.5t-60.5 -107t-84.5 -62t-96 -26.5q-17 -18 -24.5 -35.5t-7.5 -29.5q0 -14 8 -18t18 -4t18.5 2.5t16.5 5.5q7 2 14 4.5t15 2.5q17 0 28.5 -10t11.5 -28q0 -17 -13 -30
q-9 -9 -23 -15.5t-28 -10t-27 -5t-22 -1.5q-57 0 -88 24.5t-31 61.5z" />
    <glyph glyph-name="oogonek" unicode="&#x1eb;" 
d="M300 96q21 0 41 6.5t36 23.5t26 48t10 81q0 49 -10 80.5t-26 48.5t-36 23.5t-41 6.5t-41 -6.5t-35.5 -23.5t-25.5 -48.5t-10 -80.5q0 -50 10 -81t25.5 -48t35.5 -23.5t41 -6.5zM42 255q0 82 24.5 134.5t62.5 83.5t83.5 43t87.5 12t88 -12t83.5 -43t62 -83.5t24.5 -134.5
q0 -69 -18 -117.5t-47 -80t-66 -48.5t-75 -23q-17 -18 -25 -36t-8 -30q0 -14 8 -18t18 -4t18.5 2.5t16.5 5.5q7 2 14 4.5t15 2.5q17 0 28.5 -10t11.5 -28q0 -17 -13 -30q-9 -9 -23 -15.5t-28 -10t-27 -5t-22 -1.5q-57 0 -88 24.5t-31 61.5q0 23 9 45t29 41q-39 5 -77 21
t-68 47.5t-49 81t-19 120.5z" />
    <glyph glyph-name="Oogonekmacron" unicode="&#x1ec;" horiz-adv-x="732" 
d="M366 109q28 0 57.5 10t53 36t38.5 71t15 115q0 69 -15 114t-38.5 71t-53 36t-57.5 10q-29 0 -58 -10t-52.5 -36t-38.5 -71t-15 -114q0 -70 15 -115t38.5 -71t52.5 -36t58 -10zM281 -101q0 23 9 45t29 41q-49 6 -97 26.5t-85.5 61.5t-60.5 106.5t-23 161.5q0 107 29 176
t74 109.5t100.5 56t109.5 15.5t109.5 -15.5t100.5 -56t74 -109.5t29 -176q0 -95 -23 -160.5t-60.5 -107t-84.5 -62t-96 -26.5q-17 -18 -24.5 -35.5t-7.5 -29.5q0 -14 8 -18t18 -4t18.5 2.5t16.5 5.5q7 2 14 4.5t15 2.5q17 0 28.5 -10t11.5 -28q0 -17 -13 -30
q-9 -9 -23 -15.5t-28 -10t-27 -5t-22 -1.5q-57 0 -88 24.5t-31 61.5zM235 785q-22 0 -37 15.5t-15 37.5t15 37t37 15h262q22 0 37.5 -15t15.5 -37t-15.5 -37.5t-37.5 -15.5h-262z" />
    <glyph glyph-name="oogonekmacron" unicode="&#x1ed;" 
d="M300 96q21 0 41 6.5t36 23.5t26 48t10 81q0 49 -10 80.5t-26 48.5t-36 23.5t-41 6.5t-41 -6.5t-35.5 -23.5t-25.5 -48.5t-10 -80.5q0 -50 10 -81t25.5 -48t35.5 -23.5t41 -6.5zM217 -101q0 23 9 45t29 41q-39 5 -77 21t-68 47.5t-49 81t-19 120.5q0 82 24.5 134.5
t62.5 83.5t83.5 43t87.5 12t88 -12t83.5 -43t62 -83.5t24.5 -134.5q0 -69 -18 -117.5t-47 -80t-66 -48.5t-75 -23q-17 -18 -25 -36t-8 -30q0 -14 8 -18t18 -4t18.5 2.5t16.5 5.5q7 2 14 4.5t15 2.5q17 0 28.5 -10t11.5 -28q0 -17 -13 -30q-9 -9 -23 -15.5t-28 -10t-27 -5
t-22 -1.5q-57 0 -88 24.5t-31 61.5zM171 622q-22 0 -37 15.5t-15 37.5t15 37t37 15h262q22 0 37.5 -15t15.5 -37t-15.5 -37.5t-37.5 -15.5h-262z" />
    <glyph glyph-name="jcaron" unicode="&#x1f0;" horiz-adv-x="319" 
d="M70 -74q17 17 23.5 48t6.5 72v350h-36q-32 0 -45.5 17t-13.5 40q0 22 13.5 39.5t45.5 17.5h120q31 0 44 -17.5t13 -38.5v-419q0 -68 -16.5 -112.5t-51.5 -79.5q-58 -58 -128 -58q-29 0 -46 14t-17 40q0 14 4.5 23.5t12.5 17.5q17 17 36.5 24t34.5 22zM-9 671
q-12 8 -19.5 20.5t-7.5 26.5q0 22 15.5 35.5t34.5 13.5q5 0 11 -1t14 -5l104 -54l104 54q8 4 14 5t11 1q19 0 34.5 -13.5t15.5 -35.5q0 -14 -7.5 -26.5t-19.5 -20.5l-116 -76q-7 -5 -16 -8t-20 -3t-20 3t-16 8z" />
    <glyph glyph-name="jcaron" unicode="&#xe10c;" horiz-adv-x="319" 
d="M70 -74q17 17 23.5 48t6.5 72v350h-36q-32 0 -45.5 17t-13.5 40q0 22 13.5 39.5t45.5 17.5h120q31 0 44 -17.5t13 -38.5v-419q0 -68 -16.5 -112.5t-51.5 -79.5q-58 -58 -128 -58q-29 0 -46 14t-17 40q0 14 4.5 23.5t12.5 17.5q17 17 36.5 24t34.5 22zM-9 671
q-12 8 -19.5 20.5t-7.5 26.5q0 22 15.5 35.5t34.5 13.5q5 0 11 -1t14 -5l104 -54l104 54q8 4 14 5t11 1q19 0 34.5 -13.5t15.5 -35.5q0 -14 -7.5 -26.5t-19.5 -20.5l-116 -76q-7 -5 -16 -8t-20 -3t-20 3t-16 8z" />
    <glyph glyph-name="Gacute" unicode="&#x1f4;" horiz-adv-x="718" 
d="M53 339q0 100 30.5 168.5t79 111t108.5 61t119 18.5q28 0 57 -3.5t55.5 -10.5t49.5 -18t38 -26q11 -11 17.5 -24t6.5 -29q0 -26 -15 -43.5t-43 -17.5q-14 0 -25 4t-22 10q-19 10 -46 19.5t-75 9.5q-34 0 -67 -12t-59.5 -39t-42.5 -71t-16 -108t15.5 -108.5t42 -72.5
t61 -40.5t73.5 -12.5q29 0 64 5.5t61 16.5v134h-102q-32 0 -46 19t-14 42t14 42t46 19h170q38 0 54 -20.5t16 -55.5v-181q0 -25 -2 -39.5t-15 -27.5q-21 -21 -52.5 -35.5t-65.5 -24t-66.5 -13.5t-56.5 -4q-73 0 -136 19t-110 61.5t-74 110.5t-27 166zM313 751
q-20 0 -35 14.5t-15 36.5q0 15 8.5 28.5t22.5 21.5l137 73q16 9 35 9q26 0 43 -16t17 -45q0 -18 -10 -36t-32 -26l-149 -56q-11 -4 -22 -4z" />
    <glyph glyph-name="gacute" unicode="&#x1f5;" horiz-adv-x="621" 
d="M300 114q32 0 62 17t47 48v186q-18 27 -45 39.5t-59 12.5q-21 0 -41 -7.5t-36 -25.5t-25.5 -47.5t-9.5 -72.5t8.5 -71.5t23 -46t34 -25t41.5 -7.5zM70 -112q0 25 15.5 41t38.5 16q13 0 25 -4t25 -11q21 -11 47 -21t67 -10q29 0 53.5 8t38.5 22q17 16 23 44t6 63v13h-2
q-23 -20 -54 -33.5t-73 -13.5q-44 0 -86 13t-74.5 43.5t-52.5 80.5t-20 125t22.5 125.5t58 81t78 44t82.5 13.5q38 0 75 -12.5t65 -38.5l1 3q13 40 57 40q24 0 43.5 -15.5t19.5 -53.5v-406q0 -137 -71.5 -200t-197.5 -63q-27 0 -54.5 4t-53 11.5t-47 18t-34.5 24.5
q-21 21 -21 48zM240 583q-20 0 -35 14.5t-15 36.5q0 15 8.5 28.5t22.5 21.5l137 73q16 9 35 9q26 0 43 -16t17 -45q0 -18 -10 -36t-32 -26l-149 -56q-11 -4 -22 -4z" />
    <glyph glyph-name="Ngrave" unicode="&#x1f8;" horiz-adv-x="720" 
d="M77 615q0 38 23 56.5t51 18.5q17 0 38 -6.5t44 -38.5l224 -317l10 -15l13 -19.5t13 -21t11 -19.5h2q-2 26 -2.5 49.5t-0.5 51.5v267q0 18 6.5 31t16.5 21.5t23 12.5t26 4q25 0 46.5 -16.5t21.5 -52.5v-558q0 -37 -22.5 -55t-47.5 -18q-7 0 -16.5 1t-20.5 5t-22 11.5
t-20 20.5l-229 321q-9 13 -24.5 36.5t-24.5 41.5h-2q2 -27 2.5 -50t0.5 -52v-266q0 -18 -6.5 -31t-16.5 -21.5t-23 -12.5t-26 -4q-25 0 -46.5 16.5t-21.5 52.5v556zM277 811q-22 8 -32 26t-10 36q0 29 17 45t43 16q18 0 35 -9l137 -73q14 -8 22.5 -21.5t8.5 -28.5
q0 -22 -15 -36.5t-35 -14.5q-11 0 -22 4z" />
    <glyph glyph-name="ngrave" unicode="&#x1f9;" horiz-adv-x="623" 
d="M84 311q0 22 -6 42t-13 38t-13 34.5t-6 30.5q0 30 20.5 47t46.5 17q13 0 26 -4.5t25 -16.5q8 -8 15 -20t15 -27q10 13 26 26.5t37 24.5t47 18t58 7q33 0 67 -6.5t62 -26.5t46 -57.5t18 -100.5v-278q0 -19 -6.5 -32t-16.5 -21.5t-22.5 -12t-25.5 -3.5q-26 0 -48 15.5
t-22 53.5v278q0 25 -7.5 40t-18.5 23.5t-24 11.5t-24 3q-24 0 -42.5 -5.5t-33 -14.5t-24.5 -19.5t-17 -19.5q1 -8 1 -15.5v-9.5v-272q0 -37 -22.5 -53t-48.5 -16t-47.5 16t-21.5 53v252zM206 643q-22 8 -32 26t-10 36q0 29 17 45t43 16q18 0 35 -9l137 -73q14 -8 22.5 -21.5
t8.5 -28.5q0 -22 -15 -36.5t-35 -14.5q-11 0 -22 4z" />
    <glyph glyph-name="Aringacute" unicode="&#x1fa;" horiz-adv-x="671" 
d="M437 277q-11 46 -31.5 98.5t-48.5 106.5q-13 26 -22 47h-1q-5 -11 -10 -22.5t-12 -24.5q-28 -54 -48.5 -106.5t-31.5 -98.5h205zM46 63q0 33 9 82t25.5 106t38.5 118t48.5 117.5t56 104t60.5 78.5q21 21 51.5 21t51.5 -21q31 -31 60.5 -78.5t56 -104t48.5 -117
t38.5 -117.5t25.5 -106t9 -82q0 -42 -20.5 -59t-49.5 -17q-30 0 -47 18t-22 49q-3 20 -7.5 46t-12.5 58h-263q-8 -32 -12.5 -58t-7.5 -46q-5 -31 -22 -49t-47 -18q-29 0 -48.5 16.5t-19.5 58.5zM331 795q17 0 28 10.5t11 27.5q0 16 -11 27t-28 11t-28 -11t-11 -27
q0 -17 11 -27.5t28 -10.5zM331 722q-24 0 -44.5 8.5t-36.5 23.5t-25 35t-9 44q0 22 9 41.5t24 34.5l102 106q13 13 27 13t23.5 -7.5t10.5 -21t-12 -27.5l-35 -36q35 -10 58 -38t23 -65q0 -24 -9 -44t-25 -35t-36.5 -23.5t-44.5 -8.5z" />
    </font>
</defs>
</svg>
